<?xml version="1.0" encoding="utf-8"?>
<COLLADA xmlns="http://www.collada.org/2005/11/COLLADASchema" version="1.4.1" xmlns:xsi="http://www.w3.org/2001/XMLSchema-instance">
  <asset>
    <contributor>
      <author>Blender User</author>
      <authoring_tool>Blender 3.6.2 commit date:2023-08-16, commit time:16:43, hash:e53e55951e7a</authoring_tool>
    </contributor>
    <created>2025-03-26T12:38:12</created>
    <modified>2025-03-26T12:38:12</modified>
    <unit name="meter" meter="1"/>
    <up_axis>Z_UP</up_axis>
  </asset>
  <library_images/>
  <library_geometries>
    <geometry id="Cylinder_016-mesh" name="Cylinder.016">
      <mesh>
        <source id="Cylinder_016-mesh-positions">
          <float_array id="Cylinder_016-mesh-positions-array" count="72">0 0.5 -0.5 0 0.5 0.2972415 0.25 0.4330127 -0.5 0.25 0.4330127 0.2972415 0.4330127 0.25 -0.5 0.4330127 0.25 0.2972415 0.5 0 -0.5 0.5 0 0.2972415 0.4330127 -0.25 -0.5 0.4330127 -0.25 0.2972415 0.25 -0.4330127 -0.5 0.25 -0.4330127 0.2972415 0 -0.5 -0.5 0 -0.5 0.2972415 -0.25 -0.4330127 -0.5 -0.25 -0.4330127 0.2972415 -0.4330127 -0.25 -0.5 -0.4330127 -0.25 0.2972415 -0.5 0 -0.5 -0.5 0 0.2972415 -0.4330127 0.25 -0.5 -0.4330127 0.25 0.2972415 -0.25 0.4330127 -0.5 -0.25 0.4330127 0.2972415</float_array>
          <technique_common>
            <accessor source="#Cylinder_016-mesh-positions-array" count="24" stride="3">
              <param name="X" type="float"/>
              <param name="Y" type="float"/>
              <param name="Z" type="float"/>
            </accessor>
          </technique_common>
        </source>
        <source id="Cylinder_016-mesh-normals">
          <float_array id="Cylinder_016-mesh-normals-array" count="51">0.2588191 0.9659259 0 0.7071067 0.7071069 0 0.9659259 0.258819 0 0.9659259 -0.258819 0 0.7071068 -0.7071068 0 0.2588191 -0.9659259 0 -0.2588191 -0.9659259 0 -0.7071067 -0.7071069 0 -0.9659259 -0.258819 0 -0.9659259 0.258819 0 -0.7071068 0.7071068 0 -0.2588191 0.9659259 0 0 0 -1 0.7071068 0.7071068 0 0.7071067 -0.7071069 0 -0.7071068 -0.7071068 0 -0.7071067 0.7071069 0</float_array>
          <technique_common>
            <accessor source="#Cylinder_016-mesh-normals-array" count="17" stride="3">
              <param name="X" type="float"/>
              <param name="Y" type="float"/>
              <param name="Z" type="float"/>
            </accessor>
          </technique_common>
        </source>
        <source id="Cylinder_016-mesh-map-0">
          <float_array id="Cylinder_016-mesh-map-0-array" count="204">1 1 0.9166667 0.5 1 0.5 0.9166667 1 0.8333334 0.5 0.9166667 0.5 0.8333334 1 0.7500001 0.5 0.8333334 0.5 0.7500001 1 0.6666668 0.5 0.7500001 0.5 0.6666668 1 0.5833334 0.5 0.6666668 0.5 0.5833334 1 0.5000001 0.5 0.5833334 0.5 0.5000001 1 0.4166668 0.5 0.5000001 0.5 0.4166668 1 0.3333334 0.5 0.4166668 0.5 0.3333334 1 0.2500001 0.5 0.3333334 0.5 0.2500001 1 0.1666667 0.5 0.2500001 0.5 0.1666667 1 0.08333337 0.5 0.1666667 0.5 0.08333337 1 0 0.5 0.08333337 0.5 0.99 0.25 0.63 0.04215389 0.63 0.4578461 1 1 0.9166667 1 0.9166667 0.5 0.9166667 1 0.8333334 1 0.8333334 0.5 0.8333334 1 0.7500001 1 0.7500001 0.5 0.7500001 1 0.6666668 1 0.6666668 0.5 0.6666668 1 0.5833334 1 0.5833334 0.5 0.5833334 1 0.5000001 1 0.5000001 0.5 0.5000001 1 0.4166668 1 0.4166668 0.5 0.4166668 1 0.3333334 1 0.3333334 0.5 0.3333334 1 0.2500001 1 0.2500001 0.5 0.2500001 1 0.1666667 1 0.1666667 0.5 0.1666667 1 0.08333337 1 0.08333337 0.5 0.08333337 1 0 1 0 0.5 0.63 0.4578461 0.75 0.49 0.87 0.4578461 0.87 0.4578461 0.9578461 0.37 0.63 0.4578461 0.9578461 0.37 0.99 0.25 0.63 0.4578461 0.99 0.25 0.9578461 0.1299999 0.87 0.04215389 0.87 0.04215389 0.75 0.00999999 0.99 0.25 0.75 0.00999999 0.63 0.04215389 0.99 0.25 0.63 0.04215389 0.5421539 0.1299999 0.51 0.25 0.51 0.25 0.5421539 0.37 0.63 0.4578461 0.63 0.04215389 0.51 0.25 0.63 0.4578461</float_array>
          <technique_common>
            <accessor source="#Cylinder_016-mesh-map-0-array" count="102" stride="2">
              <param name="S" type="float"/>
              <param name="T" type="float"/>
            </accessor>
          </technique_common>
        </source>
        <vertices id="Cylinder_016-mesh-vertices">
          <input semantic="POSITION" source="#Cylinder_016-mesh-positions"/>
        </vertices>
        <triangles count="34">
          <input semantic="VERTEX" source="#Cylinder_016-mesh-vertices" offset="0"/>
          <input semantic="NORMAL" source="#Cylinder_016-mesh-normals" offset="1"/>
          <input semantic="TEXCOORD" source="#Cylinder_016-mesh-map-0" offset="2" set="0"/>
          <p>1 0 0 2 0 1 0 0 2 3 1 3 4 1 4 2 1 5 5 2 6 6 2 7 4 2 8 7 3 9 8 3 10 6 3 11 9 4 12 10 4 13 8 4 14 11 5 15 12 5 16 10 5 17 13 6 18 14 6 19 12 6 20 15 7 21 16 7 22 14 7 23 17 8 24 18 8 25 16 8 26 19 9 27 20 9 28 18 9 29 21 10 30 22 10 31 20 10 32 23 11 33 0 11 34 22 11 35 6 12 36 14 12 37 22 12 38 1 0 39 3 0 40 2 0 41 3 13 42 5 13 43 4 13 44 5 2 45 7 2 46 6 2 47 7 3 48 9 3 49 8 3 50 9 14 51 11 14 52 10 14 53 11 5 54 13 5 55 12 5 56 13 6 57 15 6 58 14 6 59 15 15 60 17 15 61 16 15 62 17 8 63 19 8 64 18 8 65 19 9 66 21 9 67 20 9 68 21 16 69 23 16 70 22 16 71 23 11 72 1 11 73 0 11 74 22 12 75 0 12 76 2 12 77 2 12 78 4 12 79 22 12 80 4 12 81 6 12 82 22 12 83 6 12 84 8 12 85 10 12 86 10 12 87 12 12 88 6 12 89 12 12 90 14 12 91 6 12 92 14 12 93 16 12 94 18 12 95 18 12 96 20 12 97 22 12 98 14 12 99 18 12 100 22 12 101</p>
        </triangles>
      </mesh>
    </geometry>
  </library_geometries>
  <library_visual_scenes>
    <visual_scene id="Scene" name="Scene">
      <node id="Cylinder_002" name="Cylinder.002" type="NODE">
        <matrix sid="transform">0.3631531 0 0 0.401873 0 0.3631531 0 0.6008633 0 0 1.239735 0.4105733 0 0 0 1</matrix>
        <instance_geometry url="#Cylinder_016-mesh" name="Cylinder.002"/>
      </node>
    </visual_scene>
  </library_visual_scenes>
  <scene>
    <instance_visual_scene url="#Scene"/>
  </scene>
</COLLADA>