<?xml version="1.0" encoding="utf-8"?>
<COLLADA xmlns="http://www.collada.org/2005/11/COLLADASchema" version="1.4.1" xmlns:xsi="http://www.w3.org/2001/XMLSchema-instance">
  <asset>
    <contributor>
      <author>Blender User</author>
      <authoring_tool>Blender 3.6.2 commit date:2023-08-16, commit time:16:43, hash:e53e55951e7a</authoring_tool>
    </contributor>
    <created>2025-03-26T12:40:06</created>
    <modified>2025-03-26T12:40:06</modified>
    <unit name="meter" meter="1"/>
    <up_axis>Z_UP</up_axis>
  </asset>
  <library_images/>
  <library_geometries>
    <geometry id="Cylinder_019-mesh" name="Cylinder.019">
      <mesh>
        <source id="Cylinder_019-mesh-positions">
          <float_array id="Cylinder_019-mesh-positions-array" count="192">0 1 -1 0 1 1 0.1950903 0.9807853 -1 0.1950903 0.9807853 1 0.3826835 0.9238795 -1 0.3826835 0.9238795 1 0.5555703 0.8314696 -1 0.5555703 0.8314696 1 0.7071068 0.7071068 -1 0.7071068 0.7071068 1 0.8314696 0.5555703 -1 0.8314696 0.5555703 1 0.9238795 0.3826835 -1 0.9238795 0.3826835 1 0.9807853 0.1950903 -1 0.9807853 0.1950903 1 1 0 -1 1 0 1 0.9807853 -0.1950903 -1 0.9807853 -0.1950903 1 0.9238795 -0.3826835 -1 0.9238795 -0.3826835 1 0.8314696 -0.5555703 -1 0.8314696 -0.5555703 1 0.7071068 -0.7071068 -1 0.7071068 -0.7071068 1 0.5555703 -0.8314696 -1 0.5555703 -0.8314696 1 0.3826835 -0.9238795 -1 0.3826835 -0.9238795 1 0.1950903 -0.9807853 -1 0.1950903 -0.9807853 1 0 -1 -1 0 -1 1 -0.1950903 -0.9807853 -1 -0.1950903 -0.9807853 1 -0.3826835 -0.9238795 -1 -0.3826835 -0.9238795 1 -0.5555703 -0.8314696 -1 -0.5555703 -0.8314696 1 -0.7071068 -0.7071068 -1 -0.7071068 -0.7071068 1 -0.8314696 -0.5555703 -1 -0.8314696 -0.5555703 1 -0.9238795 -0.3826835 -1 -0.9238795 -0.3826835 1 -0.9807853 -0.1950903 -1 -0.9807853 -0.1950903 1 -1 0 -1 -1 0 1 -0.9807853 0.1950903 -1 -0.9807853 0.1950903 1 -0.9238795 0.3826835 -1 -0.9238795 0.3826835 1 -0.8314696 0.5555703 -1 -0.8314696 0.5555703 1 -0.7071068 0.7071068 -1 -0.7071068 0.7071068 1 -0.5555703 0.8314696 -1 -0.5555703 0.8314696 1 -0.3826835 0.9238795 -1 -0.3826835 0.9238795 1 -0.1950903 0.9807853 -1 -0.1950903 0.9807853 1</float_array>
          <technique_common>
            <accessor source="#Cylinder_019-mesh-positions-array" count="64" stride="3">
              <param name="X" type="float"/>
              <param name="Y" type="float"/>
              <param name="Z" type="float"/>
            </accessor>
          </technique_common>
        </source>
        <source id="Cylinder_019-mesh-normals">
          <float_array id="Cylinder_019-mesh-normals-array" count="165">0.09801727 0.9951847 0 0.2902846 0.9569405 0 0.4713967 0.8819213 0 0.6343935 0.7730103 0 0.7730105 0.6343934 0 0.8819212 0.471397 0 0.9569404 0.2902846 0 0.9951847 0.09801727 0 0.9951847 -0.09801727 0 0.9569404 -0.2902846 0 0.8819215 -0.4713965 0 0.7730105 -0.6343934 0 0.6343932 -0.7730106 0 0.4713967 -0.8819213 0 0.2902847 -0.9569404 0 0.09801727 -0.9951847 0 -0.09801727 -0.9951847 0 -0.2902846 -0.9569405 0 -0.4713967 -0.8819213 0 -0.6343935 -0.7730103 0 -0.7730105 -0.6343934 0 -0.8819212 -0.471397 0 -0.9569404 -0.2902846 0 -0.9951847 -0.09801727 0 -0.9951847 0.09801727 0 -0.9569404 0.2902846 0 -0.8819215 0.4713965 0 -0.7730105 0.6343934 0 -0.6343932 0.7730106 0 -0.4713967 0.8819213 0 0 0 1 -0.2902847 0.9569404 0 -0.09801727 0.9951847 0 0 0 -1 0.2902847 0.9569404 0 0.6343932 0.7730106 0 0.8819215 0.4713965 0 0.8819212 -0.471397 0 0.6343935 -0.7730103 0 0.2902846 -0.9569405 0 -0.2902847 -0.9569404 0 -0.6343932 -0.7730106 0 -0.8819215 -0.4713965 0 -0.8819212 0.471397 0 -0.6343935 0.7730103 0 2.68447e-6 0 1 -0.2902846 0.9569405 0 7.18515e-7 0 -1 -1.02308e-6 0 -1 -3.88857e-7 0 -1 3.59258e-7 0 -1 -7.18515e-7 0 -1 1.02308e-6 0 -1 3.88857e-7 0 -1 -3.59258e-7 0 -1</float_array>
          <technique_common>
            <accessor source="#Cylinder_019-mesh-normals-array" count="55" stride="3">
              <param name="X" type="float"/>
              <param name="Y" type="float"/>
              <param name="Z" type="float"/>
            </accessor>
          </technique_common>
        </source>
        <source id="Cylinder_019-mesh-map-0">
          <float_array id="Cylinder_019-mesh-map-0-array" count="744">1 1 0.96875 0.5 1 0.5 0.96875 1 0.9375 0.5 0.96875 0.5 0.9375 1 0.90625 0.5 0.9375 0.5 0.90625 1 0.875 0.5 0.90625 0.5 0.875 1 0.84375 0.5 0.875 0.5 0.84375 1 0.8125 0.5 0.84375 0.5 0.8125 1 0.78125 0.5 0.8125 0.5 0.78125 1 0.75 0.5 0.78125 0.5 0.75 1 0.71875 0.5 0.75 0.5 0.71875 1 0.6875 0.5 0.71875 0.5 0.6875 1 0.65625 0.5 0.6875 0.5 0.65625 1 0.625 0.5 0.65625 0.5 0.625 1 0.59375 0.5 0.625 0.5 0.59375 1 0.5625 0.5 0.59375 0.5 0.5625 1 0.53125 0.5 0.5625 0.5 0.53125 1 0.5 0.5 0.53125 0.5 0.5 1 0.46875 0.5 0.5 0.5 0.46875 1 0.4375 0.5 0.46875 0.5 0.4375 1 0.40625 0.5 0.4375 0.5 0.40625 1 0.375 0.5 0.40625 0.5 0.375 1 0.34375 0.5 0.375 0.5 0.34375 1 0.3125 0.5 0.34375 0.5 0.3125 1 0.28125 0.5 0.3125 0.5 0.28125 1 0.25 0.5 0.28125 0.5 0.25 1 0.21875 0.5 0.25 0.5 0.21875 1 0.1875 0.5 0.21875 0.5 0.1875 1 0.15625 0.5 0.1875 0.5 0.15625 1 0.125 0.5 0.15625 0.5 0.125 1 0.09375 0.5 0.125 0.5 0.09375 1 0.0625 0.5 0.09375 0.5 0.1581559 0.02826887 0.4717311 0.1581559 0.341844 0.4717311 0.0625 1 0.03125 0.5 0.0625 0.5 0.03125 1 0 0.5 0.03125 0.5 0.7968217 0.01461154 0.5146116 0.2031783 0.7031784 0.4853885 1 1 0.96875 1 0.96875 0.5 0.96875 1 0.9375 1 0.9375 0.5 0.9375 1 0.90625 1 0.90625 0.5 0.90625 1 0.875 1 0.875 0.5 0.875 1 0.84375 1 0.84375 0.5 0.84375 1 0.8125 1 0.8125 0.5 0.8125 1 0.78125 1 0.78125 0.5 0.78125 1 0.75 1 0.75 0.5 0.75 1 0.71875 1 0.71875 0.5 0.71875 1 0.6875 1 0.6875 0.5 0.6875 1 0.65625 1 0.65625 0.5 0.65625 1 0.625 1 0.625 0.5 0.625 1 0.59375 1 0.59375 0.5 0.59375 1 0.5625 1 0.5625 0.5 0.5625 1 0.53125 1 0.53125 0.5 0.53125 1 0.5 1 0.5 0.5 0.5 1 0.46875 1 0.46875 0.5 0.46875 1 0.4375 1 0.4375 0.5 0.4375 1 0.40625 1 0.40625 0.5 0.40625 1 0.375 1 0.375 0.5 0.375 1 0.34375 1 0.34375 0.5 0.34375 1 0.3125 1 0.3125 0.5 0.3125 1 0.28125 1 0.28125 0.5 0.28125 1 0.25 1 0.25 0.5 0.25 1 0.21875 1 0.21875 0.5 0.21875 1 0.1875 1 0.1875 0.5 0.1875 1 0.15625 1 0.15625 0.5 0.15625 1 0.125 1 0.125 0.5 0.125 1 0.09375 1 0.09375 0.5 0.09375 1 0.0625 1 0.0625 0.5 0.341844 0.4717311 0.2968217 0.4853885 0.25 0.49 0.25 0.49 0.2031783 0.4853885 0.341844 0.4717311 0.2031783 0.4853885 0.1581559 0.4717311 0.341844 0.4717311 0.1581559 0.4717311 0.1166631 0.4495527 0.08029437 0.4197056 0.08029437 0.4197056 0.05044728 0.3833369 0.02826887 0.341844 0.02826887 0.341844 0.01461154 0.2968217 0.00999999 0.25 0.00999999 0.25 0.01461154 0.2031783 0.02826887 0.341844 0.01461154 0.2031783 0.02826887 0.1581559 0.02826887 0.341844 0.02826887 0.1581559 0.05044728 0.1166631 0.08029437 0.08029437 0.08029437 0.08029437 0.1166631 0.05044728 0.1581559 0.02826887 0.1581559 0.02826887 0.2031783 0.01461154 0.341844 0.02826887 0.2031783 0.01461154 0.25 0.00999999 0.341844 0.02826887 0.25 0.00999999 0.2968217 0.01461154 0.341844 0.02826887 0.341844 0.02826887 0.3833369 0.05044728 0.4197056 0.08029437 0.4197056 0.08029437 0.4495527 0.1166631 0.4717311 0.1581559 0.4717311 0.1581559 0.4853885 0.2031783 0.4717311 0.341844 0.4853885 0.2031783 0.49 0.25 0.4717311 0.341844 0.49 0.25 0.4853885 0.2968217 0.4717311 0.341844 0.4717311 0.341844 0.4495527 0.3833369 0.4197056 0.4197056 0.4197056 0.4197056 0.3833369 0.4495527 0.341844 0.4717311 0.1581559 0.4717311 0.08029437 0.4197056 0.341844 0.4717311 0.08029437 0.4197056 0.02826887 0.341844 0.341844 0.4717311 0.02826887 0.1581559 0.08029437 0.08029437 0.02826887 0.341844 0.08029437 0.08029437 0.1581559 0.02826887 0.02826887 0.341844 0.341844 0.02826887 0.4197056 0.08029437 0.1581559 0.02826887 0.4197056 0.08029437 0.4717311 0.1581559 0.1581559 0.02826887 0.4717311 0.341844 0.4197056 0.4197056 0.4717311 0.1581559 0.4197056 0.4197056 0.341844 0.4717311 0.4717311 0.1581559 0.341844 0.4717311 0.02826887 0.341844 0.1581559 0.02826887 0.0625 1 0.03125 1 0.03125 0.5 0.03125 1 0 1 0 0.5 0.7031784 0.4853885 0.75 0.49 0.7968217 0.4853885 0.7968217 0.4853885 0.841844 0.4717311 0.8833369 0.4495527 0.8833369 0.4495527 0.9197056 0.4197056 0.9495527 0.3833369 0.9495527 0.3833369 0.9717311 0.341844 0.9853885 0.2968217 0.9853885 0.2968217 0.99 0.25 0.9853885 0.2031783 0.9853885 0.2031783 0.9717311 0.1581559 0.9495527 0.1166631 0.9495527 0.1166631 0.9197056 0.08029437 0.8833369 0.05044728 0.8833369 0.05044728 0.841844 0.02826887 0.7968217 0.01461154 0.7968217 0.01461154 0.75 0.00999999 0.7031784 0.01461154 0.7031784 0.01461154 0.658156 0.02826887 0.6166632 0.05044728 0.6166632 0.05044728 0.5802944 0.08029437 0.5504473 0.1166631 0.5504473 0.1166631 0.5282689 0.1581559 0.5146116 0.2031783 0.5146116 0.2031783 0.51 0.25 0.5146116 0.2968217 0.5146116 0.2968217 0.5282689 0.341844 0.5504473 0.3833369 0.5504473 0.3833369 0.5802944 0.4197056 0.6166632 0.4495527 0.6166632 0.4495527 0.658156 0.4717311 0.7031784 0.4853885 0.7031784 0.4853885 0.7968217 0.4853885 0.9853885 0.2968217 0.7968217 0.4853885 0.8833369 0.4495527 0.9853885 0.2968217 0.8833369 0.4495527 0.9495527 0.3833369 0.9853885 0.2968217 0.9853885 0.2968217 0.9853885 0.2031783 0.7968217 0.01461154 0.9853885 0.2031783 0.9495527 0.1166631 0.7968217 0.01461154 0.9495527 0.1166631 0.8833369 0.05044728 0.7968217 0.01461154 0.7968217 0.01461154 0.7031784 0.01461154 0.5146116 0.2031783 0.7031784 0.01461154 0.6166632 0.05044728 0.5146116 0.2031783 0.6166632 0.05044728 0.5504473 0.1166631 0.5146116 0.2031783 0.5146116 0.2031783 0.5146116 0.2968217 0.7031784 0.4853885 0.5146116 0.2968217 0.5504473 0.3833369 0.7031784 0.4853885 0.5504473 0.3833369 0.6166632 0.4495527 0.7031784 0.4853885 0.7031784 0.4853885 0.9853885 0.2968217 0.7968217 0.01461154</float_array>
          <technique_common>
            <accessor source="#Cylinder_019-mesh-map-0-array" count="372" stride="2">
              <param name="S" type="float"/>
              <param name="T" type="float"/>
            </accessor>
          </technique_common>
        </source>
        <vertices id="Cylinder_019-mesh-vertices">
          <input semantic="POSITION" source="#Cylinder_019-mesh-positions"/>
        </vertices>
        <triangles count="124">
          <input semantic="VERTEX" source="#Cylinder_019-mesh-vertices" offset="0"/>
          <input semantic="NORMAL" source="#Cylinder_019-mesh-normals" offset="1"/>
          <input semantic="TEXCOORD" source="#Cylinder_019-mesh-map-0" offset="2" set="0"/>
          <p>1 0 0 2 0 1 0 0 2 3 1 3 4 1 4 2 1 5 5 2 6 6 2 7 4 2 8 7 3 9 8 3 10 6 3 11 9 4 12 10 4 13 8 4 14 11 5 15 12 5 16 10 5 17 13 6 18 14 6 19 12 6 20 15 7 21 16 7 22 14 7 23 17 8 24 18 8 25 16 8 26 19 9 27 20 9 28 18 9 29 21 10 30 22 10 31 20 10 32 23 11 33 24 11 34 22 11 35 25 12 36 26 12 37 24 12 38 27 13 39 28 13 40 26 13 41 29 14 42 30 14 43 28 14 44 31 15 45 32 15 46 30 15 47 33 16 48 34 16 49 32 16 50 35 17 51 36 17 52 34 17 53 37 18 54 38 18 55 36 18 56 39 19 57 40 19 58 38 19 59 41 20 60 42 20 61 40 20 62 43 21 63 44 21 64 42 21 65 45 22 66 46 22 67 44 22 68 47 23 69 48 23 70 46 23 71 49 24 72 50 24 73 48 24 74 51 25 75 52 25 76 50 25 77 53 26 78 54 26 79 52 26 80 55 27 81 56 27 82 54 27 83 57 28 84 58 28 85 56 28 86 59 29 87 60 29 88 58 29 89 37 30 90 21 30 91 5 30 92 61 31 93 62 31 94 60 31 95 63 32 96 0 32 97 62 32 98 30 33 99 46 33 100 62 33 101 1 0 102 3 0 103 2 0 104 3 34 105 5 34 106 4 34 107 5 2 108 7 2 109 6 2 110 7 35 111 9 35 112 8 35 113 9 4 114 11 4 115 10 4 116 11 36 117 13 36 118 12 36 119 13 6 120 15 6 121 14 6 122 15 7 123 17 7 124 16 7 125 17 8 126 19 8 127 18 8 128 19 9 129 21 9 130 20 9 131 21 37 132 23 37 133 22 37 134 23 11 135 25 11 136 24 11 137 25 38 138 27 38 139 26 38 140 27 13 141 29 13 142 28 13 143 29 39 144 31 39 145 30 39 146 31 15 147 33 15 148 32 15 149 33 16 150 35 16 151 34 16 152 35 40 153 37 40 154 36 40 155 37 18 156 39 18 157 38 18 158 39 41 159 41 41 160 40 41 161 41 20 162 43 20 163 42 20 164 43 42 165 45 42 166 44 42 167 45 22 168 47 22 169 46 22 170 47 23 171 49 23 172 48 23 173 49 24 174 51 24 175 50 24 176 51 25 177 53 25 178 52 25 179 53 43 180 55 43 181 54 43 182 55 27 183 57 27 184 56 27 185 57 44 186 59 44 187 58 44 188 59 29 189 61 29 190 60 29 191 5 30 192 3 30 193 1 30 194 1 30 195 63 30 196 5 30 197 63 30 198 61 30 199 5 30 200 61 30 201 59 30 202 57 30 203 57 30 204 55 30 205 53 30 206 53 30 207 51 30 208 49 30 209 49 30 210 47 30 211 53 30 212 47 30 213 45 30 214 53 30 215 45 30 216 43 30 217 41 30 218 41 30 219 39 30 220 37 30 221 37 30 222 35 30 223 29 30 224 35 30 225 33 30 226 29 30 227 33 30 228 31 30 229 29 30 230 29 30 231 27 30 232 25 30 233 25 30 234 23 30 235 21 30 236 21 30 237 19 30 238 13 30 239 19 45 240 17 45 241 13 45 242 17 30 243 15 30 244 13 30 245 13 30 246 11 30 247 9 30 248 9 30 249 7 30 250 5 30 251 61 30 252 57 30 253 5 30 254 57 30 255 53 30 256 5 30 257 45 30 258 41 30 259 53 30 260 41 30 261 37 30 262 53 30 263 29 30 264 25 30 265 37 30 266 25 30 267 21 30 268 37 30 269 13 30 270 9 30 271 21 30 272 9 30 273 5 30 274 21 30 275 5 30 276 53 30 277 37 30 278 61 46 279 63 46 280 62 46 281 63 32 282 1 32 283 0 32 284 62 33 285 0 33 286 2 33 287 2 33 288 4 33 289 6 33 290 6 33 291 8 33 292 10 33 293 10 33 294 12 33 295 14 33 296 14 33 297 16 33 298 18 33 299 18 33 300 20 33 301 22 33 302 22 33 303 24 33 304 26 33 305 26 33 306 28 33 307 30 33 308 30 33 309 32 33 310 34 33 311 34 33 312 36 33 313 38 33 314 38 33 315 40 33 316 42 33 317 42 33 318 44 33 319 46 33 320 46 33 321 48 33 322 50 33 323 50 33 324 52 33 325 54 33 326 54 33 327 56 33 328 58 33 329 58 33 330 60 33 331 62 33 332 62 33 333 2 33 334 14 33 335 2 47 336 6 47 337 14 47 338 6 48 339 10 48 340 14 48 341 14 49 342 18 49 343 30 49 344 18 50 345 22 50 346 30 50 347 22 33 348 26 33 349 30 33 350 30 33 351 34 33 352 46 33 353 34 51 354 38 51 355 46 51 356 38 52 357 42 52 358 46 52 359 46 53 360 50 53 361 62 53 362 50 54 363 54 54 364 62 54 365 54 33 366 58 33 367 62 33 368 62 33 369 14 33 370 30 33 371</p>
        </triangles>
      </mesh>
    </geometry>
    <geometry id="Cylinder-mesh" name="Cylinder">
      <mesh>
        <source id="Cylinder-mesh-positions">
          <float_array id="Cylinder-mesh-positions-array" count="324">0 0.5 -0.5 0 0.5 0.2972415 0.25 0.4330127 -0.5 0.25 0.4330127 0.2972415 0.4330127 0.25 -0.5 0.4330127 0.25 0.2972415 0.5 0 -0.5 0.5 0 0.2972415 0.4330127 -0.25 -0.5 0.4330127 -0.25 0.2972415 0.25 -0.4330127 -0.5 0.25 -0.4330127 0.2972415 0 -0.5 -0.5 0 -0.5 0.2972415 -0.25 -0.4330127 -0.5 -0.25 -0.4330127 0.2972415 -0.4330127 -0.25 -0.5 -0.4330127 -0.25 0.2972415 -0.5 0 -0.5 -0.5 0 0.2972415 -0.4330127 0.25 -0.5 -0.4330127 0.25 0.2972415 -0.25 0.4330127 -0.5 -0.25 0.4330127 0.2972415 1.19209e-7 -1.975542 0.583396 1.19209e-7 -0.9065036 0.583396 0.2500001 -1.975542 0.6333522 0.2500001 -0.9065036 0.6333521 0.4330129 -1.975542 0.7698349 0.4330129 -0.9065036 0.7698349 0.5000002 -1.975542 0.9562739 0.5000002 -0.9065036 0.9562739 0.4330129 -1.975542 1.142713 0.4330129 -0.9065036 1.142713 0.2500001 -1.975542 1.279196 0.2500001 -0.9065036 1.279196 1.19209e-7 -1.975542 1.329152 1.19209e-7 -0.9065036 1.329152 -0.2499999 -1.975542 1.279196 -0.2499999 -0.9065036 1.279196 -0.4330126 -1.975542 1.142713 -0.4330126 -0.9065036 1.142713 -0.5 -1.975542 0.9562739 -0.5 -0.9065036 0.9562739 -0.4330126 -1.975542 0.7698349 -0.4330126 -0.9065036 0.7698349 -0.2499999 -1.975542 0.6333522 -0.2499999 -0.9065036 0.6333521 0 0.4263401 0.6699962 0 0.2431014 0.9806478 0 -0.02295243 1.191187 0 -0.3165411 1.298413 1.24168e-7 -0.6104764 1.334996 -0.2500001 0.3650912 0.650927 -0.2499999 0.1946166 0.9431222 -0.25 -0.05432516 1.141844 -0.2499999 -0.332952 1.245256 -0.2499999 -0.6168102 1.282582 -0.4330128 0.1977561 0.5988287 -0.4330126 0.06215369 0.8406004 -0.4330127 -0.1400369 1.007038 -0.4330127 -0.3777872 1.100026 -0.4330126 -0.6341147 1.139387 -0.5000001 -0.03082793 0.527661 -0.5 -0.1187939 0.7005528 -0.5000001 -0.2571213 0.8228883 -0.5000001 -0.4390332 0.9016392 -0.5000001 -0.6577528 0.9437772 -0.4330127 -0.2594119 0.4564934 -0.4330126 -0.2997416 0.5605053 -0.4330127 -0.3742056 0.6387389 -0.4330127 -0.5002791 0.703252 -0.4330127 -0.6813909 0.7481677 -0.25 -0.426747 0.4043952 -0.2499999 -0.4322044 0.4579833 -0.25 -0.4599173 0.5039321 -0.25 -0.5451142 0.5580224 -0.2499999 -0.6986952 0.6049718 0 -0.4879959 0.3853258 0 -0.4806892 0.4204577 0 -0.4912899 0.4545895 0 -0.5615249 0.5048647 0 -0.7050291 0.5525584 0.25 -0.426747 0.4043952 0.25 -0.4322044 0.4579833 0.2500001 -0.4599172 0.5039321 0.2500001 -0.5451142 0.5580225 0.2500001 -0.6986953 0.6049717 0.4330128 -0.2594119 0.4564934 0.4330127 -0.2997415 0.5605051 0.4330129 -0.3742055 0.6387388 0.4330129 -0.500279 0.7032519 0.4330129 -0.6813908 0.7481677 0.5000001 -0.03082787 0.527661 0.5 -0.1187938 0.7005526 0.5000002 -0.2571211 0.8228881 0.5000002 -0.439033 0.9016391 0.5000002 -0.6577527 0.9437772 0.4330127 0.1977561 0.5988286 0.4330127 0.06215375 0.8406003 0.4330129 -0.1400368 1.007038 0.4330129 -0.3777871 1.100026 0.4330129 -0.6341145 1.139387 0.2500002 -0.6168103 1.282582 0.2500002 -0.332952 1.245256 0.2500001 -0.0543251 1.141844 0.25 0.1946166 0.9431222 0.25 0.3650912 0.650927</float_array>
          <technique_common>
            <accessor source="#Cylinder-mesh-positions-array" count="108" stride="3">
              <param name="X" type="float"/>
              <param name="Y" type="float"/>
              <param name="Z" type="float"/>
            </accessor>
          </technique_common>
        </source>
        <source id="Cylinder-mesh-normals">
          <float_array id="Cylinder-mesh-normals-array" count="558">0.2588191 0.9659259 0 0.7071067 0.7071069 0 0.9659259 0.258819 0 0.9659259 -0.258819 0 0.7071068 -0.7071068 0 0.2588191 -0.9659259 0 -0.2588191 -0.9659259 0 -0.7071067 -0.7071069 0 -0.9659259 -0.258819 0 -0.9659259 0.258819 0 -0.7071068 0.7071068 0 -0.2588191 0.9659259 0 0 0 -1 0.1959511 0 -0.9806138 0.5978201 0 -0.8016304 0.9410976 0 -0.3381351 0.9410974 0 0.3381354 0.5978201 0 0.8016304 0.1959515 0 0.9806137 -0.1959515 0 0.9806137 -0.5978201 0 0.8016304 -0.9410976 0 0.3381351 -0.9410974 0 -0.3381354 -0.5978201 0 -0.8016304 -0.1959511 0 -0.9806138 0 -1 0 0.6156587 -0.009212136 0.787959 0.9462018 0.003951013 0.3235533 0.9409617 -0.01698476 -0.3380868 0.5960483 -0.07692867 -0.799255 0.1942172 -0.1327374 -0.9719365 -0.2065226 -0.1480358 -0.9671784 -0.6189479 -0.1062798 -0.7782083 -0.9467493 -0.03084713 -0.3204909 -0.9409618 0.01698404 0.3380867 -0.5977914 0.009788632 0.8015921 -0.1959376 -0.01146334 0.9805494 0.204687 -0.01932042 0.9786368 -0.2066113 0.1275614 0.9700721 -0.2168961 0.3396712 0.9151938 -0.2264967 0.6076561 0.7612183 -0.2362705 0.8392888 0.4896638 -0.2470788 0.9516071 0.1827459 -0.6187966 0.1192272 0.7764507 -0.6378791 0.2805217 0.7172293 -0.6547939 0.4803477 0.5835332 -0.6711376 0.6465773 0.3626461 -0.6885617 0.714536 0.1237787 -0.9465366 0.06102836 0.3167715 -0.9511556 0.1226444 0.2833045 -0.9549319 0.1966411 0.2223452 -0.9583492 0.254546 0.1295115 -0.9619987 0.270643 0.03620922 -0.9515511 -0.07401591 -0.2984499 -0.950318 -0.1417986 -0.2771078 -0.9593203 -0.2044962 -0.1946431 -0.9628501 -0.2517731 -0.09762144 -0.9658129 -0.2587889 -0.01529502 -0.6388976 -0.2248972 -0.7356842 -0.6575992 -0.4037959 -0.6360128 -0.6726794 -0.6336128 -0.3821485 -0.6843182 -0.7254315 -0.07387709 -0.7065032 -0.7065032 0.04131209 -0.2171716 -0.3078609 -0.9263144 -0.227415 -0.5668097 -0.7918392 -0.2239001 -0.9307544 -0.289076 -0.2188912 -0.955307 0.1986838 -0.2566053 -0.9576642 0.1305106 0.2035481 -0.2862216 -0.9362934 0.2099094 -0.5240461 -0.8254172 0.2049483 -0.8381335 -0.5054984 0.2037811 -0.9739789 -0.09918844 0.2334881 -0.9707017 0.05676007 0.6161046 -0.1895972 -0.7645053 0.6331675 -0.3525902 -0.6890422 0.6463528 -0.5527009 -0.5260701 0.6595069 -0.7008581 -0.271751 0.6808314 -0.7311644 -0.04321295 0.9465369 -0.06102818 -0.3167703 0.954932 -0.1179223 -0.2723958 0.954932 -0.1966397 -0.2223462 0.9583493 -0.2545464 -0.1295105 0.9619986 -0.2706431 -0.03620964 0.9507105 0.04706233 0.3064876 0.9543956 0.1087448 0.2780352 0.9577679 0.1827459 0.2220014 0.9614388 0.2398667 0.1345343 0.9649565 0.2585595 0.04478996 0.6334847 0.1008781 0.7671511 0.649205 0.2646591 0.7130837 0.6645585 0.4661779 0.5839866 0.6822687 0.6314843 0.3684251 0.7006763 0.7006763 0.1345573 0.214033 0.1206426 0.9693478 0.2227073 0.3344464 0.9157221 0.2315829 0.6036764 0.7628528 0.2423291 0.8356521 0.4929119 0.2542292 0.9487963 0.1874912 0.7071068 0.7071068 0 0.7071067 -0.7071069 0 -0.7071068 -0.7071068 0 -0.7071067 0.7071069 0 0.1959508 0 -0.9806138 0.5978201 0 -0.8016303 0.9410976 0 -0.3381354 0.9410976 0 0.338135 0.5978201 0 0.8016303 0.1959516 0 0.9806137 -0.1959516 0 0.9806137 -0.5978201 0 0.8016303 -0.9410976 0 0.3381354 -0.9410976 0 -0.338135 -0.5978201 0 -0.8016303 -0.1959508 0 -0.9806138 0.5977912 0.009788513 0.8015921 0.9409617 0.01698476 0.3380868 0.9467495 -0.03084743 -0.3204901 0.6189478 -0.1062799 -0.7782083 0.2065221 -0.1480358 -0.9671785 -0.1942169 -0.1327371 -0.9719366 -0.5960482 -0.07692873 -0.799255 -0.9409618 -0.01698523 -0.3380867 -0.9462015 0.003951013 0.323554 -0.6156579 -0.009211778 0.7879598 -0.2046871 -0.01932042 0.9786368 0.1959369 -0.01146376 0.9805495 -0.2140329 0.1206427 0.9693478 -0.2227061 0.3344465 0.9157224 -0.2315834 0.6036763 0.7628527 -0.2423291 0.8356523 0.4929118 -0.2542292 0.9487963 0.1874912 -0.6334853 0.100878 0.7671507 -0.6492051 0.2646586 0.7130839 -0.6645586 0.4661777 0.5839865 -0.6822687 0.6314842 0.3684251 -0.7006763 0.7006762 0.1345574 -0.9507105 0.04706257 0.3064876 -0.9543956 0.1087446 0.2780354 -0.9577678 0.1827461 0.2220021 -0.9614388 0.2398663 0.1345345 -0.9649565 0.2585594 0.04478991 -0.9465366 -0.06102842 -0.3167714 -0.9549319 -0.1179219 -0.2723958 -0.9549319 -0.19664 -0.2223459 -0.9583493 -0.254546 -0.1295105 -0.9619987 -0.270643 -0.0362097 -0.6161041 -0.1895976 -0.7645055 -0.633167 -0.35259 -0.6890427 -0.6463526 -0.5527007 -0.5260706 -0.6595067 -0.7008585 -0.2717502 -0.6808311 -0.7311646 -0.04321289 -0.2035487 -0.2862227 -0.936293 -0.209909 -0.5240458 -0.8254177 -0.2049485 -0.8381339 -0.5054976 -0.203781 -0.9739789 -0.09918886 -0.2334881 -0.9707016 0.0567606 0.2171722 -0.3078612 -0.9263141 0.2274149 -0.5668089 -0.7918397 0.2239006 -0.9307543 -0.289076 0.2188911 -0.9553064 0.198687 0.2566054 -0.9576643 0.1305099 0.6388972 -0.2248963 -0.7356847 0.6575983 -0.403796 -0.6360137 0.6726784 -0.633614 -0.3821481 0.6843177 -0.725432 -0.07387602 0.7065032 -0.7065032 0.04131209 0.9515509 -0.07401561 -0.2984505 0.950318 -0.1417989 -0.2771078 0.9593206 -0.204495 -0.1946433 0.9628503 -0.2517727 -0.09762173 0.9658129 -0.2587889 -0.01529514 0.9465369 0.0610283 0.3167706 0.9511559 0.1226444 0.2833036 0.9549319 0.1966417 0.2223448 0.9583493 0.2545456 0.1295115 0.9619987 0.2706429 0.03620916 0.6187971 0.1192272 0.7764503 0.6378796 0.2805222 0.7172287 0.6547936 0.4803481 0.5835333 0.6711372 0.6465778 0.3626458 0.688562 0.7145357 0.1237788 0.2066112 0.1275618 0.9700721 0.2168946 0.3396716 0.915194 0.2264981 0.6076558 0.7612181 0.2362709 0.8392887 0.4896637 0.2470789 0.9516071 0.1827459</float_array>
          <technique_common>
            <accessor source="#Cylinder-mesh-normals-array" count="186" stride="3">
              <param name="X" type="float"/>
              <param name="Y" type="float"/>
              <param name="Z" type="float"/>
            </accessor>
          </technique_common>
        </source>
        <source id="Cylinder-mesh-map-0">
          <float_array id="Cylinder-mesh-map-0-array" count="1272">1 1 0.9166667 0.5 1 0.5 0.9166667 1 0.8333334 0.5 0.9166667 0.5 0.8333334 1 0.7500001 0.5 0.8333334 0.5 0.7500001 1 0.6666668 0.5 0.7500001 0.5 0.6666668 1 0.5833334 0.5 0.6666668 0.5 0.5833334 1 0.5000001 0.5 0.5833334 0.5 0.5000001 1 0.4166668 0.5 0.5000001 0.5 0.4166668 1 0.3333334 0.5 0.4166668 0.5 0.3333334 1 0.2500001 0.5 0.3333334 0.5 0.2500001 1 0.1666667 0.5 0.2500001 0.5 0.1666667 1 0.08333337 0.5 0.1666667 0.5 0.08333337 1 0 0.5 0.08333337 0.5 0.99 0.25 0.63 0.04215389 0.63 0.4578461 1 1 0.9166667 0.5 1 0.5 0.9166667 1 0.8333334 0.5 0.9166667 0.5 0.8333334 1 0.7500001 0.5 0.8333334 0.5 0.7500001 1 0.6666668 0.5 0.7500001 0.5 0.6666668 1 0.5833334 0.5 0.6666668 0.5 0.5833334 1 0.5000001 0.5 0.5833334 0.5 0.5000001 1 0.4166668 0.5 0.5000001 0.5 0.4166668 1 0.3333334 0.5 0.4166668 0.5 0.3333334 1 0.2500001 0.5 0.3333334 0.5 0.2500001 1 0.1666667 0.5 0.2500001 0.5 0.1666667 1 0.08333337 0.5 0.1666667 0.5 0.08333337 1 0 0.5 0.08333337 0.5 0.63 0.4578461 0.5421539 0.1299999 0.5421539 0.37 0.5833334 1 0.6944445 1 0.638889 1 0.6666668 1 0.7500001 1 0.6944445 1 0.8333334 1 0.7500001 1 0.7500001 1 0.9166667 1 0.8055556 1 0.8333334 1 1 1 0.8611112 1 0.9166667 1 0 1 0.138889 1 0.08333337 1 0.08333337 1 0.1944445 1 0.138889 1 0.1666667 1 0.2500001 1 0.1944445 1 0.3333334 1 0.2500001 1 0.2500001 1 0.4166668 1 0.3055557 1 0.3333334 1 0.5000001 1 0.3611112 1 0.4166668 1 0.5000001 1 0.638889 1 0.5833334 1 0.4166668 1 0.3055557 1 0.3611112 1 0.3333334 1 0.2500001 1 0.3055557 1 0.2500001 1 0.1944445 1 0.2500001 1 0.1666668 1 0.138889 1 0.1944445 1 0.08333337 1 0.08333337 1 0.138889 1 0.3611112 1 0.2777779 1 0.3055557 1 0.3055557 1 0.2500001 1 0.2777779 1 0.2500001 1 0.2222223 1 0.2500001 1 0.1944445 1 0.1944445 1 0.2222223 1 0.138889 1 0.1666667 1 0.1944445 1 0.3055557 1 0.2500001 1 0.2500001 1 0.2777779 1 0.2500001 1 0.2500001 1 0.2500001 1 0.2500001 1 0.2500001 1 0.2222223 1 0.2500001 1 0.2500001 1 0.1944445 1 0.2500001 1 0.2500001 1 0.1944445 1 0.2500001 1 0.2222223 1 0.2500001 1 0.2500001 1 0.2222223 1 0.2500001 1 0.2500001 1 0.2777779 1 0.2777779 1 0.2500001 1 0.3055557 1 0.3055557 1 0.2500001 1 0.3333334 1 0.138889 1 0.2222223 1 0.1944445 1 0.1944445 1 0.2500001 1 0.2500001 1 0.2500001 1 0.2777779 1 0.3055557 1 0.3055557 1 0.3055557 1 0.3611112 1 0.3611112 1 0.3333334 1 0.4166668 1 0.08333337 1 0.1944445 1 0.1666667 1 0.1666667 1 0.2500001 1 0.2500001 1 0.2500001 1 0.3055557 1 0.3333334 1 0.3333334 1 0.3611112 1 0.4166668 1 0.4166668 1 0.4166668 1 0.5000001 1 0.9166667 1 0.8055556 1 0.8611112 1 0.8333334 1 0.7500001 1 0.8055556 1 0.7500001 1 0.6944445 1 0.7500001 1 0.6666668 1 0.638889 1 0.6944445 1 0.5833334 1 0.5833334 1 0.638889 1 0.8611112 1 0.7777778 1 0.8055556 1 0.8055556 1 0.75 1 0.7777778 1 0.7500001 1 0.7222223 1 0.75 1 0.6944445 1 0.6944445 1 0.7222223 1 0.638889 1 0.6666668 1 0.6944445 1 0.8055556 1 0.7500001 1 0.7500001 1 0.7500001 1 0.75 1 0.7500001 1 0.75 1 0.7500001 1 0.7500001 1 0.7222223 1 0.7500001 1 0.7500001 1 0.6944445 1 0.7500001 1 0.7500001 1 0.6944445 1 0.7500001 1 0.7222223 1 0.7222223 1 0.7500001 1 0.7500001 1 0.7500001 1 0.7500001 1 0.7777778 1 0.7777778 1 0.7500001 1 0.8055556 1 0.8055556 1 0.7500001 1 0.8333334 1 0.638889 1 0.7222223 1 0.6944445 1 0.6944445 1 0.7500001 1 0.7500001 1 0.7500001 1 0.7777778 1 0.8055556 1 0.8055556 1 0.8055556 1 0.8611112 1 0.8611112 1 0.8333334 1 0.9166667 1 0.5833334 1 0.6944445 1 0.6666667 1 0.6666667 1 0.7500001 1 0.75 1 0.75 1 0.8055556 1 0.8333334 1 0.8333334 1 0.8611112 1 0.9166667 1 0.9166667 1 0.9166667 1 1 1 1 1 0.9166667 1 0.9166667 0.5 0.9166667 1 0.8333334 1 0.8333334 0.5 0.8333334 1 0.7500001 1 0.7500001 0.5 0.7500001 1 0.6666668 1 0.6666668 0.5 0.6666668 1 0.5833334 1 0.5833334 0.5 0.5833334 1 0.5000001 1 0.5000001 0.5 0.5000001 1 0.4166668 1 0.4166668 0.5 0.4166668 1 0.3333334 1 0.3333334 0.5 0.3333334 1 0.2500001 1 0.2500001 0.5 0.2500001 1 0.1666667 1 0.1666667 0.5 0.1666667 1 0.08333337 1 0.08333337 0.5 0.08333337 1 0 1 0 0.5 0.63 0.4578461 0.75 0.49 0.87 0.4578461 0.87 0.4578461 0.9578461 0.37 0.63 0.4578461 0.9578461 0.37 0.99 0.25 0.63 0.4578461 0.99 0.25 0.9578461 0.1299999 0.87 0.04215389 0.87 0.04215389 0.75 0.00999999 0.99 0.25 0.75 0.00999999 0.63 0.04215389 0.99 0.25 0.63 0.04215389 0.5421539 0.1299999 0.51 0.25 0.51 0.25 0.5421539 0.37 0.63 0.4578461 0.63 0.04215389 0.51 0.25 0.63 0.4578461 1 1 0.9166667 1 0.9166667 0.5 0.9166667 1 0.8333334 1 0.8333334 0.5 0.8333334 1 0.7500001 1 0.7500001 0.5 0.7500001 1 0.6666668 1 0.6666668 0.5 0.6666668 1 0.5833334 1 0.5833334 0.5 0.5833334 1 0.5000001 1 0.5000001 0.5 0.5000001 1 0.4166668 1 0.4166668 0.5 0.4166668 1 0.3333334 1 0.3333334 0.5 0.3333334 1 0.2500001 1 0.2500001 0.5 0.2500001 1 0.1666667 1 0.1666667 0.5 0.1666667 1 0.08333337 1 0.08333337 0.5 0.08333337 1 0 1 0 0.5 0.63 0.4578461 0.75 0.49 0.63 0.04215389 0.75 0.49 0.87 0.4578461 0.75 0.00999999 0.63 0.04215389 0.75 0.49 0.75 0.00999999 0.87 0.4578461 0.9578461 0.37 0.9578461 0.1299999 0.9578461 0.37 0.99 0.25 0.9578461 0.1299999 0.9578461 0.1299999 0.87 0.04215389 0.87 0.4578461 0.87 0.04215389 0.75 0.00999999 0.87 0.4578461 0.63 0.04215389 0.5421539 0.1299999 0.63 0.4578461 0.5421539 0.1299999 0.51 0.25 0.5421539 0.37 0.5833334 1 0.6666668 1 0.6944445 1 0.6666668 1 0.7500001 1 0.7500001 1 0.8333334 1 0.8055556 1 0.7500001 1 0.9166667 1 0.8611112 1 0.8055556 1 1 1 0.9166667 1 0.8611112 1 0 1 0.08333337 1 0.138889 1 0.08333337 1 0.1666667 1 0.1944445 1 0.1666667 1 0.2500001 1 0.2500001 1 0.3333334 1 0.3055557 1 0.2500001 1 0.4166668 1 0.3611112 1 0.3055557 1 0.5000001 1 0.4166668 1 0.3611112 1 0.5000001 1 0.5833334 1 0.638889 1 0.4166668 1 0.3333334 1 0.3055557 1 0.3333334 1 0.2500001 1 0.2500001 1 0.2500001 1 0.1666668 1 0.1944445 1 0.1666668 1 0.08333337 1 0.138889 1 0.08333337 1 0 1 0.08333337 1 0.3611112 1 0.3055557 1 0.2777779 1 0.3055557 1 0.2500001 1 0.2500001 1 0.2500001 1 0.1944445 1 0.2222223 1 0.1944445 1 0.138889 1 0.1944445 1 0.138889 1 0.08333337 1 0.1666667 1 0.3055557 1 0.2777779 1 0.2500001 1 0.2777779 1 0.2500001 1 0.2500001 1 0.2500001 1 0.2222223 1 0.2500001 1 0.2222223 1 0.1944445 1 0.2500001 1 0.1944445 1 0.1666667 1 0.2500001 1 0.1944445 1 0.2500001 1 0.2500001 1 0.2500001 1 0.2500001 1 0.2500001 1 0.2500001 1 0.2500001 1 0.2500001 1 0.2777779 1 0.2500001 1 0.2500001 1 0.3055557 1 0.2500001 1 0.2500001 1 0.138889 1 0.1944445 1 0.2222223 1 0.1944445 1 0.2222223 1 0.2500001 1 0.2500001 1 0.2500001 1 0.2777779 1 0.3055557 1 0.2777779 1 0.3055557 1 0.3611112 1 0.3055557 1 0.3333334 1 0.08333337 1 0.138889 1 0.1944445 1 0.1666667 1 0.1944445 1 0.2500001 1 0.2500001 1 0.2500001 1 0.3055557 1 0.3333334 1 0.3055557 1 0.3611112 1 0.4166668 1 0.3611112 1 0.4166668 1 0.9166667 1 0.8333334 1 0.8055556 1 0.8333334 1 0.7500001 1 0.7500001 1 0.7500001 1 0.6666668 1 0.6944445 1 0.6666668 1 0.5833334 1 0.638889 1 0.5833334 1 0.5000001 1 0.5833334 1 0.8611112 1 0.8055556 1 0.7777778 1 0.8055556 1 0.7500001 1 0.75 1 0.7500001 1 0.6944445 1 0.7222223 1 0.6944445 1 0.638889 1 0.6944445 1 0.638889 1 0.5833334 1 0.6666668 1 0.8055556 1 0.7777778 1 0.7500001 1 0.7500001 1 0.7777778 1 0.75 1 0.75 1 0.7222223 1 0.7500001 1 0.7222223 1 0.6944445 1 0.7500001 1 0.6944445 1 0.6666668 1 0.7500001 1 0.6944445 1 0.7500001 1 0.7500001 1 0.7222223 1 0.7500001 1 0.7500001 1 0.7500001 1 0.7500001 1 0.7500001 1 0.7777778 1 0.7500001 1 0.7500001 1 0.8055556 1 0.7500001 1 0.7500001 1 0.638889 1 0.6944445 1 0.7222223 1 0.6944445 1 0.7222223 1 0.7500001 1 0.7500001 1 0.7500001 1 0.7777778 1 0.8055556 1 0.7777778 1 0.8055556 1 0.8611112 1 0.8055556 1 0.8333334 1 0.5833334 1 0.638889 1 0.6944445 1 0.6666667 1 0.6944445 1 0.7500001 1 0.75 1 0.7500001 1 0.8055556 1 0.8333334 1 0.8055556 1 0.8611112 1 0.9166667 1 0.8611112 1 0.9166667 1</float_array>
          <technique_common>
            <accessor source="#Cylinder-mesh-map-0-array" count="636" stride="2">
              <param name="S" type="float"/>
              <param name="T" type="float"/>
            </accessor>
          </technique_common>
        </source>
        <vertices id="Cylinder-mesh-vertices">
          <input semantic="POSITION" source="#Cylinder-mesh-positions"/>
        </vertices>
        <triangles count="212">
          <input semantic="VERTEX" source="#Cylinder-mesh-vertices" offset="0"/>
          <input semantic="NORMAL" source="#Cylinder-mesh-normals" offset="1"/>
          <input semantic="TEXCOORD" source="#Cylinder-mesh-map-0" offset="2" set="0"/>
          <p>1 0 0 2 0 1 0 0 2 3 1 3 4 1 4 2 1 5 5 2 6 6 2 7 4 2 8 7 3 9 8 3 10 6 3 11 9 4 12 10 4 13 8 4 14 11 5 15 12 5 16 10 5 17 13 6 18 14 6 19 12 6 20 15 7 21 16 7 22 14 7 23 17 8 24 18 8 25 16 8 26 19 9 27 20 9 28 18 9 29 21 10 30 22 10 31 20 10 32 23 11 33 0 11 34 22 11 35 6 12 36 14 12 37 22 12 38 25 13 39 26 13 40 24 13 41 27 14 42 28 14 43 26 14 44 29 15 45 30 15 46 28 15 47 31 16 48 32 16 49 30 16 50 33 17 51 34 17 52 32 17 53 35 18 54 36 18 55 34 18 56 37 19 57 38 19 58 36 19 59 39 20 60 40 20 61 38 20 62 41 21 63 42 21 64 40 21 65 43 22 66 44 22 67 42 22 68 45 23 69 46 23 70 44 23 71 47 24 72 24 24 73 46 24 74 46 25 75 40 25 76 44 25 77 35 26 78 102 26 79 103 26 80 33 27 81 97 27 82 102 27 83 29 28 84 97 28 85 31 28 86 27 29 87 92 29 88 29 29 89 25 30 90 87 30 91 27 30 92 25 31 93 77 31 94 82 31 95 47 32 96 72 32 97 77 32 98 45 33 99 67 33 100 72 33 101 41 34 102 67 34 103 43 34 104 39 35 105 62 35 106 41 35 107 37 36 108 57 36 109 39 36 110 37 37 111 103 37 112 52 37 113 52 38 114 56 38 115 57 38 116 51 39 117 55 39 118 56 39 119 50 40 120 54 40 121 55 40 122 49 41 123 53 41 124 54 41 125 48 42 126 23 42 127 53 42 128 57 43 129 61 43 130 62 43 131 56 44 132 60 44 133 61 44 134 55 45 135 59 45 136 60 45 137 54 46 138 58 46 139 59 46 140 53 47 141 21 47 142 58 47 143 62 48 144 66 48 145 67 48 146 61 49 147 65 49 148 66 49 149 60 50 150 64 50 151 65 50 152 59 51 153 63 51 154 64 51 155 58 52 156 19 52 157 63 52 158 72 53 159 66 53 160 71 53 161 66 54 162 70 54 163 71 54 164 70 55 165 64 55 166 69 55 167 69 56 168 63 56 169 68 56 170 68 57 171 19 57 172 17 57 173 77 58 174 71 58 175 76 58 176 76 59 177 70 59 178 75 59 179 75 60 180 69 60 181 74 60 182 74 61 183 68 61 184 73 61 185 73 62 186 17 62 187 15 62 188 82 63 189 76 63 190 81 63 191 81 64 192 75 64 193 80 64 194 80 65 195 74 65 196 79 65 197 79 66 198 73 66 199 78 66 200 78 67 201 15 67 202 13 67 203 82 68 204 86 68 205 87 68 206 81 69 207 85 69 208 86 69 209 80 70 210 84 70 211 85 70 212 79 71 213 83 71 214 84 71 215 78 72 216 11 72 217 83 72 218 87 73 219 91 73 220 92 73 221 86 74 222 90 74 223 91 74 224 85 75 225 89 75 226 90 75 227 84 76 228 88 76 229 89 76 230 83 77 231 9 77 232 88 77 233 92 78 234 96 78 235 97 78 236 96 79 237 90 79 238 95 79 239 90 80 240 94 80 241 95 80 242 89 81 243 93 81 244 94 81 245 88 82 246 7 82 247 93 82 248 102 83 249 96 83 250 101 83 251 101 84 252 95 84 253 100 84 254 100 85 255 94 85 256 99 85 257 99 86 258 93 86 259 98 86 260 98 87 261 7 87 262 5 87 263 103 88 264 101 88 265 104 88 266 104 89 267 100 89 268 105 89 269 105 90 270 99 90 271 106 90 272 106 91 273 98 91 274 107 91 275 107 92 276 5 92 277 3 92 278 52 93 279 104 93 280 51 93 281 51 94 282 105 94 283 50 94 284 50 95 285 106 95 286 49 95 287 49 96 288 107 96 289 48 96 290 48 97 291 3 97 292 1 97 293 1 0 294 3 0 295 2 0 296 3 98 297 5 98 298 4 98 299 5 2 300 7 2 301 6 2 302 7 3 303 9 3 304 8 3 305 9 99 306 11 99 307 10 99 308 11 5 309 13 5 310 12 5 311 13 6 312 15 6 313 14 6 314 15 100 315 17 100 316 16 100 317 17 8 318 19 8 319 18 8 320 19 9 321 21 9 322 20 9 323 21 101 324 23 101 325 22 101 326 23 11 327 1 11 328 0 11 329 22 12 330 0 12 331 2 12 332 2 12 333 4 12 334 22 12 335 4 12 336 6 12 337 22 12 338 6 12 339 8 12 340 10 12 341 10 12 342 12 12 343 6 12 344 12 12 345 14 12 346 6 12 347 14 12 348 16 12 349 18 12 350 18 12 351 20 12 352 22 12 353 14 12 354 18 12 355 22 12 356 25 102 357 27 102 358 26 102 359 27 103 360 29 103 361 28 103 362 29 104 363 31 104 364 30 104 365 31 105 366 33 105 367 32 105 368 33 106 369 35 106 370 34 106 371 35 107 372 37 107 373 36 107 374 37 108 375 39 108 376 38 108 377 39 109 378 41 109 379 40 109 380 41 110 381 43 110 382 42 110 383 43 111 384 45 111 385 44 111 386 45 112 387 47 112 388 46 112 389 47 113 390 25 113 391 24 113 392 46 25 393 24 25 394 38 25 395 24 25 396 26 25 397 36 25 398 38 25 399 24 25 400 36 25 401 26 25 402 28 25 403 32 25 404 28 25 405 30 25 406 32 25 407 32 25 408 34 25 409 26 25 410 34 25 411 36 25 412 26 25 413 38 25 414 40 25 415 46 25 416 40 25 417 42 25 418 44 25 419 35 114 420 33 114 421 102 114 422 33 115 423 31 115 424 97 115 425 29 116 426 92 116 427 97 116 428 27 117 429 87 117 430 92 117 431 25 118 432 82 118 433 87 118 434 25 119 435 47 119 436 77 119 437 47 120 438 45 120 439 72 120 440 45 121 441 43 121 442 67 121 443 41 122 444 62 122 445 67 122 446 39 123 447 57 123 448 62 123 449 37 124 450 52 124 451 57 124 452 37 125 453 35 125 454 103 125 455 52 126 456 51 126 457 56 126 458 51 127 459 50 127 460 55 127 461 50 128 462 49 128 463 54 128 464 49 129 465 48 129 466 53 129 467 48 130 468 1 130 469 23 130 470 57 131 471 56 131 472 61 131 473 56 132 474 55 132 475 60 132 476 55 133 477 54 133 478 59 133 479 54 134 480 53 134 481 58 134 482 53 135 483 23 135 484 21 135 485 62 136 486 61 136 487 66 136 488 61 137 489 60 137 490 65 137 491 60 138 492 59 138 493 64 138 494 59 139 495 58 139 496 63 139 497 58 140 498 21 140 499 19 140 500 72 141 501 67 141 502 66 141 503 66 142 504 65 142 505 70 142 506 70 143 507 65 143 508 64 143 509 69 144 510 64 144 511 63 144 512 68 145 513 63 145 514 19 145 515 77 146 516 72 146 517 71 146 518 76 147 519 71 147 520 70 147 521 75 148 522 70 148 523 69 148 524 74 149 525 69 149 526 68 149 527 73 150 528 68 150 529 17 150 530 82 151 531 77 151 532 76 151 533 81 152 534 76 152 535 75 152 536 80 153 537 75 153 538 74 153 539 79 154 540 74 154 541 73 154 542 78 155 543 73 155 544 15 155 545 82 156 546 81 156 547 86 156 548 81 157 549 80 157 550 85 157 551 80 158 552 79 158 553 84 158 554 79 159 555 78 159 556 83 159 557 78 160 558 13 160 559 11 160 560 87 161 561 86 161 562 91 161 563 86 162 564 85 162 565 90 162 566 85 163 567 84 163 568 89 163 569 84 164 570 83 164 571 88 164 572 83 165 573 11 165 574 9 165 575 92 166 576 91 166 577 96 166 578 96 167 579 91 167 580 90 167 581 90 168 582 89 168 583 94 168 584 89 169 585 88 169 586 93 169 587 88 170 588 9 170 589 7 170 590 102 171 591 97 171 592 96 171 593 101 172 594 96 172 595 95 172 596 100 173 597 95 173 598 94 173 599 99 174 600 94 174 601 93 174 602 98 175 603 93 175 604 7 175 605 103 176 606 102 176 607 101 176 608 104 177 609 101 177 610 100 177 611 105 178 612 100 178 613 99 178 614 106 179 615 99 179 616 98 179 617 107 180 618 98 180 619 5 180 620 52 181 621 103 181 622 104 181 623 51 182 624 104 182 625 105 182 626 50 183 627 105 183 628 106 183 629 49 184 630 106 184 631 107 184 632 48 185 633 107 185 634 3 185 635</p>
        </triangles>
      </mesh>
    </geometry>
    <geometry id="Cylinder_010-mesh" name="Cylinder.010">
      <mesh>
        <source id="Cylinder_010-mesh-positions">
          <float_array id="Cylinder_010-mesh-positions-array" count="192">0 1 -1 0 1 1 0.1950903 0.9807853 -1 0.1950903 0.9807853 1 0.3826835 0.9238795 -1 0.3826835 0.9238795 1 0.5555703 0.8314696 -1 0.5555703 0.8314696 1 0.7071068 0.7071068 -1 0.7071068 0.7071068 1 0.8314696 0.5555703 -1 0.8314696 0.5555703 1 0.9238795 0.3826835 -1 0.9238795 0.3826835 1 0.9807853 0.1950903 -1 0.9807853 0.1950903 1 1 0 -1 1 0 1 0.9807853 -0.1950903 -1 0.9807853 -0.1950903 1 0.9238795 -0.3826835 -1 0.9238795 -0.3826835 1 0.8314696 -0.5555703 -1 0.8314696 -0.5555703 1 0.7071068 -0.7071068 -1 0.7071068 -0.7071068 1 0.5555703 -0.8314696 -1 0.5555703 -0.8314696 1 0.3826835 -0.9238795 -1 0.3826835 -0.9238795 1 0.1950903 -0.9807853 -1 0.1950903 -0.9807853 1 0 -1 -1 0 -1 1 -0.1950903 -0.9807853 -1 -0.1950903 -0.9807853 1 -0.3826835 -0.9238795 -1 -0.3826835 -0.9238795 1 -0.5555703 -0.8314696 -1 -0.5555703 -0.8314696 1 -0.7071068 -0.7071068 -1 -0.7071068 -0.7071068 1 -0.8314696 -0.5555703 -1 -0.8314696 -0.5555703 1 -0.9238795 -0.3826835 -1 -0.9238795 -0.3826835 1 -0.9807853 -0.1950903 -1 -0.9807853 -0.1950903 1 -1 0 -1 -1 0 1 -0.9807853 0.1950903 -1 -0.9807853 0.1950903 1 -0.9238795 0.3826835 -1 -0.9238795 0.3826835 1 -0.8314696 0.5555703 -1 -0.8314696 0.5555703 1 -0.7071068 0.7071068 -1 -0.7071068 0.7071068 1 -0.5555703 0.8314696 -1 -0.5555703 0.8314696 1 -0.3826835 0.9238795 -1 -0.3826835 0.9238795 1 -0.1950903 0.9807853 -1 -0.1950903 0.9807853 1</float_array>
          <technique_common>
            <accessor source="#Cylinder_010-mesh-positions-array" count="64" stride="3">
              <param name="X" type="float"/>
              <param name="Y" type="float"/>
              <param name="Z" type="float"/>
            </accessor>
          </technique_common>
        </source>
        <source id="Cylinder_010-mesh-normals">
          <float_array id="Cylinder_010-mesh-normals-array" count="165">0.09801727 0.9951847 0 0.2902846 0.9569405 0 0.4713967 0.8819213 0 0.6343935 0.7730103 0 0.7730105 0.6343934 0 0.8819212 0.471397 0 0.9569404 0.2902846 0 0.9951847 0.09801727 0 0.9951847 -0.09801727 0 0.9569404 -0.2902846 0 0.8819215 -0.4713965 0 0.7730105 -0.6343934 0 0.6343932 -0.7730106 0 0.4713967 -0.8819213 0 0.2902847 -0.9569404 0 0.09801727 -0.9951847 0 -0.09801727 -0.9951847 0 -0.2902846 -0.9569405 0 -0.4713967 -0.8819213 0 -0.6343935 -0.7730103 0 -0.7730105 -0.6343934 0 -0.8819212 -0.471397 0 -0.9569404 -0.2902846 0 -0.9951847 -0.09801727 0 -0.9951847 0.09801727 0 -0.9569404 0.2902846 0 -0.8819215 0.4713965 0 -0.7730105 0.6343934 0 -0.6343932 0.7730106 0 -0.4713967 0.8819213 0 0 0 1 -0.2902847 0.9569404 0 -0.09801727 0.9951847 0 0 0 -1 0.2902847 0.9569404 0 0.6343932 0.7730106 0 0.8819215 0.4713965 0 0.8819212 -0.471397 0 0.6343935 -0.7730103 0 0.2902846 -0.9569405 0 -0.2902847 -0.9569404 0 -0.6343932 -0.7730106 0 -0.8819215 -0.4713965 0 -0.8819212 0.471397 0 -0.6343935 0.7730103 0 2.68447e-6 0 1 -0.2902846 0.9569405 0 7.18515e-7 0 -1 -1.02308e-6 0 -1 -3.88857e-7 0 -1 3.59258e-7 0 -1 -7.18515e-7 0 -1 1.02308e-6 0 -1 3.88857e-7 0 -1 -3.59258e-7 0 -1</float_array>
          <technique_common>
            <accessor source="#Cylinder_010-mesh-normals-array" count="55" stride="3">
              <param name="X" type="float"/>
              <param name="Y" type="float"/>
              <param name="Z" type="float"/>
            </accessor>
          </technique_common>
        </source>
        <source id="Cylinder_010-mesh-map-0">
          <float_array id="Cylinder_010-mesh-map-0-array" count="744">1 1 0.96875 0.5 1 0.5 0.96875 1 0.9375 0.5 0.96875 0.5 0.9375 1 0.90625 0.5 0.9375 0.5 0.90625 1 0.875 0.5 0.90625 0.5 0.875 1 0.84375 0.5 0.875 0.5 0.84375 1 0.8125 0.5 0.84375 0.5 0.8125 1 0.78125 0.5 0.8125 0.5 0.78125 1 0.75 0.5 0.78125 0.5 0.75 1 0.71875 0.5 0.75 0.5 0.71875 1 0.6875 0.5 0.71875 0.5 0.6875 1 0.65625 0.5 0.6875 0.5 0.65625 1 0.625 0.5 0.65625 0.5 0.625 1 0.59375 0.5 0.625 0.5 0.59375 1 0.5625 0.5 0.59375 0.5 0.5625 1 0.53125 0.5 0.5625 0.5 0.53125 1 0.5 0.5 0.53125 0.5 0.5 1 0.46875 0.5 0.5 0.5 0.46875 1 0.4375 0.5 0.46875 0.5 0.4375 1 0.40625 0.5 0.4375 0.5 0.40625 1 0.375 0.5 0.40625 0.5 0.375 1 0.34375 0.5 0.375 0.5 0.34375 1 0.3125 0.5 0.34375 0.5 0.3125 1 0.28125 0.5 0.3125 0.5 0.28125 1 0.25 0.5 0.28125 0.5 0.25 1 0.21875 0.5 0.25 0.5 0.21875 1 0.1875 0.5 0.21875 0.5 0.1875 1 0.15625 0.5 0.1875 0.5 0.15625 1 0.125 0.5 0.15625 0.5 0.125 1 0.09375 0.5 0.125 0.5 0.09375 1 0.0625 0.5 0.09375 0.5 0.1581559 0.02826887 0.4717311 0.1581559 0.341844 0.4717311 0.0625 1 0.03125 0.5 0.0625 0.5 0.03125 1 0 0.5 0.03125 0.5 0.7968217 0.01461154 0.5146116 0.2031783 0.7031784 0.4853885 1 1 0.96875 1 0.96875 0.5 0.96875 1 0.9375 1 0.9375 0.5 0.9375 1 0.90625 1 0.90625 0.5 0.90625 1 0.875 1 0.875 0.5 0.875 1 0.84375 1 0.84375 0.5 0.84375 1 0.8125 1 0.8125 0.5 0.8125 1 0.78125 1 0.78125 0.5 0.78125 1 0.75 1 0.75 0.5 0.75 1 0.71875 1 0.71875 0.5 0.71875 1 0.6875 1 0.6875 0.5 0.6875 1 0.65625 1 0.65625 0.5 0.65625 1 0.625 1 0.625 0.5 0.625 1 0.59375 1 0.59375 0.5 0.59375 1 0.5625 1 0.5625 0.5 0.5625 1 0.53125 1 0.53125 0.5 0.53125 1 0.5 1 0.5 0.5 0.5 1 0.46875 1 0.46875 0.5 0.46875 1 0.4375 1 0.4375 0.5 0.4375 1 0.40625 1 0.40625 0.5 0.40625 1 0.375 1 0.375 0.5 0.375 1 0.34375 1 0.34375 0.5 0.34375 1 0.3125 1 0.3125 0.5 0.3125 1 0.28125 1 0.28125 0.5 0.28125 1 0.25 1 0.25 0.5 0.25 1 0.21875 1 0.21875 0.5 0.21875 1 0.1875 1 0.1875 0.5 0.1875 1 0.15625 1 0.15625 0.5 0.15625 1 0.125 1 0.125 0.5 0.125 1 0.09375 1 0.09375 0.5 0.09375 1 0.0625 1 0.0625 0.5 0.341844 0.4717311 0.2968217 0.4853885 0.25 0.49 0.25 0.49 0.2031783 0.4853885 0.341844 0.4717311 0.2031783 0.4853885 0.1581559 0.4717311 0.341844 0.4717311 0.1581559 0.4717311 0.1166631 0.4495527 0.08029437 0.4197056 0.08029437 0.4197056 0.05044728 0.3833369 0.02826887 0.341844 0.02826887 0.341844 0.01461154 0.2968217 0.00999999 0.25 0.00999999 0.25 0.01461154 0.2031783 0.02826887 0.341844 0.01461154 0.2031783 0.02826887 0.1581559 0.02826887 0.341844 0.02826887 0.1581559 0.05044728 0.1166631 0.08029437 0.08029437 0.08029437 0.08029437 0.1166631 0.05044728 0.1581559 0.02826887 0.1581559 0.02826887 0.2031783 0.01461154 0.341844 0.02826887 0.2031783 0.01461154 0.25 0.00999999 0.341844 0.02826887 0.25 0.00999999 0.2968217 0.01461154 0.341844 0.02826887 0.341844 0.02826887 0.3833369 0.05044728 0.4197056 0.08029437 0.4197056 0.08029437 0.4495527 0.1166631 0.4717311 0.1581559 0.4717311 0.1581559 0.4853885 0.2031783 0.4717311 0.341844 0.4853885 0.2031783 0.49 0.25 0.4717311 0.341844 0.49 0.25 0.4853885 0.2968217 0.4717311 0.341844 0.4717311 0.341844 0.4495527 0.3833369 0.4197056 0.4197056 0.4197056 0.4197056 0.3833369 0.4495527 0.341844 0.4717311 0.1581559 0.4717311 0.08029437 0.4197056 0.341844 0.4717311 0.08029437 0.4197056 0.02826887 0.341844 0.341844 0.4717311 0.02826887 0.1581559 0.08029437 0.08029437 0.02826887 0.341844 0.08029437 0.08029437 0.1581559 0.02826887 0.02826887 0.341844 0.341844 0.02826887 0.4197056 0.08029437 0.1581559 0.02826887 0.4197056 0.08029437 0.4717311 0.1581559 0.1581559 0.02826887 0.4717311 0.341844 0.4197056 0.4197056 0.4717311 0.1581559 0.4197056 0.4197056 0.341844 0.4717311 0.4717311 0.1581559 0.341844 0.4717311 0.02826887 0.341844 0.1581559 0.02826887 0.0625 1 0.03125 1 0.03125 0.5 0.03125 1 0 1 0 0.5 0.7031784 0.4853885 0.75 0.49 0.7968217 0.4853885 0.7968217 0.4853885 0.841844 0.4717311 0.8833369 0.4495527 0.8833369 0.4495527 0.9197056 0.4197056 0.9495527 0.3833369 0.9495527 0.3833369 0.9717311 0.341844 0.9853885 0.2968217 0.9853885 0.2968217 0.99 0.25 0.9853885 0.2031783 0.9853885 0.2031783 0.9717311 0.1581559 0.9495527 0.1166631 0.9495527 0.1166631 0.9197056 0.08029437 0.8833369 0.05044728 0.8833369 0.05044728 0.841844 0.02826887 0.7968217 0.01461154 0.7968217 0.01461154 0.75 0.00999999 0.7031784 0.01461154 0.7031784 0.01461154 0.658156 0.02826887 0.6166632 0.05044728 0.6166632 0.05044728 0.5802944 0.08029437 0.5504473 0.1166631 0.5504473 0.1166631 0.5282689 0.1581559 0.5146116 0.2031783 0.5146116 0.2031783 0.51 0.25 0.5146116 0.2968217 0.5146116 0.2968217 0.5282689 0.341844 0.5504473 0.3833369 0.5504473 0.3833369 0.5802944 0.4197056 0.6166632 0.4495527 0.6166632 0.4495527 0.658156 0.4717311 0.7031784 0.4853885 0.7031784 0.4853885 0.7968217 0.4853885 0.9853885 0.2968217 0.7968217 0.4853885 0.8833369 0.4495527 0.9853885 0.2968217 0.8833369 0.4495527 0.9495527 0.3833369 0.9853885 0.2968217 0.9853885 0.2968217 0.9853885 0.2031783 0.7968217 0.01461154 0.9853885 0.2031783 0.9495527 0.1166631 0.7968217 0.01461154 0.9495527 0.1166631 0.8833369 0.05044728 0.7968217 0.01461154 0.7968217 0.01461154 0.7031784 0.01461154 0.5146116 0.2031783 0.7031784 0.01461154 0.6166632 0.05044728 0.5146116 0.2031783 0.6166632 0.05044728 0.5504473 0.1166631 0.5146116 0.2031783 0.5146116 0.2031783 0.5146116 0.2968217 0.7031784 0.4853885 0.5146116 0.2968217 0.5504473 0.3833369 0.7031784 0.4853885 0.5504473 0.3833369 0.6166632 0.4495527 0.7031784 0.4853885 0.7031784 0.4853885 0.9853885 0.2968217 0.7968217 0.01461154</float_array>
          <technique_common>
            <accessor source="#Cylinder_010-mesh-map-0-array" count="372" stride="2">
              <param name="S" type="float"/>
              <param name="T" type="float"/>
            </accessor>
          </technique_common>
        </source>
        <vertices id="Cylinder_010-mesh-vertices">
          <input semantic="POSITION" source="#Cylinder_010-mesh-positions"/>
        </vertices>
        <triangles count="124">
          <input semantic="VERTEX" source="#Cylinder_010-mesh-vertices" offset="0"/>
          <input semantic="NORMAL" source="#Cylinder_010-mesh-normals" offset="1"/>
          <input semantic="TEXCOORD" source="#Cylinder_010-mesh-map-0" offset="2" set="0"/>
          <p>1 0 0 2 0 1 0 0 2 3 1 3 4 1 4 2 1 5 5 2 6 6 2 7 4 2 8 7 3 9 8 3 10 6 3 11 9 4 12 10 4 13 8 4 14 11 5 15 12 5 16 10 5 17 13 6 18 14 6 19 12 6 20 15 7 21 16 7 22 14 7 23 17 8 24 18 8 25 16 8 26 19 9 27 20 9 28 18 9 29 21 10 30 22 10 31 20 10 32 23 11 33 24 11 34 22 11 35 25 12 36 26 12 37 24 12 38 27 13 39 28 13 40 26 13 41 29 14 42 30 14 43 28 14 44 31 15 45 32 15 46 30 15 47 33 16 48 34 16 49 32 16 50 35 17 51 36 17 52 34 17 53 37 18 54 38 18 55 36 18 56 39 19 57 40 19 58 38 19 59 41 20 60 42 20 61 40 20 62 43 21 63 44 21 64 42 21 65 45 22 66 46 22 67 44 22 68 47 23 69 48 23 70 46 23 71 49 24 72 50 24 73 48 24 74 51 25 75 52 25 76 50 25 77 53 26 78 54 26 79 52 26 80 55 27 81 56 27 82 54 27 83 57 28 84 58 28 85 56 28 86 59 29 87 60 29 88 58 29 89 37 30 90 21 30 91 5 30 92 61 31 93 62 31 94 60 31 95 63 32 96 0 32 97 62 32 98 30 33 99 46 33 100 62 33 101 1 0 102 3 0 103 2 0 104 3 34 105 5 34 106 4 34 107 5 2 108 7 2 109 6 2 110 7 35 111 9 35 112 8 35 113 9 4 114 11 4 115 10 4 116 11 36 117 13 36 118 12 36 119 13 6 120 15 6 121 14 6 122 15 7 123 17 7 124 16 7 125 17 8 126 19 8 127 18 8 128 19 9 129 21 9 130 20 9 131 21 37 132 23 37 133 22 37 134 23 11 135 25 11 136 24 11 137 25 38 138 27 38 139 26 38 140 27 13 141 29 13 142 28 13 143 29 39 144 31 39 145 30 39 146 31 15 147 33 15 148 32 15 149 33 16 150 35 16 151 34 16 152 35 40 153 37 40 154 36 40 155 37 18 156 39 18 157 38 18 158 39 41 159 41 41 160 40 41 161 41 20 162 43 20 163 42 20 164 43 42 165 45 42 166 44 42 167 45 22 168 47 22 169 46 22 170 47 23 171 49 23 172 48 23 173 49 24 174 51 24 175 50 24 176 51 25 177 53 25 178 52 25 179 53 43 180 55 43 181 54 43 182 55 27 183 57 27 184 56 27 185 57 44 186 59 44 187 58 44 188 59 29 189 61 29 190 60 29 191 5 30 192 3 30 193 1 30 194 1 30 195 63 30 196 5 30 197 63 30 198 61 30 199 5 30 200 61 30 201 59 30 202 57 30 203 57 30 204 55 30 205 53 30 206 53 30 207 51 30 208 49 30 209 49 30 210 47 30 211 53 30 212 47 30 213 45 30 214 53 30 215 45 30 216 43 30 217 41 30 218 41 30 219 39 30 220 37 30 221 37 30 222 35 30 223 29 30 224 35 30 225 33 30 226 29 30 227 33 30 228 31 30 229 29 30 230 29 30 231 27 30 232 25 30 233 25 30 234 23 30 235 21 30 236 21 30 237 19 30 238 13 30 239 19 45 240 17 45 241 13 45 242 17 30 243 15 30 244 13 30 245 13 30 246 11 30 247 9 30 248 9 30 249 7 30 250 5 30 251 61 30 252 57 30 253 5 30 254 57 30 255 53 30 256 5 30 257 45 30 258 41 30 259 53 30 260 41 30 261 37 30 262 53 30 263 29 30 264 25 30 265 37 30 266 25 30 267 21 30 268 37 30 269 13 30 270 9 30 271 21 30 272 9 30 273 5 30 274 21 30 275 5 30 276 53 30 277 37 30 278 61 46 279 63 46 280 62 46 281 63 32 282 1 32 283 0 32 284 62 33 285 0 33 286 2 33 287 2 33 288 4 33 289 6 33 290 6 33 291 8 33 292 10 33 293 10 33 294 12 33 295 14 33 296 14 33 297 16 33 298 18 33 299 18 33 300 20 33 301 22 33 302 22 33 303 24 33 304 26 33 305 26 33 306 28 33 307 30 33 308 30 33 309 32 33 310 34 33 311 34 33 312 36 33 313 38 33 314 38 33 315 40 33 316 42 33 317 42 33 318 44 33 319 46 33 320 46 33 321 48 33 322 50 33 323 50 33 324 52 33 325 54 33 326 54 33 327 56 33 328 58 33 329 58 33 330 60 33 331 62 33 332 62 33 333 2 33 334 14 33 335 2 47 336 6 47 337 14 47 338 6 48 339 10 48 340 14 48 341 14 49 342 18 49 343 30 49 344 18 50 345 22 50 346 30 50 347 22 33 348 26 33 349 30 33 350 30 33 351 34 33 352 46 33 353 34 51 354 38 51 355 46 51 356 38 52 357 42 52 358 46 52 359 46 53 360 50 53 361 62 53 362 50 54 363 54 54 364 62 54 365 54 33 366 58 33 367 62 33 368 62 33 369 14 33 370 30 33 371</p>
        </triangles>
      </mesh>
    </geometry>
  </library_geometries>
  <library_visual_scenes>
    <visual_scene id="Scene" name="Scene">
      <node id="Cylinder_014" name="Cylinder.014" type="NODE">
        <matrix sid="transform">0.2611747 0 0 0.3978214 0 -1.14163e-8 0.06346763 -0.0802004 0 -0.2611747 -2.77426e-9 0.5192966 0 0 0 1</matrix>
        <instance_geometry url="#Cylinder_019-mesh" name="Cylinder.014"/>
      </node>
      <node id="Cylinder_008" name="Cylinder.008" type="NODE">
        <matrix sid="transform">0.3631531 0 0 0.401873 0 0.3631531 0 0.6008633 0 0 0.4869598 0.05445343 0 0 0 1</matrix>
        <instance_geometry url="#Cylinder-mesh" name="Cylinder.008"/>
      </node>
      <node id="Cylinder_005" name="Cylinder.005" type="NODE">
        <matrix sid="transform">0.2611747 0 0 0.3978214 0 0.2611747 0 0.6016869 0 0 0.06346763 -0.152666 0 0 0 1</matrix>
        <instance_geometry url="#Cylinder_010-mesh" name="Cylinder.005"/>
      </node>
    </visual_scene>
  </library_visual_scenes>
  <scene>
    <instance_visual_scene url="#Scene"/>
  </scene>
</COLLADA>