# Blender 4.2.1 LTS
# www.blender.org
mtllib human.mtl
o H_V1
v 0.323763 3.500658 0.024780
v 0.291346 3.499575 -0.108846
v -0.000000 3.492382 0.220014
v -0.000000 3.490176 -0.207813
v -0.000000 2.776540 -0.207813
v -0.000000 2.778746 0.220014
v 0.291346 2.785939 -0.108846
v 0.323763 2.787022 0.024780
v 0.281621 2.794094 0.179546
v 0.203131 2.781907 -0.170215
v 0.209867 2.786706 0.199570
v 0.209867 3.500342 0.199570
v 0.035615 2.728522 0.087997
v 0.033055 2.726698 -0.052568
v 0.062891 2.731330 0.080385
v -0.000000 2.129535 -0.217726
v 0.312755 2.288244 -0.108276
v 0.306064 2.516441 -0.101999
v 0.335150 2.268354 0.012924
v 0.311170 2.578950 0.015954
v 0.315994 2.289460 0.139609
v 0.297097 2.502895 0.136119
v -0.000000 2.142210 0.271075
v 0.175788 2.133269 -0.166957
v 0.316669 2.124105 0.011579
v 0.276585 2.134777 0.148745
v 0.180585 2.286822 -0.163492
v -0.000000 2.282995 -0.211676
v 0.562056 2.312959 -0.091097
v 0.548460 2.487772 -0.073030
v 0.572681 2.276577 0.013174
v 0.540654 2.517640 0.014718
v 0.567389 2.312914 0.122128
v 0.551315 2.476890 0.118814
v 0.864483 2.336916 -0.094691
v 0.848049 2.460720 -0.084167
v 0.875453 2.290921 0.012987
v 0.842585 2.506480 0.014309
v 0.870013 2.336665 0.125468
v 0.853568 2.460517 0.121958
v -0.000000 2.554920 -0.087249
v -0.000000 2.559670 0.151795
v 0.116830 2.566382 -0.050285
v 0.140991 2.587853 0.020050
v 0.127867 2.573118 0.087637
v -0.000000 2.616718 -0.079144
v -0.000000 2.609383 0.125707
v 0.079589 2.624619 -0.039694
v 0.095703 2.619291 0.023086
v 0.078196 2.616373 0.101736
v -0.000000 2.592666 -0.066861
v -0.000000 2.593504 0.095768
v 0.066588 2.596239 -0.029241
v 0.078910 2.596650 0.021555
v 0.062891 2.599339 0.080385
v 1.346617 2.339715 -0.089385
v 1.338527 2.457376 -0.079429
v 1.352333 2.286007 0.013087
v 1.333294 2.510785 0.014207
v 1.351895 2.339412 0.120057
v 1.343803 2.457074 0.116679
v 1.385621 2.339708 -0.089388
v 1.377531 2.457366 -0.079432
v 1.389589 2.286000 0.013085
v 1.370552 2.510774 0.014203
v 1.390898 2.339404 0.120055
v 1.382808 2.457063 0.116676
v 1.432124 2.339701 -0.089391
v 1.424036 2.457357 -0.079436
v 1.434008 2.285994 0.013082
v 1.414973 2.510763 0.014198
v 1.437402 2.339396 0.120052
v 1.429313 2.457053 0.116672
v 1.509469 2.296619 -0.136663
v 1.513196 2.500638 -0.149404
v 1.518414 2.223043 0.010995
v 1.511758 2.582384 0.013013
v 1.525123 2.296084 0.169034
v 1.522350 2.500107 0.190670
v 1.633674 2.296608 -0.136667
v 1.637404 2.500623 -0.149410
v 1.642620 2.223033 0.010992
v 1.635968 2.582365 0.013006
v 1.649330 2.296071 0.169030
v 1.646559 2.500088 0.190664
v 1.720118 2.345459 -0.078981
v 1.716198 2.452351 -0.071053
v 1.724637 2.301250 0.014329
v 1.713147 2.506507 0.013282
v 1.724699 2.346957 0.110839
v 1.720792 2.453726 0.106683
v 0.889477 2.459936 0.121068
v 0.886420 2.500588 0.014269
v 0.884000 2.460160 -0.083361
v 0.899020 2.337399 -0.093789
v 0.904506 2.337138 0.124555
v 0.915720 2.296694 0.013033
v 0.927292 2.459441 0.120313
v 0.941123 2.337535 0.123780
v 0.950475 2.294852 0.013045
v 0.922947 2.502353 0.014261
v 0.921850 2.459682 -0.082681
v 0.935673 2.337805 -0.093026
v 0.270087 2.515685 -0.104140
v 0.285526 2.272748 -0.121927
v 0.328291 2.261587 0.012962
v 0.286194 2.577443 0.018475
v 0.266872 2.504612 0.133461
v 0.320612 0.087845 -0.060965
v 0.232919 1.213970 -0.090302
v 0.383392 0.092704 -0.007050
v 0.321587 1.249102 0.017000
v 0.367885 0.092043 0.067178
v 0.287472 1.230684 0.149677
v 0.277122 0.088683 0.105981
v 0.166015 1.192977 0.180774
v 0.222990 0.089695 0.082473
v 0.104378 1.170909 0.091845
v 0.201355 0.088243 0.009791
v 0.068883 1.157227 0.000006
v 0.257445 0.088145 -0.064467
v 0.129253 1.155506 -0.112848
v 0.228480 1.268902 -0.125703
v 0.313157 1.307572 0.017236
v 0.272384 1.305606 0.154752
v 0.154115 1.236005 0.192395
v 0.095062 1.200698 0.104961
v 0.055700 1.189212 -0.001429
v 0.111580 1.191621 -0.124366
v 0.218638 1.370046 -0.151662
v 0.305087 1.372100 0.019783
v 0.254830 1.387327 0.168892
v 0.103737 1.277441 0.222826
v 0.051634 1.238117 0.108098
v 0.028476 1.222424 -0.001428
v 0.083404 1.239500 -0.140237
v 0.000000 1.224967 -0.002362
v 0.000000 1.235674 0.108098
v 0.000000 1.299193 0.249739
v 0.000000 1.282825 -0.155700
v 0.000000 1.398376 0.266687
v 0.352295 0.725525 0.009927
v 0.319154 0.714769 0.134529
v 0.216311 0.692748 0.165908
v 0.148405 0.679860 0.085547
v 0.271339 0.703212 -0.076882
v 0.114457 0.671870 0.000002
v 0.162932 0.670865 -0.097816
v 0.357536 0.664513 0.008720
v 0.324561 0.655064 0.114142
v 0.224895 0.635720 0.145569
v 0.155918 0.624399 0.084473
v 0.122235 0.617380 0.000002
v 0.168679 0.616497 -0.116164
v 0.277896 0.644386 -0.095504
v 0.386762 0.063052 -0.003686
v 0.354915 0.695019 0.014323
v 0.321858 0.684916 0.126732
v 0.220603 0.664234 0.158135
v 0.152161 0.652130 0.090010
v 0.118346 0.644625 0.005002
v 0.323575 0.060348 -0.061128
v 0.374405 0.063243 0.066723
v 0.278297 0.061501 0.105762
v 0.225888 0.061056 0.083398
v 0.201355 0.059443 0.009791
v 0.259443 0.060225 -0.064577
v 0.384707 0.027605 -0.004915
v 0.327976 0.028147 -0.059292
v 0.388233 0.036021 0.189288
v 0.286623 0.037870 0.225372
v 0.226822 0.033291 0.199753
v 0.201461 0.029443 0.011287
v 0.257202 0.027186 -0.062670
v 0.376652 -0.017967 0.001427
v 0.326798 -0.017967 -0.045818
v 0.374912 -0.017967 0.187960
v 0.286247 -0.017966 0.223969
v 0.236965 -0.017966 0.196899
v 0.209391 -0.017967 0.015674
v 0.256643 -0.017967 -0.043687
v 0.900975 2.501476 0.014267
v 0.899217 2.459925 -0.083019
v 0.913639 2.337604 -0.093406
v 0.904676 2.459693 0.120691
v 0.919107 2.337340 0.124168
v 0.929390 2.295775 0.013040
v 0.000000 1.379626 -0.190270
v 0.259138 1.959970 0.137471
v 0.205038 1.961001 -0.171568
v 0.309020 1.966484 0.009707
v 0.000000 1.962172 0.293886
v -0.000000 1.958394 -0.216444
v 0.225171 1.540821 0.171276
v 0.000000 1.542769 0.266905
v 0.211450 1.528295 -0.153504
v 0.291261 1.529926 0.017096
v 0.000000 1.536680 -0.189782
v 0.539024 2.531358 -0.115064
v 0.527526 2.588862 0.013527
v 0.549996 2.299451 -0.128781
v 0.543189 2.515775 0.166001
v 0.566266 2.288120 0.166740
v 0.551418 2.228303 0.000472
v 0.139952 2.617482 0.015769
v 0.127926 2.620788 0.102625
v -0.000000 2.605688 -0.124033
v 0.111344 2.613761 -0.070638
v -0.000000 2.599642 0.172711
v 0.078910 2.728642 0.021555
v 0.066588 2.728230 -0.029241
v -0.000000 2.725496 0.095768
v 0.203131 3.495543 -0.170215
v 0.281621 3.507730 0.179546
v -0.000000 2.724657 -0.066861
v 0.084157 2.130577 -0.200227
v 0.121416 2.138637 0.241388
v 0.052801 2.554860 -0.085637
v 0.078015 2.560487 0.128198
v 0.040003 2.619752 -0.066626
v 0.043068 2.612849 0.113539
v 0.033055 2.594706 -0.052568
v 0.035615 2.596530 0.087997
v 0.014233 1.223696 -0.001895
v 0.025812 1.236895 0.108098
v 0.051863 1.293923 0.237702
v 0.041697 1.266656 -0.153756
v 0.127408 1.388310 0.232954
v 0.109313 1.374837 -0.170966
v 0.130280 1.951413 0.247387
v 0.094771 1.954960 -0.207160
v 0.112574 1.541796 0.234722
v 0.105716 1.532488 -0.171642
v 0.077418 2.607919 0.145851
v 0.046525 2.606486 -0.111832
v 0.080616 2.286273 -0.193807
v -0.000000 2.269553 0.259106
v 0.114113 2.269257 0.245410
v 0.250276 1.542554 -0.181867
v 0.341893 1.544376 0.014314
v 0.000000 1.552144 -0.243388
v 0.267243 1.556209 0.196706
v 0.000000 1.558496 0.324919
v 0.126786 1.547349 -0.222326
v 0.135267 1.557354 0.291287
v 0.276728 2.134772 -0.091943
v 0.277253 1.231537 -0.036651
v 0.270818 1.288237 -0.054234
v 0.261862 1.371073 -0.065939
v 0.311817 0.714369 -0.033478
v 0.267232 1.965831 -0.082530
v 0.251355 1.529110 -0.068204
v 0.296084 1.543465 -0.085867
v -0.000000 3.491368 0.023419
v 0.206664 3.498060 0.023742
v 0.281296 2.276401 0.158858
v 0.492144 2.524551 -0.114148
v 0.503050 2.297089 -0.124459
v 0.494378 2.513061 0.159703
v 0.484982 2.586772 0.014038
v 0.516574 2.288402 0.161021
v 0.508893 2.236745 0.003097
v -0.000000 2.450521 -0.181396
v 0.172395 2.464005 -0.148450
v 0.079519 2.444531 -0.169728
v 0.090783 2.502651 0.177223
v 0.168584 2.529022 -0.126391
v 0.216803 2.585771 0.019816
v 0.187567 2.513348 0.144465
v 0.083958 2.511581 -0.156478
v -0.000000 2.507762 -0.158623
v -0.000000 2.506715 0.193432
v 0.194515 2.544082 -0.074675
v 0.353471 2.290137 -0.111739
v 0.372324 2.261591 0.010821
v 0.348360 2.580623 0.015544
v 0.345878 2.518176 -0.104598
v 0.358910 2.289234 0.144190
v 0.181725 1.556951 0.254897
v 0.204944 2.278856 0.198386
v 0.197657 2.136350 0.196769
v 0.182107 1.957215 0.213313
v 0.326480 2.517331 -0.103332
v 0.333633 2.289215 -0.110051
v 0.318742 2.504011 0.138707
v 0.330240 2.579808 0.015744
v 0.338001 2.289344 0.141958
v 0.354212 2.264886 0.011846
v 0.339308 2.505070 0.141166
v 0.235281 1.182574 -0.089477
v 0.107085 1.140724 0.091458
v 0.071684 1.127393 0.000006
v 0.169106 1.162228 0.179861
v 0.289420 1.198971 0.148746
v 0.323475 1.216918 0.016566
v 0.131323 1.125715 -0.111924
v 0.279378 1.199747 -0.036456
v 0.947363 2.459327 0.120138
v 0.960918 2.337626 0.123601
v 0.969841 2.294426 0.013047
v 0.942721 2.502759 0.014258
v 0.941929 2.459571 -0.082524
v 0.955476 2.337896 -0.092850
v 1.392762 2.510768 0.014201
v 1.406061 2.457058 0.116674
v 1.400784 2.457362 -0.079434
v 1.408872 2.339705 -0.089390
v 1.414150 2.339400 0.120053
v 1.411798 2.285997 0.013084
v 0.066588 2.713885 -0.029241
v -0.000000 2.711151 0.095768
v 0.035615 2.714176 0.087997
v 0.033055 2.712353 -0.052568
v -0.000000 2.710312 -0.066861
v 0.062891 2.716985 0.080385
v 0.078910 2.714297 0.021555
v -0.000000 2.608162 0.095768
v 0.033055 2.609364 -0.052568
v 0.062891 2.613996 0.080385
v 0.066588 2.610896 -0.029241
v 0.035615 2.611188 0.087997
v -0.000000 2.607323 -0.066861
v 0.078910 2.611308 0.021555
v 0.066588 2.626383 -0.029241
v 0.035615 2.626675 0.087997
v -0.000000 2.622810 -0.066861
v 0.078910 2.626795 0.021555
v -0.000000 2.623649 0.095768
v 0.033055 2.624851 -0.052568
v 0.062891 2.629483 0.080385
v -0.323763 3.500658 0.024780
v -0.291346 3.499575 -0.108846
v -0.291346 2.785939 -0.108846
v -0.323763 2.787022 0.024780
v -0.281621 2.794094 0.179546
v -0.203131 2.781907 -0.170215
v -0.209867 2.786706 0.199570
v -0.209867 3.500342 0.199570
v -0.035615 2.728522 0.087997
v -0.033055 2.726698 -0.052568
v -0.062891 2.731330 0.080385
v -0.312755 2.288244 -0.108276
v -0.306064 2.516441 -0.101999
v -0.335150 2.268354 0.012924
v -0.311170 2.578950 0.015954
v -0.315994 2.289460 0.139609
v -0.297097 2.502895 0.136119
v -0.175788 2.133269 -0.166957
v -0.316669 2.124105 0.011579
v -0.276585 2.134777 0.148745
v -0.180585 2.286822 -0.163492
v -0.562056 2.312959 -0.091097
v -0.548460 2.487772 -0.073030
v -0.572681 2.276577 0.013174
v -0.540654 2.517640 0.014718
v -0.567389 2.312914 0.122128
v -0.551315 2.476890 0.118814
v -0.864483 2.336916 -0.094691
v -0.848049 2.460720 -0.084167
v -0.875453 2.290921 0.012987
v -0.842585 2.506480 0.014309
v -0.870013 2.336665 0.125468
v -0.853568 2.460517 0.121958
v -0.116830 2.566382 -0.050285
v -0.140991 2.587853 0.020050
v -0.127867 2.573118 0.087637
v -0.079589 2.624619 -0.039694
v -0.095703 2.619291 0.023086
v -0.078196 2.616373 0.101736
v -0.066588 2.596239 -0.029241
v -0.078910 2.596650 0.021555
v -0.062891 2.599339 0.080385
v -1.346617 2.339715 -0.089385
v -1.338527 2.457376 -0.079429
v -1.352333 2.286007 0.013087
v -1.333294 2.510785 0.014207
v -1.351895 2.339412 0.120057
v -1.343803 2.457074 0.116679
v -1.385621 2.339708 -0.089388
v -1.377531 2.457366 -0.079432
v -1.389589 2.286000 0.013085
v -1.370552 2.510774 0.014203
v -1.390898 2.339404 0.120055
v -1.382808 2.457063 0.116676
v -1.432124 2.339701 -0.089391
v -1.424036 2.457357 -0.079436
v -1.434008 2.285994 0.013082
v -1.414973 2.510763 0.014198
v -1.437402 2.339396 0.120052
v -1.429313 2.457053 0.116672
v -1.509469 2.296619 -0.136663
v -1.513196 2.500638 -0.149404
v -1.518414 2.223043 0.010995
v -1.511758 2.582384 0.013013
v -1.525123 2.296084 0.169034
v -1.522350 2.500107 0.190670
v -1.633674 2.296608 -0.136667
v -1.637404 2.500623 -0.149410
v -1.642620 2.223033 0.010992
v -1.635968 2.582365 0.013006
v -1.649330 2.296071 0.169030
v -1.646559 2.500088 0.190664
v -1.720118 2.345459 -0.078981
v -1.716198 2.452351 -0.071053
v -1.724637 2.301250 0.014329
v -1.713147 2.506507 0.013282
v -1.724699 2.346957 0.110839
v -1.720792 2.453726 0.106683
v -0.889477 2.459936 0.121068
v -0.886420 2.500588 0.014269
v -0.884000 2.460160 -0.083361
v -0.899020 2.337399 -0.093789
v -0.904506 2.337138 0.124555
v -0.915720 2.296694 0.013033
v -0.927292 2.459441 0.120313
v -0.941123 2.337535 0.123780
v -0.950475 2.294852 0.013045
v -0.922947 2.502353 0.014261
v -0.921850 2.459682 -0.082681
v -0.935673 2.337805 -0.093026
v -0.270087 2.515685 -0.104140
v -0.285526 2.272748 -0.121927
v -0.328291 2.261587 0.012962
v -0.286194 2.577443 0.018475
v -0.266872 2.504612 0.133461
v -0.320612 0.087845 -0.060965
v -0.232919 1.213970 -0.090302
v -0.383392 0.092704 -0.007050
v -0.321587 1.249102 0.017000
v -0.367885 0.092043 0.067178
v -0.287472 1.230684 0.149677
v -0.277122 0.088683 0.105981
v -0.166015 1.192977 0.180774
v -0.222990 0.089695 0.082473
v -0.104378 1.170909 0.091845
v -0.201355 0.088243 0.009791
v -0.068883 1.157227 0.000006
v -0.257445 0.088145 -0.064467
v -0.129253 1.155506 -0.112848
v -0.228480 1.268902 -0.125703
v -0.313157 1.307572 0.017236
v -0.272384 1.305606 0.154752
v -0.154115 1.236005 0.192395
v -0.095062 1.200698 0.104961
v -0.055700 1.189212 -0.001429
v -0.111580 1.191621 -0.124366
v -0.218638 1.370046 -0.151662
v -0.305087 1.372100 0.019783
v -0.254830 1.387327 0.168892
v -0.103737 1.277441 0.222826
v -0.051634 1.238117 0.108098
v -0.028476 1.222424 -0.001428
v -0.083404 1.239500 -0.140237
v -0.352295 0.725525 0.009927
v -0.319154 0.714769 0.134529
v -0.216311 0.692748 0.165908
v -0.148405 0.679860 0.085547
v -0.271339 0.703212 -0.076882
v -0.114457 0.671870 0.000002
v -0.162932 0.670865 -0.097816
v -0.357536 0.664513 0.008720
v -0.324561 0.655064 0.114142
v -0.224895 0.635720 0.145569
v -0.155918 0.624399 0.084473
v -0.122235 0.617380 0.000002
v -0.168679 0.616497 -0.116164
v -0.277896 0.644386 -0.095504
v -0.386762 0.063052 -0.003686
v -0.354915 0.695019 0.014323
v -0.321858 0.684916 0.126732
v -0.220603 0.664234 0.158135
v -0.152161 0.652130 0.090010
v -0.118346 0.644625 0.005002
v -0.323575 0.060348 -0.061128
v -0.374405 0.063243 0.066723
v -0.278297 0.061501 0.105762
v -0.225888 0.061056 0.083398
v -0.201355 0.059443 0.009791
v -0.259443 0.060225 -0.064577
v -0.384707 0.027605 -0.004915
v -0.327976 0.028147 -0.059292
v -0.388233 0.036021 0.189288
v -0.286623 0.037870 0.225372
v -0.226822 0.033291 0.199753
v -0.201461 0.029443 0.011287
v -0.257202 0.027186 -0.062670
v -0.376652 -0.017967 0.001427
v -0.326798 -0.017967 -0.045818
v -0.374912 -0.017967 0.187960
v -0.286247 -0.017966 0.223969
v -0.236965 -0.017966 0.196899
v -0.209391 -0.017967 0.015674
v -0.256643 -0.017967 -0.043687
v -0.900975 2.501476 0.014267
v -0.899217 2.459925 -0.083019
v -0.913639 2.337604 -0.093406
v -0.904676 2.459693 0.120691
v -0.919107 2.337340 0.124168
v -0.929390 2.295775 0.013040
v -0.259138 1.959970 0.137471
v -0.205038 1.961001 -0.171568
v -0.309020 1.966484 0.009707
v -0.225171 1.540821 0.171276
v -0.211450 1.528295 -0.153504
v -0.291261 1.529926 0.017096
v -0.539024 2.531358 -0.115064
v -0.527526 2.588862 0.013527
v -0.549996 2.299451 -0.128781
v -0.543189 2.515775 0.166001
v -0.566266 2.288120 0.166740
v -0.551418 2.228303 0.000472
v -0.139952 2.617482 0.015769
v -0.127926 2.620788 0.102625
v -0.111344 2.613761 -0.070638
v -0.078910 2.728642 0.021555
v -0.066588 2.728230 -0.029241
v -0.203131 3.495543 -0.170215
v -0.281621 3.507730 0.179546
v -0.084157 2.130577 -0.200227
v -0.121416 2.138637 0.241388
v -0.052801 2.554860 -0.085637
v -0.078015 2.560487 0.128198
v -0.040003 2.619752 -0.066626
v -0.043068 2.612849 0.113539
v -0.033055 2.594706 -0.052568
v -0.035615 2.596530 0.087997
v -0.014233 1.223696 -0.001895
v -0.025812 1.236895 0.108098
v -0.051863 1.293923 0.237702
v -0.041697 1.266656 -0.153756
v -0.127408 1.388310 0.232954
v -0.109313 1.374837 -0.170966
v -0.130280 1.951413 0.247387
v -0.094771 1.954960 -0.207160
v -0.112574 1.541796 0.234722
v -0.105716 1.532488 -0.171642
v -0.077418 2.607919 0.145851
v -0.046525 2.606486 -0.111832
v -0.080616 2.286273 -0.193807
v -0.114113 2.269257 0.245410
v -0.250276 1.542554 -0.181867
v -0.341893 1.544376 0.014314
v -0.267243 1.556209 0.196706
v -0.126786 1.547349 -0.222326
v -0.135267 1.557354 0.291287
v -0.276728 2.134772 -0.091943
v -0.277253 1.231537 -0.036651
v -0.270818 1.288237 -0.054234
v -0.261862 1.371073 -0.065939
v -0.311817 0.714369 -0.033478
v -0.267232 1.965831 -0.082530
v -0.251355 1.529110 -0.068204
v -0.296084 1.543465 -0.085867
v -0.206664 3.498060 0.023742
v -0.281296 2.276401 0.158858
v -0.492144 2.524551 -0.114148
v -0.503050 2.297089 -0.124459
v -0.494378 2.513061 0.159703
v -0.484982 2.586772 0.014038
v -0.516574 2.288402 0.161021
v -0.508893 2.236745 0.003097
v -0.172395 2.464005 -0.148450
v -0.079519 2.444531 -0.169728
v -0.090783 2.502651 0.177223
v -0.168584 2.529022 -0.126391
v -0.216803 2.585771 0.019816
v -0.187567 2.513348 0.144465
v -0.083958 2.511581 -0.156478
v -0.194515 2.544082 -0.074675
v -0.353471 2.290137 -0.111739
v -0.372324 2.261591 0.010821
v -0.348360 2.580623 0.015544
v -0.345878 2.518176 -0.104598
v -0.358910 2.289234 0.144190
v -0.181725 1.556951 0.254897
v -0.204944 2.278856 0.198386
v -0.197657 2.136350 0.196769
v -0.182107 1.957215 0.213313
v -0.326480 2.517331 -0.103332
v -0.333633 2.289215 -0.110051
v -0.318742 2.504011 0.138707
v -0.330240 2.579808 0.015744
v -0.338001 2.289344 0.141958
v -0.354212 2.264886 0.011846
v -0.339308 2.505070 0.141166
v -0.235281 1.182574 -0.089477
v -0.107085 1.140724 0.091458
v -0.071684 1.127393 0.000006
v -0.169106 1.162228 0.179861
v -0.289420 1.198971 0.148746
v -0.323475 1.216918 0.016566
v -0.131323 1.125715 -0.111924
v -0.279378 1.199747 -0.036456
v -0.947363 2.459327 0.120138
v -0.960918 2.337626 0.123601
v -0.969841 2.294426 0.013047
v -0.942721 2.502759 0.014258
v -0.941929 2.459571 -0.082524
v -0.955476 2.337896 -0.092850
v -1.392762 2.510768 0.014201
v -1.406061 2.457058 0.116674
v -1.400784 2.457362 -0.079434
v -1.408872 2.339705 -0.089390
v -1.414150 2.339400 0.120053
v -1.411798 2.285997 0.013084
v -0.066588 2.713885 -0.029241
v -0.035615 2.714176 0.087997
v -0.033055 2.712353 -0.052568
v -0.062891 2.716985 0.080385
v -0.078910 2.714297 0.021555
v -0.033055 2.609364 -0.052568
v -0.062891 2.613996 0.080385
v -0.066588 2.610896 -0.029241
v -0.035615 2.611188 0.087997
v -0.078910 2.611308 0.021555
v -0.066588 2.626383 -0.029241
v -0.035615 2.626675 0.087997
v -0.078910 2.626795 0.021555
v -0.033055 2.624851 -0.052568
v -0.062891 2.629483 0.080385
vn 0.2688 -0.0000 0.9632
vn 0.5711 -0.0000 -0.8209
vn 0.2323 -0.9714 -0.0485
vn 0.0843 -0.9235 0.3741
vn 0.2293 -0.9675 0.1066
vn 0.1006 -0.9409 -0.3235
vn 0.9649 -0.0000 0.2627
vn 0.1790 -0.9646 -0.1939
vn 0.1655 -0.9565 0.2403
vn 0.9696 0.0767 -0.2325
vn 0.9806 0.1959 0.0084
vn 0.2629 -0.9490 0.1740
vn 0.3086 0.0581 -0.9494
vn 0.2086 0.0418 -0.9771
vn 0.2641 -0.9575 -0.1158
vn 0.1375 0.0566 -0.9889
vn 0.0587 -0.9659 0.2521
vn 0.9615 -0.2682 0.0603
vn 0.9213 -0.3331 -0.2009
vn 0.9807 0.1952 -0.0140
vn 0.0517 0.9265 -0.3726
vn 0.0570 -0.9352 0.3494
vn 0.0565 -0.9286 -0.3667
vn 0.0405 0.9261 0.3751
vn -0.0239 0.0929 -0.9954
vn -0.0282 0.9996 -0.0074
vn 0.0310 0.9656 -0.2582
vn -0.0677 0.9801 0.1866
vn 0.1478 0.9884 -0.0337
vn -0.2362 0.8423 -0.4845
vn -0.8228 0.5204 0.2285
vn -0.7145 0.6779 -0.1731
vn -0.3312 0.4821 0.8111
vn -0.0048 0.9062 0.4229
vn -0.0049 0.8918 -0.4525
vn 0.0083 0.0852 -0.9963
vn -0.0060 -0.9140 0.4057
vn -0.0058 -0.9065 -0.4222
vn -0.0001 0.0843 -0.9964
vn -0.0001 -0.8947 0.4467
vn -0.0002 -0.8857 -0.4642
vn 0.0003 0.8857 0.4642
vn 0.0002 0.8686 -0.4954
vn 0.0002 0.8857 0.4642
vn 0.0001 0.8686 -0.4954
vn -0.5588 -0.7400 0.3744
vn -0.5859 -0.7322 -0.3472
vn -0.5813 0.7105 0.3966
vn -0.5876 0.7054 -0.3964
vn -0.5756 -0.0149 -0.8176
vn 0.0002 0.9074 0.4202
vn 0.0001 0.8932 -0.4496
vn -0.0001 -0.0623 -0.9981
vn -0.0001 -0.9077 0.4195
vn -0.0001 -0.8950 -0.4460
vn 0.6653 -0.6832 0.3010
vn 0.6413 -0.6746 -0.3656
vn 0.6924 0.6633 0.2839
vn 0.6847 0.6436 -0.3420
vn 0.6356 -0.0116 -0.7719
vn 0.9987 0.0495 -0.0110
vn 0.0818 -0.9203 -0.3825
vn 0.9981 0.0486 -0.0387
vn 0.0818 -0.9281 0.3632
vn 0.0242 0.0877 -0.9959
vn 0.0777 0.9132 -0.4001
vn 0.0795 0.9261 0.3688
vn -0.0123 -0.9294 -0.3690
vn -0.0126 -0.9352 0.3540
vn 0.0161 0.0864 -0.9961
vn -0.0101 0.9175 -0.3977
vn -0.0098 0.9287 0.3706
vn 0.0019 0.8448 0.5351
vn -0.0359 0.8892 -0.4562
vn 0.5968 -0.7642 -0.2445
vn 0.2273 0.0603 -0.9719
vn 0.7608 0.0501 -0.6470
vn 0.9653 0.0525 0.2557
vn 0.2516 -0.0083 0.9678
vn -0.8066 -0.0892 0.5844
vn -0.9247 -0.0872 0.3705
vn -0.6878 -0.4050 0.6024
vn -0.8799 -0.0791 -0.4686
vn 0.2182 -0.0121 -0.9758
vn 0.8328 -0.1690 -0.5271
vn 0.3139 -0.3736 -0.8729
vn 0.9487 0.1563 0.2747
vn -0.8489 -0.3789 0.3687
vn 0.3020 -0.0655 0.9510
vn -0.8048 -0.4403 -0.3980
vn -0.4373 -0.7386 0.5131
vn 0.9465 0.1322 0.2945
vn 0.1436 -0.2333 -0.9617
vn -0.6723 -0.6850 0.2809
vn 0.3884 -0.1166 0.9141
vn 0.8787 -0.0079 -0.4773
vn -0.7380 -0.5737 -0.3552
vn 0.0151 -0.9143 0.4049
vn -0.0028 -0.9914 0.1309
vn -0.3755 -0.8808 -0.2884
vn 0.2324 -0.1512 0.9608
vn 0.9432 -0.0839 0.3216
vn 0.1716 0.0014 -0.9852
vn 0.7081 0.0311 -0.7054
vn 0.5222 0.0429 0.8517
vn 0.0923 0.3182 -0.9435
vn -0.8779 -0.2048 -0.4329
vn -0.9254 -0.0644 0.3735
vn -0.7169 -0.1428 0.6824
vn 0.3269 -0.2068 0.9221
vn 0.9592 0.0692 0.2740
vn -0.9201 0.0344 -0.3902
vn 0.7400 0.0338 -0.6718
vn 0.9639 0.0442 0.2626
vn 0.3502 -0.0428 0.9357
vn -0.5586 -0.0933 0.8242
vn -0.9336 -0.1258 0.3354
vn -0.8688 -0.1651 -0.4669
vn 0.1480 -0.0605 -0.9871
vn 0.7353 -0.0344 -0.6769
vn 0.9571 -0.0030 0.2899
vn 0.3415 -0.3372 0.8773
vn -0.6197 -0.3194 0.7169
vn -0.9047 -0.1981 0.3773
vn -0.9268 -0.0644 -0.3700
vn 0.7647 0.1794 -0.6189
vn 0.7200 0.2811 -0.6345
vn 0.3832 0.0415 0.9227
vn -0.7927 -0.0267 -0.6091
vn -0.3955 -0.0172 0.9183
vn 0.0545 0.0098 -0.9985
vn 0.9671 0.1729 0.1869
vn 0.6609 0.0312 -0.7498
vn -0.9525 -0.0432 0.3015
vn 0.0509 -0.0555 -0.9972
vn -0.9286 0.3299 0.1699
vn 0.0759 0.9772 0.1983
vn 0.6817 0.0171 -0.7314
vn 0.9726 0.2310 0.0249
vn -0.7933 -0.0060 -0.6088
vn -0.1356 0.9669 0.2159
vn 0.6725 -0.2204 -0.7065
vn -0.7751 -0.2120 -0.5952
vn -0.4312 -0.0751 0.8992
vn 0.9777 -0.2099 0.0001
vn 0.0106 -0.3352 -0.9421
vn -0.9741 -0.1762 0.1413
vn 0.3529 -0.0672 0.9332
vn -0.0000 -1.0000 -0.0000
vn -0.0156 0.9324 0.3610
vn -0.0158 0.9218 -0.3874
vn 0.0243 0.0875 -0.9959
vn -0.0192 -0.9388 0.3439
vn -0.0186 -0.9334 -0.3584
vn 0.9718 -0.0000 -0.2358
vn 0.0967 -0.2736 -0.9570
vn 0.5770 0.0907 0.8117
vn 0.8595 0.0839 -0.5043
vn 0.1483 0.0206 -0.9887
vn 0.9258 0.0746 0.3705
vn 0.9294 0.1302 0.3453
vn 0.8983 0.0446 -0.4371
vn 0.4688 0.0560 0.8815
vn 0.0096 -0.9607 -0.2774
vn -0.0751 0.8921 0.4456
vn -0.0953 -0.8871 -0.4515
vn -0.0999 -0.9388 0.3297
vn -0.0963 0.8994 -0.4264
vn -0.0605 0.0493 -0.9970
vn 0.9485 -0.0207 -0.3160
vn 0.2135 0.7230 0.6571
vn 0.1219 -0.5146 -0.8487
vn 0.1889 0.6348 0.7492
vn 0.5184 -0.3126 -0.7959
vn 0.3054 -0.3827 0.8719
vn 0.0436 -0.9477 -0.3161
vn 0.2651 0.0068 0.9642
vn 0.3194 0.0680 -0.9452
vn 0.2914 0.0913 0.9522
vn 0.1556 -0.2470 -0.9565
vn 0.2930 0.0818 0.9526
vn 0.1714 -0.0020 -0.9852
vn 0.3839 -0.1650 0.9085
vn -0.2689 -0.9071 -0.3238
vn -0.0025 -0.9942 0.1079
vn -0.1041 -0.9134 0.3935
vn -0.5174 0.5088 0.6880
vn -0.1909 0.8599 -0.4734
vn -0.0323 0.9802 0.1953
vn 0.0654 0.9603 -0.2713
vn 0.3144 0.0291 -0.9488
vn 0.0859 0.9220 -0.3775
vn 0.1816 0.0354 0.9827
vn -0.0715 0.8546 0.5144
vn 0.2132 -0.0000 0.9770
vn 0.0970 -0.0000 0.9953
vn 0.3969 -0.0000 -0.9179
vn -0.0299 0.9995 -0.0077
vn -0.0356 0.9993 -0.0085
vn 0.1532 -0.9560 0.2500
vn 0.8974 0.0623 -0.4369
vn 0.9080 0.0657 -0.4139
vn 0.9202 -0.0573 -0.3871
vn 0.8722 0.0707 -0.4839
vn 0.8192 0.0194 -0.5732
vn 0.7621 0.0437 -0.6460
vn 0.2649 -0.9576 -0.1135
vn 0.9366 -0.1042 -0.3345
vn 0.4855 -0.1016 -0.8683
vn 0.1820 -0.0000 -0.9833
vn -0.0286 0.9996 -0.0085
vn -0.0563 0.9978 -0.0349
vn 0.9871 -0.0097 0.1600
vn 0.5045 -0.8317 0.2320
vn 0.2335 0.0810 0.9690
vn -0.0236 0.9964 -0.0811
vn 0.9518 -0.0680 0.2989
vn 0.4892 -0.0566 0.8703
vn -0.0766 0.0351 -0.9964
vn -0.0570 0.8918 -0.4488
vn -0.0919 -0.9613 0.2599
vn -0.0822 -0.9416 -0.3265
vn -0.0704 0.8739 0.4809
vn -0.0084 0.8430 -0.5379
vn 0.2449 0.6195 -0.7458
vn 0.3154 0.1814 0.9315
vn -0.1124 -0.0009 0.9937
vn 0.1445 0.2774 0.9498
vn 0.2206 0.2509 -0.9425
vn 0.1816 0.1624 -0.9699
vn 0.3738 0.0931 -0.9228
vn 0.2131 0.8713 0.4420
vn 0.1400 0.8339 0.5338
vn 0.6573 -0.2413 0.7139
vn 0.1299 0.8860 -0.4451
vn 0.0846 0.2746 -0.9578
vn 0.0331 0.8840 -0.4664
vn 0.1563 0.9245 -0.3476
vn -0.0763 0.0278 -0.9967
vn -0.1209 -0.0076 0.9926
vn 0.0256 0.0315 0.9992
vn 0.0172 0.0304 0.9994
vn 0.0256 0.0316 0.9992
vn 0.6891 -0.0259 0.7242
vn -0.0000 -0.1055 0.9944
vn -0.5614 -0.0658 0.8250
vn 0.0001 0.0287 0.9996
vn 0.0089 0.0294 0.9995
vn -0.0110 0.0225 0.9997
vn 0.9914 0.1000 0.0845
vn 0.4815 -0.0181 0.8763
vn 0.2451 0.1190 -0.9622
vn -0.0753 -0.9771 -0.1992
vn -0.1125 0.0043 0.9936
vn 0.3529 0.2649 0.8974
vn 0.6215 -0.0463 0.7821
vn 0.6321 0.1024 0.7681
vn -0.0911 -0.9788 0.1833
vn -0.0572 0.8856 -0.4610
vn -0.1125 0.0056 0.9936
vn -0.0717 0.8493 0.5229
vn -0.0734 -0.9834 -0.1659
vn -0.0908 -0.9826 0.1619
vn -0.0573 0.8840 -0.4640
vn -0.0762 0.0261 -0.9968
vn 0.7450 0.0421 -0.6658
vn 0.2054 -0.0131 -0.9786
vn -0.8865 -0.0795 -0.4559
vn -0.9239 -0.0872 0.3725
vn -0.7806 -0.0875 0.6188
vn 0.2713 -0.0065 0.9625
vn 0.9646 0.0524 0.2583
vn 0.7437 0.0491 -0.6667
vn -0.0062 -0.9263 -0.3768
vn -0.0064 -0.9324 0.3613
vn 0.0083 0.0855 -0.9963
vn -0.0052 0.9142 -0.4051
vn -0.0051 0.9260 0.3775
vn -0.2688 -0.0000 0.9632
vn -0.5711 -0.0000 -0.8209
vn -0.2323 -0.9714 -0.0485
vn -0.0843 -0.9235 0.3741
vn -0.2293 -0.9675 0.1066
vn -0.1006 -0.9409 -0.3235
vn -0.9649 -0.0000 0.2627
vn -0.1790 -0.9646 -0.1939
vn -0.1655 -0.9565 0.2403
vn -0.9696 0.0767 -0.2325
vn -0.9806 0.1959 0.0084
vn -0.2629 -0.9490 0.1740
vn -0.3086 0.0581 -0.9494
vn -0.2086 0.0418 -0.9771
vn -0.2641 -0.9575 -0.1158
vn -0.1375 0.0566 -0.9889
vn -0.0587 -0.9659 0.2521
vn -0.9615 -0.2682 0.0603
vn -0.9213 -0.3331 -0.2009
vn -0.9807 0.1952 -0.0140
vn -0.0517 0.9265 -0.3726
vn -0.0570 -0.9352 0.3494
vn -0.0565 -0.9286 -0.3667
vn -0.0405 0.9261 0.3751
vn 0.0239 0.0929 -0.9954
vn 0.0282 0.9996 -0.0074
vn -0.0310 0.9656 -0.2582
vn 0.0677 0.9801 0.1866
vn -0.1478 0.9884 -0.0337
vn 0.2362 0.8423 -0.4845
vn 0.8228 0.5204 0.2285
vn 0.7145 0.6779 -0.1731
vn 0.3312 0.4821 0.8111
vn 0.0048 0.9062 0.4229
vn 0.0049 0.8918 -0.4525
vn -0.0083 0.0852 -0.9963
vn 0.0060 -0.9140 0.4057
vn 0.0058 -0.9065 -0.4222
vn 0.0001 0.0843 -0.9964
vn 0.0001 -0.8947 0.4467
vn 0.0002 -0.8857 -0.4642
vn -0.0003 0.8857 0.4642
vn -0.0002 0.8686 -0.4954
vn -0.0002 0.8857 0.4642
vn -0.0001 0.8686 -0.4954
vn 0.5588 -0.7400 0.3744
vn 0.5859 -0.7322 -0.3472
vn 0.5813 0.7105 0.3966
vn 0.5876 0.7054 -0.3964
vn 0.5756 -0.0149 -0.8176
vn -0.0002 0.9074 0.4202
vn -0.0001 0.8932 -0.4496
vn 0.0001 -0.0623 -0.9981
vn 0.0001 -0.9077 0.4195
vn 0.0001 -0.8950 -0.4460
vn -0.6653 -0.6832 0.3010
vn -0.6413 -0.6746 -0.3656
vn -0.6924 0.6633 0.2839
vn -0.6847 0.6436 -0.3420
vn -0.6356 -0.0116 -0.7719
vn -0.9987 0.0495 -0.0110
vn -0.0818 -0.9203 -0.3825
vn -0.9981 0.0486 -0.0387
vn -0.0818 -0.9281 0.3632
vn -0.0242 0.0877 -0.9959
vn -0.0777 0.9132 -0.4001
vn -0.0795 0.9261 0.3688
vn 0.0123 -0.9294 -0.3690
vn 0.0126 -0.9352 0.3540
vn -0.0161 0.0864 -0.9961
vn 0.0101 0.9175 -0.3977
vn 0.0098 0.9287 0.3706
vn -0.0019 0.8448 0.5351
vn 0.0359 0.8892 -0.4562
vn -0.5968 -0.7642 -0.2445
vn -0.2273 0.0603 -0.9719
vn -0.7608 0.0501 -0.6470
vn -0.9653 0.0525 0.2557
vn -0.2516 -0.0083 0.9678
vn 0.8066 -0.0892 0.5844
vn 0.9247 -0.0872 0.3705
vn 0.6878 -0.4050 0.6024
vn 0.8799 -0.0791 -0.4686
vn -0.2182 -0.0121 -0.9758
vn -0.8328 -0.1690 -0.5271
vn -0.3139 -0.3736 -0.8729
vn -0.9487 0.1563 0.2747
vn 0.8489 -0.3789 0.3687
vn -0.3020 -0.0655 0.9510
vn 0.8048 -0.4403 -0.3980
vn 0.4373 -0.7386 0.5131
vn -0.9465 0.1322 0.2945
vn -0.1436 -0.2333 -0.9617
vn 0.6723 -0.6850 0.2809
vn -0.3884 -0.1166 0.9141
vn -0.8787 -0.0079 -0.4773
vn 0.7380 -0.5737 -0.3552
vn -0.0151 -0.9143 0.4049
vn 0.0028 -0.9914 0.1309
vn 0.3755 -0.8808 -0.2884
vn -0.2324 -0.1512 0.9608
vn -0.9432 -0.0839 0.3216
vn -0.1716 0.0014 -0.9852
vn -0.7081 0.0311 -0.7054
vn -0.5222 0.0429 0.8517
vn -0.0923 0.3182 -0.9435
vn 0.8779 -0.2048 -0.4329
vn 0.9254 -0.0644 0.3735
vn 0.7169 -0.1428 0.6824
vn -0.3269 -0.2068 0.9221
vn -0.9592 0.0692 0.2740
vn 0.9201 0.0344 -0.3902
vn -0.7400 0.0338 -0.6718
vn -0.9639 0.0442 0.2626
vn -0.3502 -0.0428 0.9357
vn 0.5586 -0.0933 0.8242
vn 0.9336 -0.1258 0.3354
vn 0.8687 -0.1651 -0.4669
vn -0.1480 -0.0605 -0.9871
vn -0.7353 -0.0344 -0.6769
vn -0.9571 -0.0030 0.2899
vn -0.3415 -0.3372 0.8773
vn 0.6197 -0.3194 0.7169
vn 0.9047 -0.1981 0.3773
vn 0.9268 -0.0644 -0.3700
vn -0.7647 0.1794 -0.6189
vn -0.7200 0.2811 -0.6345
vn -0.3832 0.0415 0.9227
vn 0.7927 -0.0267 -0.6091
vn 0.3955 -0.0172 0.9183
vn -0.0545 0.0098 -0.9985
vn -0.9671 0.1729 0.1869
vn -0.6609 0.0312 -0.7498
vn 0.9525 -0.0432 0.3015
vn -0.0509 -0.0555 -0.9972
vn 0.9286 0.3299 0.1699
vn -0.0759 0.9772 0.1983
vn -0.6817 0.0171 -0.7314
vn -0.9726 0.2310 0.0249
vn 0.7933 -0.0060 -0.6088
vn 0.1356 0.9669 0.2159
vn -0.6725 -0.2204 -0.7065
vn 0.7751 -0.2120 -0.5952
vn 0.4312 -0.0751 0.8992
vn -0.9777 -0.2099 0.0001
vn -0.0106 -0.3352 -0.9421
vn 0.9741 -0.1762 0.1413
vn -0.3529 -0.0672 0.9332
vn 0.0156 0.9324 0.3610
vn 0.0158 0.9218 -0.3874
vn -0.0243 0.0875 -0.9959
vn 0.0192 -0.9388 0.3439
vn 0.0186 -0.9334 -0.3584
vn -0.9718 -0.0000 -0.2358
vn -0.0967 -0.2736 -0.9570
vn -0.5770 0.0907 0.8117
vn -0.8595 0.0839 -0.5043
vn -0.1483 0.0206 -0.9887
vn -0.9258 0.0746 0.3705
vn -0.9294 0.1302 0.3453
vn -0.8983 0.0446 -0.4371
vn -0.4688 0.0560 0.8815
vn -0.0096 -0.9607 -0.2774
vn 0.0751 0.8921 0.4456
vn 0.0953 -0.8871 -0.4515
vn 0.0999 -0.9388 0.3297
vn 0.0963 0.8994 -0.4264
vn 0.0605 0.0493 -0.9970
vn -0.9485 -0.0207 -0.3160
vn -0.2135 0.7230 0.6571
vn -0.1219 -0.5146 -0.8487
vn -0.1889 0.6348 0.7492
vn -0.5184 -0.3126 -0.7959
vn -0.3054 -0.3827 0.8719
vn -0.0436 -0.9477 -0.3161
vn -0.2651 0.0068 0.9642
vn -0.3194 0.0680 -0.9452
vn -0.2914 0.0913 0.9522
vn -0.1556 -0.2470 -0.9565
vn -0.2930 0.0818 0.9526
vn -0.1714 -0.0020 -0.9852
vn -0.3839 -0.1650 0.9085
vn 0.2689 -0.9071 -0.3238
vn 0.0025 -0.9942 0.1079
vn 0.1041 -0.9134 0.3935
vn 0.5174 0.5088 0.6880
vn 0.1909 0.8599 -0.4734
vn 0.0323 0.9802 0.1953
vn -0.0654 0.9603 -0.2713
vn -0.3144 0.0291 -0.9488
vn -0.0859 0.9220 -0.3775
vn -0.1816 0.0354 0.9827
vn 0.0715 0.8546 0.5144
vn -0.2132 -0.0000 0.9770
vn -0.0970 -0.0000 0.9953
vn -0.3969 -0.0000 -0.9179
vn 0.0299 0.9995 -0.0077
vn 0.0356 0.9993 -0.0085
vn -0.1532 -0.9560 0.2500
vn -0.8974 0.0623 -0.4369
vn -0.9080 0.0657 -0.4139
vn -0.9202 -0.0573 -0.3871
vn -0.8722 0.0707 -0.4839
vn -0.8192 0.0194 -0.5732
vn -0.7621 0.0437 -0.6460
vn -0.2649 -0.9576 -0.1135
vn -0.9366 -0.1042 -0.3345
vn -0.4855 -0.1016 -0.8683
vn -0.1820 -0.0000 -0.9833
vn 0.0286 0.9996 -0.0085
vn 0.0563 0.9978 -0.0349
vn -0.9871 -0.0097 0.1600
vn -0.5045 -0.8317 0.2320
vn -0.2335 0.0810 0.9690
vn 0.0236 0.9964 -0.0811
vn -0.9518 -0.0680 0.2989
vn -0.4892 -0.0566 0.8703
vn 0.0766 0.0351 -0.9964
vn 0.0570 0.8918 -0.4488
vn 0.0919 -0.9613 0.2599
vn 0.0822 -0.9416 -0.3265
vn 0.0704 0.8739 0.4809
vn 0.0084 0.8430 -0.5379
vn -0.2449 0.6195 -0.7458
vn -0.3154 0.1814 0.9315
vn 0.1124 -0.0009 0.9937
vn -0.1445 0.2774 0.9498
vn -0.2206 0.2509 -0.9425
vn -0.1816 0.1624 -0.9699
vn -0.3738 0.0931 -0.9228
vn -0.2131 0.8713 0.4420
vn -0.1400 0.8339 0.5338
vn -0.6573 -0.2413 0.7139
vn -0.1299 0.8860 -0.4451
vn -0.0846 0.2746 -0.9578
vn -0.0331 0.8840 -0.4664
vn -0.1563 0.9245 -0.3476
vn 0.0763 0.0278 -0.9967
vn 0.1209 -0.0076 0.9926
vn -0.0256 0.0315 0.9992
vn -0.0172 0.0304 0.9994
vn -0.0256 0.0316 0.9992
vn -0.6891 -0.0259 0.7242
vn 0.5614 -0.0658 0.8250
vn -0.0001 0.0287 0.9996
vn -0.0089 0.0294 0.9995
vn 0.0110 0.0225 0.9997
vn -0.9914 0.1000 0.0845
vn -0.4815 -0.0181 0.8763
vn -0.2451 0.1190 -0.9622
vn 0.0753 -0.9771 -0.1992
vn 0.1125 0.0043 0.9936
vn -0.3529 0.2649 0.8974
vn -0.6215 -0.0463 0.7821
vn -0.6321 0.1024 0.7681
vn 0.0911 -0.9788 0.1833
vn 0.0572 0.8856 -0.4610
vn 0.1125 0.0056 0.9936
vn 0.0717 0.8493 0.5229
vn 0.0734 -0.9834 -0.1659
vn 0.0908 -0.9826 0.1619
vn 0.0573 0.8840 -0.4640
vn 0.0762 0.0261 -0.9968
vn -0.7450 0.0421 -0.6658
vn -0.2054 -0.0131 -0.9786
vn 0.8865 -0.0795 -0.4559
vn 0.9239 -0.0872 0.3725
vn 0.7806 -0.0875 0.6188
vn -0.2713 -0.0065 0.9625
vn -0.9646 0.0524 0.2583
vn -0.7437 0.0491 -0.6667
vn 0.0062 -0.9263 -0.3768
vn 0.0064 -0.9324 0.3613
vn -0.0083 0.0855 -0.9963
vn 0.0052 0.9142 -0.4051
vn 0.0051 0.9260 0.3775
vt 0.397403 0.529017
vt 0.422703 0.532955
vt 0.435841 0.789569
vt 0.403984 0.787749
vt 0.112813 0.693730
vt 0.075947 0.694846
vt 0.085422 0.434368
vt 0.130258 0.435225
vt 0.085067 0.785905
vt 0.066447 0.772948
vt 0.162725 0.711494
vt 0.341962 0.453151
vt 0.357532 0.456509
vt 0.320356 0.507907
vt 0.368715 0.459033
vt 0.388361 0.440227
vt 0.476449 0.505621
vt 0.048997 0.773399
vt 0.032934 0.775705
vt 0.000384 0.716488
vt 0.505025 0.781254
vt 0.618381 0.830869
vt 0.614617 0.919892
vt 0.598039 0.903068
vt 0.603290 0.836403
vt 0.565072 0.943395
vt 0.564336 0.915343
vt 0.748094 0.936558
vt 0.771784 0.877037
vt 0.791861 0.876196
vt 0.765028 0.946490
vt 0.420303 0.159909
vt 0.407809 0.000384
vt 0.456671 0.002979
vt 0.464468 0.157626
vt 0.501091 0.223483
vt 0.502951 0.281035
vt 0.472015 0.284059
vt 0.468451 0.224697
vt 0.757422 0.844145
vt 0.743059 0.811254
vt 0.758893 0.800550
vt 0.775386 0.837581
vt 0.505025 0.005782
vt 0.500453 0.159191
vt 0.663926 0.976744
vt 0.706201 0.962462
vt 0.716054 0.984315
vt 0.665184 0.999617
vt 0.505792 0.826839
vt 0.569088 0.803757
vt 0.564159 0.823819
vt 0.522878 0.836263
vt 0.505792 0.914734
vt 0.524012 0.899409
vt 0.699019 0.767853
vt 0.663926 0.768492
vt 0.672916 0.654842
vt 0.714228 0.654772
vt 0.850082 0.763587
vt 0.806878 0.761869
vt 0.806935 0.646309
vt 0.853570 0.648026
vt 0.765291 0.765473
vt 0.761983 0.650062
vt 0.954370 0.768492
vt 0.912023 0.767119
vt 0.901209 0.652851
vt 0.945850 0.654815
vt 0.125767 0.895063
vt 0.119932 0.864989
vt 0.138968 0.868213
vt 0.141474 0.898923
vt 0.141567 0.813238
vt 0.153121 0.798351
vt 0.164182 0.814440
vt 0.152929 0.827662
vt 0.135567 0.913701
vt 0.151940 0.908420
vt 0.121707 0.867247
vt 0.128910 0.835750
vt 0.142431 0.843380
vt 0.151438 0.892206
vt 0.160471 0.899491
vt 0.154315 0.848283
vt 0.150034 0.868322
vt 0.172088 0.822396
vt 0.162924 0.834245
vt 0.943505 0.616794
vt 0.899858 0.616975
vt 0.897352 0.465702
vt 0.941268 0.469063
vt 0.715611 0.618881
vt 0.675267 0.616839
vt 0.677361 0.469010
vt 0.718254 0.467615
vt 0.762678 0.614933
vt 0.763199 0.464914
vt 0.852926 0.612914
vt 0.806989 0.609415
vt 0.807123 0.462728
vt 0.852548 0.462961
vt 0.718415 0.452813
vt 0.763257 0.450071
vt 0.807140 0.448622
vt 0.852498 0.448126
vt 0.897201 0.450898
vt 0.941079 0.454990
vt 0.677556 0.454935
vt 0.940975 0.446586
vt 0.897115 0.442083
vt 0.897033 0.433276
vt 0.940874 0.438182
vt 0.718505 0.443997
vt 0.677663 0.446531
vt 0.677767 0.438127
vt 0.718592 0.435191
vt 0.763294 0.441251
vt 0.763332 0.432440
vt 0.852467 0.439302
vt 0.807145 0.440204
vt 0.807150 0.431791
vt 0.852437 0.430489
vt 0.509689 0.674096
vt 0.512589 0.613508
vt 0.557351 0.613858
vt 0.559552 0.669994
vt 0.517562 0.557200
vt 0.556853 0.562345
vt 0.505792 0.783700
vt 0.515089 0.731811
vt 0.562596 0.732535
vt 0.556707 0.802990
vt 0.517871 0.503182
vt 0.505793 0.455579
vt 0.554579 0.430917
vt 0.562637 0.499740
vt 0.598766 0.726589
vt 0.614180 0.797238
vt 0.615579 0.430490
vt 0.602146 0.502565
vt 0.596532 0.564677
vt 0.597521 0.616977
vt 0.598928 0.669534
vt 0.646545 0.618586
vt 0.641284 0.671255
vt 0.650111 0.564197
vt 0.640410 0.719108
vt 0.653020 0.766618
vt 0.663159 0.463148
vt 0.647549 0.510446
vt 0.766492 0.351433
vt 0.766492 0.392308
vt 0.735975 0.415308
vt 0.729763 0.337208
vt 0.762290 0.636722
vt 0.806953 0.630477
vt 0.698931 0.397762
vt 0.694358 0.357272
vt 0.853279 0.634688
vt 0.714782 0.641053
vt 0.674635 0.638201
vt 0.900664 0.639141
vt 0.944207 0.638156
vt 0.806967 0.625133
vt 0.762404 0.631128
vt 0.762559 0.622595
vt 0.806980 0.616926
vt 0.853174 0.629099
vt 0.853031 0.620572
vt 0.715006 0.635229
vt 0.715333 0.626565
vt 0.674763 0.632671
vt 0.675005 0.624342
vt 0.944059 0.632616
vt 0.900446 0.633322
vt 0.900129 0.624660
vt 0.943788 0.624287
vt 0.638193 0.366452
vt 0.647945 0.421227
vt 0.638162 0.420841
vt 0.626158 0.367890
vt 0.385648 0.434013
vt 0.388946 0.382768
vt 0.403086 0.381578
vt 0.395279 0.434851
vt 0.376174 0.294248
vt 0.331833 0.278043
vt 0.333124 0.274636
vt 0.386655 0.285689
vt 0.238607 0.567594
vt 0.250314 0.567390
vt 0.255675 0.593192
vt 0.243846 0.593132
vt 0.250678 0.643585
vt 0.238918 0.643305
vt 0.237458 0.694205
vt 0.225439 0.691447
vt 0.214752 0.732653
vt 0.204227 0.727789
vt 0.193403 0.763463
vt 0.183619 0.758181
vt 0.255958 0.699770
vt 0.227427 0.735412
vt 0.183619 0.459920
vt 0.192815 0.454431
vt 0.216598 0.499001
vt 0.205231 0.502781
vt 0.244284 0.540358
vt 0.232329 0.541750
vt 0.267145 0.531042
vt 0.271774 0.561867
vt 0.231146 0.490673
vt 0.277357 0.593040
vt 0.278995 0.646469
vt 0.203435 0.771162
vt 0.203032 0.446366
vt 0.278411 0.717628
vt 0.242309 0.750797
vt 0.301295 0.593719
vt 0.310102 0.650745
vt 0.250016 0.478348
vt 0.304707 0.522403
vt 0.214979 0.781807
vt 0.302916 0.558285
vt 0.213990 0.434368
vt 0.792342 0.026721
vt 0.786180 0.007018
vt 0.845595 0.002905
vt 0.846115 0.012719
vt 0.887918 0.005817
vt 0.888126 0.011254
vt 0.846644 0.022538
vt 0.829048 0.312318
vt 0.839429 0.295657
vt 0.888126 0.325743
vt 0.887059 0.331094
vt 0.761388 0.061197
vt 0.748234 0.012894
vt 0.629881 0.156186
vt 0.682314 0.159942
vt 0.682322 0.218984
vt 0.629083 0.223441
vt 0.726033 0.291098
vt 0.786101 0.288733
vt 0.784968 0.331089
vt 0.725090 0.332017
vt 0.378840 0.163178
vt 0.430574 0.227042
vt 0.381236 0.229298
vt 0.564657 0.151171
vt 0.588310 0.153806
vt 0.594627 0.222108
vt 0.561426 0.222170
vt 0.226238 0.235235
vt 0.227093 0.212441
vt 0.266312 0.202105
vt 0.270552 0.223436
vt 0.315361 0.213272
vt 0.314174 0.223828
vt 0.059191 0.219514
vt 0.055665 0.229666
vt 0.021475 0.222185
vt 0.025141 0.212147
vt 0.094317 0.229139
vt 0.093282 0.239914
vt 0.133709 0.233998
vt 0.132219 0.245414
vt 0.178217 0.233166
vt 0.180557 0.244778
vt 0.212649 0.004123
vt 0.179000 0.221384
vt 0.180226 0.005032
vt 0.136357 0.222294
vt 0.151128 0.005523
vt 0.095238 0.217026
vt 0.115006 0.005217
vt 0.059655 0.208815
vt 0.093390 0.004741
vt 0.025369 0.201504
vt 0.064883 0.000384
vt 0.274906 0.000384
vt 0.312934 0.202063
vt 0.237311 0.004665
vt 0.203190 0.239976
vt 0.054065 0.884406
vt 0.062092 0.921356
vt 0.051916 0.926522
vt 0.042698 0.880579
vt 0.107015 0.797038
vt 0.091061 0.821408
vt 0.083518 0.816968
vt 0.099468 0.792109
vt 0.078011 0.937458
vt 0.070007 0.948221
vt 0.079762 0.837633
vt 0.072204 0.833484
vt 0.068011 0.860717
vt 0.058146 0.856114
vt 0.066716 0.860019
vt 0.107015 0.947070
vt 0.103577 0.958151
vt 0.063087 0.829020
vt 0.075343 0.810554
vt 0.100645 0.968469
vt 0.018531 0.957711
vt 0.004901 0.941290
vt 0.000384 0.907655
vt 0.049330 0.849364
vt 0.091796 0.786672
vt 0.935920 0.052123
vt 0.941983 0.081451
vt 0.924470 0.084639
vt 0.918966 0.059049
vt 0.902353 0.000384
vt 0.925107 0.027377
vt 0.907929 0.034684
vt 0.888893 0.012920
vt 0.941162 0.195661
vt 0.934271 0.219542
vt 0.915668 0.212357
vt 0.920299 0.191435
vt 0.948619 0.155245
vt 0.927425 0.155668
vt 0.904960 0.285837
vt 0.888893 0.276881
vt 0.888893 0.370329
vt 0.952771 0.366838
vt 0.934084 0.388903
vt 0.907336 0.388903
vt 0.891714 0.299295
vt 0.944365 0.297486
vt 0.925905 0.286604
vt 0.490687 0.819780
vt 0.490154 0.804211
vt 0.495621 0.804229
vt 0.496154 0.819798
vt 0.490778 0.839700
vt 0.496245 0.839718
vt 0.824060 0.328605
vt 0.558438 0.000384
vt 0.580803 0.000599
vt 0.367838 0.002588
vt 0.619933 0.000633
vt 0.693591 0.000384
vt 0.772581 0.114126
vt 0.784177 0.173266
vt 0.723992 0.178438
vt 0.712987 0.115306
vt 0.785712 0.209835
vt 0.787256 0.246404
vt 0.726979 0.250181
vt 0.725491 0.214310
vt 0.703231 0.066979
vt 0.713162 0.781458
vt 0.703489 0.800851
vt 0.663926 0.790448
vt 0.665690 0.769259
vt 0.860700 0.983912
vt 0.868496 0.922129
vt 0.887256 0.921806
vt 0.876801 0.985548
vt 0.203568 0.784320
vt 0.201609 0.838182
vt 0.183619 0.838599
vt 0.187190 0.782574
vt 0.871049 0.835951
vt 0.857282 0.774011
vt 0.873098 0.769259
vt 0.890084 0.834635
vt 0.203107 0.925380
vt 0.208744 0.979422
vt 0.192620 0.980478
vt 0.185134 0.927291
vt 0.110110 0.865537
vt 0.110482 0.835245
vt 0.553133 0.392583
vt 0.554812 0.363492
vt 0.594114 0.370523
vt 0.574572 0.404884
vt 0.119440 0.806938
vt 0.129338 0.786672
vt 0.522504 0.389943
vt 0.519811 0.364671
vt 0.139197 0.948915
vt 0.117766 0.922242
vt 0.155304 0.938233
vt 0.694358 0.023366
vt 0.505792 0.002192
vt 0.512108 0.155298
vt 0.490620 0.873728
vt 0.491726 0.862940
vt 0.497193 0.862958
vt 0.496087 0.873746
vt 0.514337 0.223635
vt 0.801962 0.046280
vt 0.885991 0.336441
vt 0.887723 0.000384
vt 0.164827 0.920883
vt 0.172088 0.908969
vt 0.432101 0.287248
vt 0.450081 0.439460
vt 0.421586 0.437734
vt 0.431880 0.398974
vt 0.460838 0.412345
vt 0.558492 0.270780
vt 0.515373 0.271716
vt 0.802048 0.978405
vt 0.800941 0.923233
vt 0.808841 0.923103
vt 0.808922 0.979045
vt 0.489422 0.887616
vt 0.494888 0.887634
vt 0.320356 0.786248
vt 0.489422 0.790484
vt 0.494888 0.790502
vt 0.431437 0.915666
vt 0.397790 0.939045
vt 0.399177 0.865117
vt 0.443820 0.864755
vt 0.320356 0.790337
vt 0.400391 0.798098
vt 0.320369 0.865255
vt 0.733266 0.969839
vt 0.326250 0.004827
vt 0.340276 0.164287
vt 0.338712 0.223633
vt 0.182852 0.438689
vt 0.000384 0.434551
vt 0.320356 0.953371
vt 0.427885 0.805688
vt 0.109131 0.897550
vt 0.107782 0.869242
vt 0.646466 0.282604
vt 0.631537 0.274907
vt 0.688433 0.257154
vt 0.690063 0.260398
vt 0.297726 0.847764
vt 0.275457 0.897629
vt 0.275457 0.782574
vt 0.286609 0.814351
vt 0.627769 0.219566
vt 0.679269 0.206924
vt 0.597558 0.275442
vt 0.594529 0.221453
vt 0.259117 0.837809
vt 0.259008 0.924786
vt 0.260560 0.976279
vt 0.810699 0.840517
vt 0.806513 0.788592
vt 0.256052 0.789501
vt 0.485334 0.399441
vt 0.474372 0.369035
vt 0.505025 0.367198
vt 0.504962 0.398993
vt 0.440373 0.354723
vt 0.443236 0.379996
vt 0.475050 0.344018
vt 0.504974 0.344372
vt 0.612307 0.424525
vt 0.584118 0.429722
vt 0.266707 0.837758
vt 0.266413 0.924720
vt 0.263041 0.789983
vt 0.802713 0.841122
vt 0.799749 0.790449
vt 0.267444 0.975870
vt 0.792628 0.923369
vt 0.794309 0.841764
vt 0.794810 0.977736
vt 0.270397 0.790461
vt 0.274690 0.837717
vt 0.792628 0.792390
vt 0.274204 0.924652
vt 0.274690 0.975441
vt 0.235373 0.421669
vt 0.208618 0.427639
vt 0.276076 0.402004
vt 0.325483 0.401691
vt 0.037255 0.404532
vt 0.000384 0.396279
vt 0.079569 0.415300
vt 0.128789 0.427943
vt 0.181844 0.433601
vt 0.458380 0.862830
vt 0.457432 0.839590
vt 0.456807 0.804101
vt 0.456075 0.790374
vt 0.456075 0.887507
vt 0.457274 0.873618
vt 0.457340 0.819670
vt 0.445852 0.819633
vt 0.445319 0.804063
vt 0.450905 0.804082
vt 0.451438 0.819651
vt 0.445943 0.839552
vt 0.451529 0.839571
vt 0.445786 0.873580
vt 0.446892 0.862792
vt 0.452478 0.862810
vt 0.451372 0.873599
vt 0.444587 0.887469
vt 0.450173 0.887487
vt 0.444587 0.790337
vt 0.450173 0.790355
s 0
usemtl m_racc
f 11/1/1 9/2/1 214/3/1 12/4/1
f 7/5/2 10/6/2 213/7/2 2/8/2
f 210/9/3 211/10/3 7/5/3 8/11/3
f 212/12/4 13/13/4 11/1/4 6/14/4
f 15/15/5 210/16/5 8/17/5 9/2/5
f 14/18/6 215/19/6 5/20/6 10/6/6
f 9/2/7 8/17/7 1/21/7 214/3/7
f 211/10/8 14/18/8 10/6/8 7/5/8
f 13/13/9 15/15/9 9/2/9 11/1/9
f 201/22/10 199/23/10 30/24/10 29/25/10
f 199/23/11 200/26/11 32/27/11 30/24/11
f 194/28/12 197/29/12 240/30/12 242/31/12
f 190/32/13 239/33/13 244/34/13 231/35/13
f 16/36/14 28/37/14 236/38/14 216/39/14
f 252/40/15 196/41/15 239/42/15 253/43/15
f 231/35/16 244/34/16 241/44/16 193/45/16
f 195/46/17 232/47/17 245/48/17 243/49/17
f 203/50/18 204/51/18 31/52/18 33/53/18
f 204/51/19 201/22/19 29/25/19 31/52/19
f 200/26/20 202/54/20 34/55/20 32/27/20
f 30/56/21 32/57/21 38/58/21 36/59/21
f 33/60/22 31/61/22 37/62/22 39/63/22
f 31/61/23 29/64/23 35/65/23 37/62/23
f 32/66/24 34/67/24 40/68/24 38/69/24
f 29/64/25 30/56/25 36/59/25 35/65/25
f 206/70/26 205/71/26 49/72/26 50/73/26
f 235/74/27 207/75/27 46/76/27 220/77/27
f 234/78/28 206/70/28 50/73/28 221/79/28
f 205/80/29 208/81/29 48/82/29 49/72/29
f 221/79/30 50/73/30 55/83/30 223/84/30
f 49/72/31 48/82/31 53/85/31 54/86/31
f 50/73/32 49/72/32 54/86/32 55/83/32
f 220/77/33 46/76/33 51/87/33 222/88/33
f 301/89/34 298/90/34 61/91/34 59/92/34
f 302/93/35 301/94/35 59/95/35 57/96/35
f 303/97/36 302/93/36 57/96/36 56/98/36
f 299/99/37 300/100/37 58/101/37 60/102/37
f 300/100/38 303/97/38 56/98/38 58/101/38
f 56/98/39 57/96/39 63/103/39 62/104/39
f 60/102/40 58/101/40 64/105/40 66/106/40
f 58/101/41 56/98/41 62/104/41 64/105/41
f 59/92/42 61/91/42 67/107/42 65/108/42
f 57/96/43 59/95/43 65/109/43 63/103/43
f 304/110/44 305/111/44 73/112/44 71/113/44
f 306/114/45 304/115/45 71/116/45 69/117/45
f 307/118/39 306/114/39 69/117/39 68/119/39
f 308/120/40 309/121/40 70/122/40 72/123/40
f 309/121/41 307/118/41 68/119/41 70/122/41
f 72/124/46 70/125/46 76/126/46 78/127/46
f 70/125/47 68/128/47 74/129/47 76/126/47
f 71/130/48 73/131/48 79/132/48 77/133/48
f 69/134/49 71/135/49 77/136/49 75/137/49
f 68/128/50 69/134/50 75/137/50 74/129/50
f 77/133/51 79/132/51 85/138/51 83/139/51
f 75/137/52 77/136/52 83/140/52 81/141/52
f 74/129/53 75/137/53 81/141/53 80/142/53
f 78/127/54 76/126/54 82/143/54 84/144/54
f 76/126/55 74/129/55 80/142/55 82/143/55
f 84/144/56 82/143/56 88/145/56 90/146/56
f 82/143/57 80/142/57 86/147/57 88/145/57
f 83/139/58 85/138/58 91/148/58 89/149/58
f 81/141/59 83/140/59 89/150/59 87/151/59
f 80/142/60 81/141/60 87/151/60 86/147/60
f 86/152/61 87/153/61 89/154/61 88/155/61
f 37/62/62 35/65/62 95/156/62 97/157/62
f 88/155/63 89/154/63 91/158/63 90/159/63
f 39/63/64 37/62/64 97/157/64 96/160/64
f 35/65/65 36/59/65 94/161/65 95/156/65
f 36/59/66 38/58/66 93/162/66 94/161/66
f 38/69/67 40/68/67 92/163/67 93/164/67
f 187/165/68 184/166/68 103/167/68 100/168/68
f 186/169/69 187/165/69 100/168/69 99/170/69
f 184/166/70 183/171/70 102/172/70 103/167/70
f 183/171/71 182/173/71 101/174/71 102/172/71
f 182/175/72 185/176/72 98/177/72 101/178/72
f 22/179/73 20/180/73 107/181/73 108/182/73
f 20/183/74 18/184/74 104/185/74 107/186/74
f 17/187/75 19/188/75 106/189/75 105/190/75
f 18/184/76 17/187/76 105/190/76 104/185/76
f 297/191/77 247/192/77 112/193/77 295/194/77
f 295/194/78 112/193/78 114/195/78 294/196/78
f 294/196/79 114/195/79 116/197/79 293/198/79
f 293/198/80 116/197/80 118/199/80 291/200/80
f 291/200/81 118/199/81 120/201/81 292/202/81
f 118/199/82 116/197/82 126/203/82 127/204/82
f 292/205/83 120/206/83 122/207/83 296/208/83
f 296/208/84 122/207/84 110/209/84 290/210/84
f 247/192/85 110/209/85 123/211/85 248/212/85
f 110/209/86 122/207/86 129/213/86 123/211/86
f 114/195/87 112/193/87 124/214/87 125/215/87
f 120/201/88 118/199/88 127/204/88 128/216/88
f 116/197/89 114/195/89 125/215/89 126/203/89
f 122/207/90 120/206/90 128/217/90 129/213/90
f 127/204/91 126/203/91 133/218/91 134/219/91
f 125/215/92 124/214/92 131/220/92 132/221/92
f 123/211/93 129/213/93 136/222/93 130/223/93
f 128/216/94 127/204/94 134/219/94 135/224/94
f 126/203/95 125/215/95 132/221/95 133/218/95
f 248/212/96 123/211/96 130/223/96 249/225/96
f 129/213/97 128/217/97 135/226/97 136/222/97
f 226/227/98 139/228/98 138/229/98 225/230/98
f 225/230/99 224/231/99 135/232/99 134/233/99
f 227/234/100 136/235/100 135/236/100 224/237/100
f 228/238/101 141/239/101 139/228/101 226/227/101
f 189/240/102 191/241/102 25/242/102 26/243/102
f 233/244/103 229/245/103 188/246/103 198/247/103
f 251/248/104 190/32/104 24/249/104 246/250/104
f 230/251/105 282/252/105 281/253/105 217/254/105
f 146/255/106 155/256/106 154/257/106 148/258/106
f 148/258/107 161/259/107 147/260/107
f 160/261/108 145/262/108 147/263/108 161/264/108
f 159/265/109 144/266/109 145/262/109 160/261/109
f 158/267/110 143/268/110 144/266/110 159/265/110
f 157/269/111 142/270/111 143/268/111 158/267/111
f 154/257/112 161/259/112 148/258/112
f 109/271/113 155/256/113 149/272/113 111/273/113
f 111/273/114 149/272/114 150/274/114 113/275/114
f 113/275/115 150/274/115 151/276/115 115/277/115
f 115/277/116 151/276/116 152/278/116 117/279/116
f 117/279/117 152/278/117 153/280/117 119/281/117
f 119/282/118 153/283/118 154/257/118 121/284/118
f 121/284/119 154/257/119 155/256/119 109/271/119
f 142/270/120 157/269/120 146/255/120 250/285/120
f 149/272/121 157/269/121 158/267/121 150/274/121
f 150/274/122 158/267/122 159/265/122 151/276/122
f 151/276/123 159/265/123 160/261/123 152/278/123
f 152/278/124 160/261/124 161/264/124 153/280/124
f 153/283/125 161/259/125 154/257/125
f 149/272/126 155/256/126 157/269/126
f 155/256/127 146/255/127 157/269/127
f 113/286/128 115/287/128 164/288/128 163/289/128
f 119/290/129 121/291/129 167/292/129 166/293/129
f 115/287/130 117/294/130 165/295/130 164/288/130
f 121/291/131 109/296/131 162/297/131 167/292/131
f 111/298/132 113/286/132 163/289/132 156/299/132
f 109/296/133 111/300/133 156/299/133 162/297/133
f 117/294/134 119/301/134 166/302/134 165/295/134
f 167/292/135 162/297/135 169/303/135 174/304/135
f 165/295/136 166/302/136 173/305/136 172/306/136
f 163/289/137 164/288/137 171/307/137 170/308/137
f 162/297/138 156/299/138 168/309/138 169/303/138
f 156/299/139 163/289/139 170/308/139 168/309/139
f 166/293/140 167/292/140 174/304/140 173/310/140
f 164/288/141 165/295/141 172/306/141 171/307/141
f 169/311/142 168/312/142 175/313/142 176/314/142
f 173/315/143 174/316/143 181/317/143 180/318/143
f 171/319/144 172/320/144 179/321/144 178/322/144
f 168/312/145 170/323/145 177/324/145 175/313/145
f 174/316/146 169/311/146 176/314/146 181/317/146
f 172/320/147 173/325/147 180/326/147 179/321/147
f 170/323/148 171/319/148 178/322/148 177/324/148
f 175/327/149 180/328/149 181/329/149 176/330/149
f 180/328/149 175/327/149 177/331/149 179/332/149
f 179/332/149 177/331/149 178/333/149
f 93/164/150 92/163/150 185/176/150 182/175/150
f 94/161/151 93/162/151 182/173/151 183/171/151
f 95/156/152 94/161/152 183/171/152 184/166/152
f 96/160/153 97/157/153 187/165/153 186/169/153
f 97/157/154 95/156/154 184/166/154 187/165/154
f 310/334/2 313/335/2 14/336/2 211/337/2
f 316/338/155 310/334/155 211/337/155 210/339/155
f 229/245/156 227/234/156 140/340/156 188/246/156
f 245/341/157 279/342/157 282/252/157 230/251/157
f 253/343/158 239/33/158 190/32/158 251/248/158
f 216/39/159 231/35/159 193/45/159 16/36/159
f 242/344/160 240/345/160 191/241/160 189/240/160
f 132/346/161 131/347/161 197/348/161 194/349/161
f 249/350/162 130/351/162 196/352/162 252/353/162
f 228/238/163 132/346/163 194/349/163 232/354/163
f 244/355/164 233/356/164 198/357/164 241/358/164
f 260/359/165 259/360/165 202/361/165 200/362/165
f 262/363/166 258/364/166 201/365/166 204/366/166
f 261/367/167 262/368/167 204/369/167 203/370/167
f 257/371/168 260/372/168 200/373/168 199/374/168
f 258/364/169 257/371/169 199/374/169 201/365/169
f 44/375/170 43/376/170 208/81/170 205/80/170
f 219/377/171 266/378/171 269/379/171 45/380/171
f 218/381/172 41/382/172 207/75/172 235/74/172
f 219/377/173 42/383/173 272/384/173 266/378/173
f 43/376/174 218/381/174 235/74/174 208/81/174
f 42/385/175 219/386/175 234/78/175 209/387/175
f 239/42/176 196/41/176 233/356/176 244/355/176
f 141/239/177 228/238/177 232/354/177 195/388/177
f 24/249/178 190/32/178 231/35/178 216/39/178
f 243/389/179 245/341/179 230/251/179 192/390/179
f 130/351/180 136/235/180 227/234/180 229/245/180
f 312/391/1 315/392/1 15/393/1 13/394/1
f 192/390/181 230/251/181 217/254/181 23/395/181
f 196/352/182 130/351/182 229/245/182 233/244/182
f 132/346/183 228/238/183 226/227/183 133/396/183
f 140/340/184 227/234/184 224/237/184 137/397/184
f 138/229/185 137/398/185 224/231/185 225/230/185
f 133/396/186 226/227/186 225/230/186 134/233/186
f 48/82/187 220/77/187 222/88/187 53/85/187
f 47/399/188 221/79/188 223/84/188 52/400/188
f 209/387/189 234/78/189 221/79/189 47/399/189
f 208/81/190 235/74/190 220/77/190 48/82/190
f 216/39/191 236/38/191 27/401/191 24/249/191
f 44/402/192 268/403/192 273/404/192 43/405/192
f 217/254/193 238/406/193 237/407/193 23/395/193
f 286/408/194 285/409/194 289/410/194 276/411/194
f 311/412/195 312/391/195 13/394/195 212/413/195
f 6/14/196 11/1/196 12/4/196 3/414/196
f 313/335/197 314/415/197 215/416/197 14/336/197
f 315/392/7 316/338/7 210/339/7 15/393/7
f 2/417/198 213/418/198 255/419/198 1/420/198
f 3/421/199 12/422/199 255/419/199 254/423/199
f 232/47/200 194/28/200 242/31/200 279/424/200 245/48/200
f 131/347/201 249/350/201 252/353/201 197/348/201
f 240/425/202 253/343/202 251/248/202 191/426/202
f 191/426/203 251/248/203 246/250/203 25/427/203
f 124/214/204 248/212/204 249/225/204 131/220/204
f 112/193/205 247/192/205 248/212/205 124/214/205
f 290/210/206 110/209/206 247/192/206 297/191/206
f 197/29/207 252/40/207 253/43/207 240/30/207
f 246/250/208 105/190/208 106/189/208 25/427/208
f 27/401/209 105/190/209 246/250/209 24/249/209
f 8/11/155 7/5/155 2/8/155 1/428/155
f 10/6/210 5/20/210 4/429/210 213/7/210
f 254/423/211 255/419/211 213/418/211 4/430/211
f 1/420/212 255/419/212 12/422/212 214/431/212
f 45/432/213 44/433/213 205/71/213 206/70/213
f 21/434/214 256/435/214 106/436/214 19/437/214
f 108/182/215 256/435/215 21/434/215 22/179/215
f 26/438/216 25/439/216 217/440/216 281/441/216
f 26/442/217 25/443/217 106/436/217 256/435/217
f 256/435/218 280/444/218 281/445/218 26/442/218
f 274/446/219 277/447/219 257/371/219 258/364/219
f 277/447/220 276/448/220 260/372/220 257/371/220
f 278/449/221 275/450/221 262/368/221 261/367/221
f 275/451/222 274/446/222 258/364/222 262/363/222
f 276/411/223 289/410/223 259/360/223 260/359/223
f 218/452/224 270/453/224 271/454/224 41/455/224
f 104/185/225 264/456/225 267/457/225 273/404/225
f 108/182/226 269/379/226 280/444/226 256/435/226
f 289/410/227 278/449/227 261/367/227 259/360/227
f 237/407/228 238/406/228 266/378/228 272/384/228
f 264/456/229 265/458/229 270/453/229 267/457/229
f 263/459/230 265/458/230 236/38/230 28/37/230
f 264/456/231 104/185/231 105/190/231 27/401/231
f 45/380/232 269/379/232 268/460/232 44/461/232
f 268/460/233 269/379/233 108/182/233 107/181/233
f 219/386/234 45/432/234 206/70/234 234/78/234
f 273/404/235 268/403/235 107/186/235 104/185/235
f 271/454/236 270/453/236 265/458/236 263/459/236
f 267/457/237 270/453/237 218/452/237 43/405/237
f 273/404/238 267/457/238 43/405/238
f 284/462/239 283/463/239 277/447/239 274/446/239
f 259/360/240 261/367/240 203/370/240 202/361/240
f 92/163/241 96/160/241 186/169/241 185/176/241
f 185/176/242 186/169/242 99/170/242 98/177/242
f 40/68/243 39/63/243 96/160/243 92/163/243
f 85/138/244 84/144/244 90/146/244 91/148/244
f 79/132/245 78/127/245 84/144/245 85/138/245
f 73/131/246 72/124/246 78/127/246 79/132/246
f 305/111/247 308/120/247 72/123/247 73/112/247
f 61/91/247 60/102/247 66/106/247 67/107/247
f 298/90/248 299/99/248 60/102/248 61/91/248
f 34/67/249 33/60/249 39/63/249 40/68/249
f 202/54/250 203/50/250 33/53/250 34/55/250
f 281/445/251 280/444/251 238/406/251 217/254/251
f 27/401/252 236/38/252 265/458/252 264/456/252
f 288/464/253 284/462/253 274/446/253 275/451/253
f 285/409/254 287/465/254 278/449/254 289/410/254
f 280/444/255 269/379/255 266/378/255 238/406/255
f 281/253/256 282/252/256 189/240/256 26/243/256
f 282/252/257 279/342/257 242/344/257 189/240/257
f 287/465/258 288/466/258 275/450/258 278/449/258
f 283/463/259 286/467/259 276/448/259 277/447/259
f 22/468/260 21/469/260 287/465/260 285/409/260
f 20/470/261 22/468/261 285/409/261 286/408/261
f 19/471/262 17/472/262 284/462/262 288/464/262
f 21/469/263 19/473/263 288/466/263 287/465/263
f 18/474/264 20/475/264 286/467/264 283/463/264
f 17/472/265 18/474/265 283/463/265 284/462/265
f 146/255/266 290/476/266 297/477/266 250/285/266
f 148/258/267 296/478/267 290/476/267 146/255/267
f 147/260/268 292/479/268 296/478/268 148/258/268
f 145/262/269 291/480/269 292/481/269 147/263/269
f 144/266/270 293/482/270 291/480/270 145/262/270
f 143/268/271 294/483/271 293/482/271 144/266/271
f 142/270/272 295/484/272 294/483/272 143/268/272
f 250/285/273 297/477/273 295/484/273 142/270/273
f 98/177/248 99/170/248 299/99/248 298/90/248
f 100/168/274 103/167/274 303/97/274 300/100/274
f 99/170/275 100/168/275 300/100/275 299/99/275
f 103/167/276 102/172/276 302/93/276 303/97/276
f 102/172/277 101/174/277 301/94/277 302/93/277
f 101/178/278 98/177/278 298/90/278 301/89/278
f 67/107/247 66/106/247 308/120/247 305/111/247
f 64/105/41 62/104/41 307/118/41 309/121/41
f 66/106/40 64/105/40 309/121/40 308/120/40
f 62/104/39 63/103/39 306/114/39 307/118/39
f 63/103/43 65/109/43 304/115/43 306/114/43
f 65/108/42 67/107/42 305/111/42 304/110/42
f 330/485/7 327/486/7 316/338/7 315/392/7
f 329/487/197 326/488/197 314/415/197 313/335/197
f 328/489/195 325/490/195 312/391/195 311/412/195
f 325/490/1 330/485/1 315/392/1 312/391/1
f 327/486/155 324/491/155 310/334/155 316/338/155
f 324/491/2 329/487/2 313/335/2 310/334/2
f 53/492/2 222/493/2 318/494/2 320/495/2
f 54/496/155 53/492/155 320/495/155 323/497/155
f 223/498/1 55/499/1 319/500/1 321/501/1
f 52/502/195 223/498/195 321/501/195 317/503/195
f 222/493/197 51/504/197 322/505/197 318/494/197
f 55/499/7 54/496/7 323/497/7 319/500/7
f 320/495/2 318/494/2 329/487/2 324/491/2
f 323/497/155 320/495/155 324/491/155 327/486/155
f 321/501/1 319/500/1 330/485/1 325/490/1
f 317/503/195 321/501/195 325/490/195 328/489/195
f 318/494/197 322/505/197 326/488/197 329/487/197
f 319/500/7 323/497/7 327/486/7 330/485/7
f 337/1/279 338/4/279 518/3/279 335/2/279
f 333/5/280 332/8/280 517/7/280 336/6/280
f 515/9/281 334/11/281 333/5/281 516/10/281
f 212/12/282 6/14/282 337/1/282 339/13/282
f 341/15/283 335/2/283 334/17/283 515/16/283
f 340/18/284 336/6/284 5/20/284 215/19/284
f 335/2/285 518/3/285 331/21/285 334/17/285
f 516/10/286 333/5/286 336/6/286 340/18/286
f 339/13/287 337/1/287 335/2/287 341/15/287
f 508/22/288 352/25/288 353/24/288 506/23/288
f 506/23/289 353/24/289 355/27/289 507/26/289
f 503/28/290 543/31/290 542/30/290 505/29/290
f 501/32/291 534/35/291 544/34/291 541/33/291
f 16/36/292 519/39/292 539/38/292 28/37/292
f 552/40/293 553/43/293 541/42/293 504/41/293
f 534/35/294 193/45/294 241/44/294 544/34/294
f 195/46/295 243/49/295 545/48/295 535/47/295
f 510/50/296 356/53/296 354/52/296 511/51/296
f 511/51/297 354/52/297 352/25/297 508/22/297
f 507/26/298 355/27/298 357/55/298 509/54/298
f 353/56/299 359/59/299 361/58/299 355/57/299
f 356/60/300 362/63/300 360/62/300 354/61/300
f 354/61/301 360/62/301 358/65/301 352/64/301
f 355/66/302 361/69/302 363/68/302 357/67/302
f 352/64/303 358/65/303 359/59/303 353/56/303
f 513/70/304 369/73/304 368/72/304 512/71/304
f 538/74/305 523/77/305 46/76/305 207/75/305
f 537/78/306 524/79/306 369/73/306 513/70/306
f 512/80/307 368/72/307 367/82/307 514/81/307
f 524/79/308 526/84/308 372/83/308 369/73/308
f 368/72/309 371/86/309 370/85/309 367/82/309
f 369/73/310 372/83/310 371/86/310 368/72/310
f 523/77/311 525/88/311 51/87/311 46/76/311
f 597/89/312 376/92/312 378/91/312 594/90/312
f 598/93/313 374/96/313 376/95/313 597/94/313
f 599/97/314 373/98/314 374/96/314 598/93/314
f 595/99/315 377/102/315 375/101/315 596/100/315
f 596/100/316 375/101/316 373/98/316 599/97/316
f 373/98/317 379/104/317 380/103/317 374/96/317
f 377/102/318 383/106/318 381/105/318 375/101/318
f 375/101/319 381/105/319 379/104/319 373/98/319
f 376/92/320 382/108/320 384/107/320 378/91/320
f 374/96/321 380/103/321 382/109/321 376/95/321
f 600/110/322 388/113/322 390/112/322 601/111/322
f 602/114/323 386/117/323 388/116/323 600/115/323
f 603/118/317 385/119/317 386/117/317 602/114/317
f 604/120/318 389/123/318 387/122/318 605/121/318
f 605/121/319 387/122/319 385/119/319 603/118/319
f 389/124/324 395/127/324 393/126/324 387/125/324
f 387/125/325 393/126/325 391/129/325 385/128/325
f 388/130/326 394/133/326 396/132/326 390/131/326
f 386/134/327 392/137/327 394/136/327 388/135/327
f 385/128/328 391/129/328 392/137/328 386/134/328
f 394/133/329 400/139/329 402/138/329 396/132/329
f 392/137/330 398/141/330 400/140/330 394/136/330
f 391/129/331 397/142/331 398/141/331 392/137/331
f 395/127/332 401/144/332 399/143/332 393/126/332
f 393/126/333 399/143/333 397/142/333 391/129/333
f 401/144/334 407/146/334 405/145/334 399/143/334
f 399/143/335 405/145/335 403/147/335 397/142/335
f 400/139/336 406/149/336 408/148/336 402/138/336
f 398/141/337 404/151/337 406/150/337 400/140/337
f 397/142/338 403/147/338 404/151/338 398/141/338
f 403/152/339 405/155/339 406/154/339 404/153/339
f 360/62/340 414/157/340 412/156/340 358/65/340
f 405/155/341 407/159/341 408/158/341 406/154/341
f 362/63/342 413/160/342 414/157/342 360/62/342
f 358/65/343 412/156/343 411/161/343 359/59/343
f 359/59/344 411/161/344 410/162/344 361/58/344
f 361/69/345 410/164/345 409/163/345 363/68/345
f 499/165/346 417/168/346 420/167/346 496/166/346
f 498/169/347 416/170/347 417/168/347 499/165/347
f 496/166/348 420/167/348 419/172/348 495/171/348
f 495/171/349 419/172/349 418/174/349 494/173/349
f 494/175/350 418/178/350 415/177/350 497/176/350
f 347/179/351 425/182/351 424/181/351 345/180/351
f 345/183/352 424/186/352 421/185/352 343/184/352
f 342/187/353 422/190/353 423/189/353 344/188/353
f 343/184/354 421/185/354 422/190/354 342/187/354
f 593/191/355 591/194/355 429/193/355 547/192/355
f 591/194/356 590/196/356 431/195/356 429/193/356
f 590/196/357 589/198/357 433/197/357 431/195/357
f 589/198/358 587/200/358 435/199/358 433/197/358
f 587/200/359 588/202/359 437/201/359 435/199/359
f 435/199/360 444/204/360 443/203/360 433/197/360
f 588/205/361 592/208/361 439/207/361 437/206/361
f 592/208/362 586/210/362 427/209/362 439/207/362
f 547/192/363 548/212/363 440/211/363 427/209/363
f 427/209/364 440/211/364 446/213/364 439/207/364
f 431/195/365 442/215/365 441/214/365 429/193/365
f 437/201/366 445/216/366 444/204/366 435/199/366
f 433/197/367 443/203/367 442/215/367 431/195/367
f 439/207/368 446/213/368 445/217/368 437/206/368
f 444/204/369 451/219/369 450/218/369 443/203/369
f 442/215/370 449/221/370 448/220/370 441/214/370
f 440/211/371 447/223/371 453/222/371 446/213/371
f 445/216/372 452/224/372 451/219/372 444/204/372
f 443/203/373 450/218/373 449/221/373 442/215/373
f 548/212/374 549/225/374 447/223/374 440/211/374
f 446/213/375 453/222/375 452/226/375 445/217/375
f 529/227/376 528/230/376 138/229/376 139/228/376
f 528/230/377 451/233/377 452/232/377 527/231/377
f 530/234/378 527/237/378 452/236/378 453/235/378
f 531/238/379 529/227/379 139/228/379 141/239/379
f 500/240/380 350/243/380 349/242/380 502/241/380
f 536/244/381 198/247/381 188/246/381 532/245/381
f 551/248/382 546/250/382 348/249/382 501/32/382
f 533/251/383 520/254/383 577/253/383 578/252/383
f 458/255/384 460/258/384 466/257/384 467/256/384
f 460/258/385 459/260/385 473/259/385
f 472/261/386 473/264/386 459/263/386 457/262/386
f 471/265/387 472/261/387 457/262/387 456/266/387
f 470/267/388 471/265/388 456/266/388 455/268/388
f 469/269/389 470/267/389 455/268/389 454/270/389
f 466/257/390 460/258/390 473/259/390
f 426/271/391 428/273/391 461/272/391 467/256/391
f 428/273/392 430/275/392 462/274/392 461/272/392
f 430/275/393 432/277/393 463/276/393 462/274/393
f 432/277/394 434/279/394 464/278/394 463/276/394
f 434/279/395 436/281/395 465/280/395 464/278/395
f 436/282/396 438/284/396 466/257/396 465/283/396
f 438/284/397 426/271/397 467/256/397 466/257/397
f 454/270/398 550/285/398 458/255/398 469/269/398
f 461/272/399 462/274/399 470/267/399 469/269/399
f 462/274/400 463/276/400 471/265/400 470/267/400
f 463/276/401 464/278/401 472/261/401 471/265/401
f 464/278/402 465/280/402 473/264/402 472/261/402
f 465/283/403 466/257/403 473/259/403
f 461/272/404 469/269/404 467/256/404
f 467/256/405 469/269/405 458/255/405
f 430/286/406 475/289/406 476/288/406 432/287/406
f 436/290/407 478/293/407 479/292/407 438/291/407
f 432/287/408 476/288/408 477/295/408 434/294/408
f 438/291/409 479/292/409 474/297/409 426/296/409
f 428/298/410 468/299/410 475/289/410 430/286/410
f 426/296/411 474/297/411 468/299/411 428/300/411
f 434/294/412 477/295/412 478/302/412 436/301/412
f 479/292/413 486/304/413 481/303/413 474/297/413
f 477/295/414 484/306/414 485/305/414 478/302/414
f 475/289/415 482/308/415 483/307/415 476/288/415
f 474/297/416 481/303/416 480/309/416 468/299/416
f 468/299/417 480/309/417 482/308/417 475/289/417
f 478/293/418 485/310/418 486/304/418 479/292/418
f 476/288/419 483/307/419 484/306/419 477/295/419
f 481/311/420 488/314/420 487/313/420 480/312/420
f 485/315/421 492/318/421 493/317/421 486/316/421
f 483/319/422 490/322/422 491/321/422 484/320/422
f 480/312/423 487/313/423 489/324/423 482/323/423
f 486/316/424 493/317/424 488/314/424 481/311/424
f 484/320/425 491/321/425 492/326/425 485/325/425
f 482/323/426 489/324/426 490/322/426 483/319/426
f 487/327/149 488/330/149 493/329/149 492/328/149
f 492/328/149 491/332/149 489/331/149 487/327/149
f 491/332/149 490/333/149 489/331/149
f 410/164/427 494/175/427 497/176/427 409/163/427
f 411/161/428 495/171/428 494/173/428 410/162/428
f 412/156/429 496/166/429 495/171/429 411/161/429
f 413/160/430 498/169/430 499/165/430 414/157/430
f 414/157/431 499/165/431 496/166/431 412/156/431
f 606/334/280 516/337/280 340/336/280 608/335/280
f 610/338/432 515/339/432 516/337/432 606/334/432
f 532/245/433 188/246/433 140/340/433 530/234/433
f 545/341/434 533/251/434 578/252/434 575/342/434
f 553/343/435 551/248/435 501/32/435 541/33/435
f 519/39/436 16/36/436 193/45/436 534/35/436
f 543/344/437 500/240/437 502/241/437 542/345/437
f 449/346/438 503/349/438 505/348/438 448/347/438
f 549/350/439 552/353/439 504/352/439 447/351/439
f 531/238/440 535/354/440 503/349/440 449/346/440
f 544/355/441 241/358/441 198/357/441 536/356/441
f 559/359/442 507/362/442 509/361/442 558/360/442
f 561/363/443 511/366/443 508/365/443 557/364/443
f 560/367/444 510/370/444 511/369/444 561/368/444
f 556/371/445 506/374/445 507/373/445 559/372/445
f 557/364/446 508/365/446 506/374/446 556/371/446
f 365/375/447 512/80/447 514/81/447 364/376/447
f 522/377/448 366/380/448 567/379/448 564/378/448
f 521/381/449 538/74/449 207/75/449 41/382/449
f 522/377/450 564/378/450 272/384/450 42/383/450
f 364/376/451 514/81/451 538/74/451 521/381/451
f 42/385/452 209/387/452 537/78/452 522/386/452
f 541/42/453 544/355/453 536/356/453 504/41/453
f 141/239/454 195/388/454 535/354/454 531/238/454
f 348/249/455 519/39/455 534/35/455 501/32/455
f 243/389/456 192/390/456 533/251/456 545/341/456
f 447/351/457 532/245/457 530/234/457 453/235/457
f 607/391/279 339/394/279 341/393/279 609/392/279
f 192/390/458 23/395/458 520/254/458 533/251/458
f 504/352/459 536/244/459 532/245/459 447/351/459
f 449/346/460 450/396/460 529/227/460 531/238/460
f 140/340/461 137/397/461 527/237/461 530/234/461
f 138/229/462 528/230/462 527/231/462 137/398/462
f 450/396/463 451/233/463 528/230/463 529/227/463
f 367/82/464 370/85/464 525/88/464 523/77/464
f 47/399/465 52/400/465 526/84/465 524/79/465
f 209/387/466 47/399/466 524/79/466 537/78/466
f 514/81/467 367/82/467 523/77/467 538/74/467
f 519/39/468 348/249/468 351/401/468 539/38/468
f 365/402/469 364/405/469 569/404/469 566/403/469
f 520/254/470 23/395/470 237/407/470 540/406/470
f 582/408/471 572/411/471 585/410/471 581/409/471
f 311/412/472 212/413/472 339/394/472 607/391/472
f 6/14/473 3/414/473 338/4/473 337/1/473
f 608/335/474 340/336/474 215/416/474 314/415/474
f 609/392/285 341/393/285 515/339/285 610/338/285
f 332/417/475 331/420/475 554/419/475 517/418/475
f 3/421/476 254/423/476 554/419/476 338/422/476
f 535/47/477 545/48/477 575/424/477 543/31/477 503/28/477
f 448/347/478 505/348/478 552/353/478 549/350/478
f 542/425/479 502/426/479 551/248/479 553/343/479
f 502/426/480 349/427/480 546/250/480 551/248/480
f 441/214/481 448/220/481 549/225/481 548/212/481
f 429/193/482 441/214/482 548/212/482 547/192/482
f 586/210/483 593/191/483 547/192/483 427/209/483
f 505/29/484 542/30/484 553/43/484 552/40/484
f 546/250/485 349/427/485 423/189/485 422/190/485
f 351/401/486 348/249/486 546/250/486 422/190/486
f 334/11/432 331/428/432 332/8/432 333/5/432
f 336/6/487 517/7/487 4/429/487 5/20/487
f 254/423/488 4/430/488 517/418/488 554/419/488
f 331/420/489 518/431/489 338/422/489 554/419/489
f 366/432/490 513/70/490 512/71/490 365/433/490
f 346/434/491 344/437/491 423/436/491 555/435/491
f 425/182/492 347/179/492 346/434/492 555/435/492
f 350/438/493 577/441/493 520/440/493 349/439/493
f 350/442/494 555/435/494 423/436/494 349/443/494
f 555/435/495 350/442/495 577/445/495 576/444/495
f 570/446/496 557/364/496 556/371/496 573/447/496
f 573/447/497 556/371/497 559/372/497 572/448/497
f 574/449/498 560/367/498 561/368/498 571/450/498
f 571/451/499 561/363/499 557/364/499 570/446/499
f 572/411/500 559/359/500 558/360/500 585/410/500
f 521/452/501 41/455/501 271/454/501 568/453/501
f 421/185/502 569/404/502 565/457/502 562/456/502
f 425/182/503 555/435/503 576/444/503 567/379/503
f 585/410/504 558/360/504 560/367/504 574/449/504
f 237/407/505 272/384/505 564/378/505 540/406/505
f 562/456/506 565/457/506 568/453/506 563/458/506
f 263/459/507 28/37/507 539/38/507 563/458/507
f 562/456/508 351/401/508 422/190/508 421/185/508
f 366/380/509 365/461/509 566/460/509 567/379/509
f 566/460/510 424/181/510 425/182/510 567/379/510
f 522/386/511 537/78/511 513/70/511 366/432/511
f 569/404/512 421/185/512 424/186/512 566/403/512
f 271/454/513 263/459/513 563/458/513 568/453/513
f 565/457/514 364/405/514 521/452/514 568/453/514
f 569/404/515 364/405/515 565/457/515
f 580/462/516 570/446/516 573/447/516 579/463/516
f 558/360/517 509/361/517 510/370/517 560/367/517
f 409/163/518 497/176/518 498/169/518 413/160/518
f 497/176/519 415/177/519 416/170/519 498/169/519
f 363/68/520 409/163/520 413/160/520 362/63/520
f 402/138/521 408/148/521 407/146/521 401/144/521
f 396/132/245 402/138/245 401/144/245 395/127/245
f 390/131/522 396/132/522 395/127/522 389/124/522
f 601/111/523 390/112/523 389/123/523 604/120/523
f 378/91/523 384/107/523 383/106/523 377/102/523
f 594/90/524 378/91/524 377/102/524 595/99/524
f 357/67/525 363/68/525 362/63/525 356/60/525
f 509/54/526 357/55/526 356/53/526 510/50/526
f 577/445/527 520/254/527 540/406/527 576/444/527
f 351/401/528 562/456/528 563/458/528 539/38/528
f 584/464/529 571/451/529 570/446/529 580/462/529
f 581/409/530 585/410/530 574/449/530 583/465/530
f 576/444/531 540/406/531 564/378/531 567/379/531
f 577/253/532 350/243/532 500/240/532 578/252/532
f 578/252/533 500/240/533 543/344/533 575/342/533
f 583/465/534 574/449/534 571/450/534 584/466/534
f 579/463/535 573/447/535 572/448/535 582/467/535
f 347/468/536 581/409/536 583/465/536 346/469/536
f 345/470/537 582/408/537 581/409/537 347/468/537
f 344/471/538 584/464/538 580/462/538 342/472/538
f 346/469/539 583/465/539 584/466/539 344/473/539
f 343/474/540 579/463/540 582/467/540 345/475/540
f 342/472/541 580/462/541 579/463/541 343/474/541
f 458/255/542 550/285/542 593/477/542 586/476/542
f 460/258/543 458/255/543 586/476/543 592/478/543
f 459/260/544 460/258/544 592/478/544 588/479/544
f 457/262/545 459/263/545 588/481/545 587/480/545
f 456/266/546 457/262/546 587/480/546 589/482/546
f 455/268/547 456/266/547 589/482/547 590/483/547
f 454/270/548 455/268/548 590/483/548 591/484/548
f 550/285/549 454/270/549 591/484/549 593/477/549
f 415/177/524 594/90/524 595/99/524 416/170/524
f 417/168/550 596/100/550 599/97/550 420/167/550
f 416/170/551 595/99/551 596/100/551 417/168/551
f 420/167/552 599/97/552 598/93/552 419/172/552
f 419/172/553 598/93/553 597/94/553 418/174/553
f 418/178/554 597/89/554 594/90/554 415/177/554
f 384/107/523 601/111/523 604/120/523 383/106/523
f 381/105/319 605/121/319 603/118/319 379/104/319
f 383/106/318 604/120/318 605/121/318 381/105/318
f 379/104/317 603/118/317 602/114/317 380/103/317
f 380/103/321 602/114/321 600/115/321 382/109/321
f 382/108/320 600/110/320 601/111/320 384/107/320
f 620/485/285 609/392/285 610/338/285 618/486/285
f 619/487/474 608/335/474 314/415/474 326/488/474
f 328/489/472 311/412/472 607/391/472 617/490/472
f 617/490/279 607/391/279 609/392/279 620/485/279
f 618/486/432 610/338/432 606/334/432 616/491/432
f 616/491/280 606/334/280 608/335/280 619/487/280
f 370/492/280 613/495/280 611/494/280 525/493/280
f 371/496/432 615/497/432 613/495/432 370/492/432
f 526/498/279 614/501/279 612/500/279 372/499/279
f 52/502/472 317/503/472 614/501/472 526/498/472
f 525/493/474 611/494/474 322/505/474 51/504/474
f 372/499/285 612/500/285 615/497/285 371/496/285
f 613/495/280 616/491/280 619/487/280 611/494/280
f 615/497/432 618/486/432 616/491/432 613/495/432
f 614/501/279 617/490/279 620/485/279 612/500/279
f 317/503/472 328/489/472 617/490/472 614/501/472
f 611/494/474 619/487/474 326/488/474 322/505/474
f 612/500/285 620/485/285 618/486/285 615/497/285
