# Blender 4.2.1 LTS
# www.blender.org
mtllib Rocco_3dmodel.mtl
o R_V2
v 0.237103 1.534675 0.193673
v 0.240224 1.887251 0.176288
v 0.240224 1.534675 -0.210684
v 0.240224 1.910541 -0.202041
v 0.128383 1.513762 -0.258226
v 0.000000 1.482285 -0.302971
v -0.000000 1.978163 -0.214919
v 0.168528 1.944192 -0.202002
v 0.265668 1.814144 -0.240758
v 0.297289 1.708549 -0.263442
v 0.285354 1.605191 -0.255114
v 0.276473 1.521371 0.095967
v 0.278855 1.496044 0.000000
v 0.265939 1.508960 -0.104592
v 0.264087 1.947152 -0.155216
v 0.278855 1.978430 0.000000
v 0.265939 1.951182 0.104592
v 0.246319 1.815554 0.202003
v 0.263379 1.710963 0.232304
v 0.262818 1.606371 0.219387
v 0.000000 1.424501 0.214919
v 0.070067 1.452053 0.200058
v 0.096401 1.929016 0.236398
v -0.000000 1.925882 0.280958
v 0.000000 1.593505 -0.482026
v -0.000000 1.752237 -0.414310
v -0.000000 1.859978 -0.325440
v 0.161368 1.600441 -0.363063
v 0.181393 1.710963 -0.362789
v 0.175405 1.822432 -0.300592
v 0.413348 1.599493 -0.111469
v 0.431978 1.710963 -0.117457
v 0.321978 1.829816 -0.098521
v 0.540287 1.586723 0.000000
v 0.547769 1.649273 0.000000
v 0.375517 1.840259 -0.006253
v 0.361056 1.616907 0.111415
v 0.375086 1.700852 0.115924
v 0.361056 1.813578 0.111415
v 0.095958 1.733827 0.311435
v 0.091759 1.823682 0.280775
v -0.000000 1.752577 0.366770
v -0.000000 1.842170 0.338154
v 0.000000 1.429741 -0.118240
v 0.105765 1.448684 -0.111323
v 0.111743 1.435308 0.000000
v 0.000000 1.414008 0.123550
v 0.105755 1.429174 0.111470
v 0.175406 2.006969 -0.111469
v -0.000000 2.069166 -0.117457
v 0.148893 2.072916 0.000000
v -0.000000 2.120012 0.000000
v 0.128700 2.006205 0.111470
v -0.000000 2.024834 0.180745
v 0.141750 1.662276 0.456889
v 0.167050 1.587939 0.482189
v 0.141336 1.516243 0.456475
v 0.000000 1.478461 0.514446
v 0.069640 1.490528 0.482189
v 0.076517 1.581061 0.537211
v 0.082505 1.692531 0.517624
v 0.000000 1.575073 0.555841
v 0.000000 1.692531 0.537960
v 0.173579 1.658795 0.329232
v 0.061187 1.456473 0.286296
v 0.000000 1.677108 0.380143
v 0.157606 1.517959 0.260581
v 0.183321 1.597155 0.286296
v 0.088819 1.677108 0.359807
v 0.000000 1.435223 0.308882
v 0.000000 1.701319 0.459051
v 0.149471 1.508851 0.361528
v 0.175186 1.592547 0.384243
v 0.157664 1.677036 0.393060
v 0.065413 1.465251 0.387242
v 0.085662 1.701319 0.438716
v 0.000000 1.448592 0.414664
v 0.402911 2.130121 -0.124984
v 0.433963 2.148495 0.014143
v 0.372414 2.169572 0.041993
v 0.461988 2.044621 -0.101138
v 0.493463 2.063151 -0.023513
v 0.350546 2.174739 -0.105967
v 0.355869 2.196948 -0.026172
v 0.326452 2.181859 0.053017
v 0.269160 1.972677 -0.141346
v 0.199051 2.037540 -0.106344
v 0.250696 1.999306 0.096504
v 0.166661 2.031204 0.109558
v 0.337134 1.848084 -0.103974
v 0.404771 1.853654 -0.004948
v 0.177080 2.090050 0.001340
v 0.295526 2.010581 -0.000859
v 0.320105 2.155462 -0.103587
v 0.313963 2.111104 0.078143
v 0.432854 1.952631 -0.116250
v 0.314013 2.184999 -0.021860
v 0.402909 2.109951 0.043238
v 0.375131 2.100031 -0.157036
v 0.278701 2.155584 0.068663
v 0.489211 1.956012 -0.018014
v 0.321353 2.038694 -0.164887
v 0.217334 2.104938 0.095713
v 0.459999 1.891787 -0.011976
v 0.261220 2.108226 -0.108765
v 0.272487 2.059891 0.086739
v 0.382606 1.891165 -0.119315
v 0.239284 2.149036 -0.013249
v 0.327871 2.064446 0.004184
v 0.252946 1.862343 -0.221399
v 0.243271 1.851403 0.189145
v -0.000000 1.919070 -0.270180
v 0.171967 1.883312 -0.251297
v 0.292858 1.887075 -0.130317
v 0.336307 1.908955 -0.017787
v 0.313497 1.882380 0.108003
v 0.094080 1.876349 0.258586
v -0.000000 1.884026 0.309556
v 0.432449 2.087371 -0.113061
v 0.468178 2.109768 -0.005880
v 0.359508 1.937052 -0.021993
v 0.303147 1.910381 -0.122660
v 0.456291 2.035268 -0.006631
v 0.403095 2.025677 -0.145883
v 0.348671 1.966160 -0.149241
v 0.404166 1.980403 -0.023139
v -0.000000 1.034262 -0.199837
v 0.000000 1.307856 -0.119907
v 0.246379 1.086266 -0.094809
v 0.232488 1.282508 -0.076617
v 0.257345 1.057171 0.012893
v 0.224583 1.304520 0.014111
v 0.251930 1.085938 0.125371
v 0.235549 1.270664 0.121813
v -0.000000 1.034262 0.274837
v -0.000000 1.301053 0.199837
v -0.000000 0.949117 -0.217963
v 0.183990 0.918637 -0.160592
v 0.271991 0.918637 0.006775
v 0.238133 0.912943 0.180358
v -0.000000 0.914828 0.302533
v 0.173726 1.316409 -0.073706
v 0.173126 1.034262 -0.152266
v 0.244837 1.034262 0.012500
v 0.192337 1.330436 0.015914
v 0.215834 1.034262 0.184954
v 0.152673 1.315045 0.125524
v 0.279234 1.097388 -0.091355
v 0.265809 1.271472 -0.073631
v 0.289858 1.060984 0.012985
v 0.258118 1.300613 0.014165
v 0.284612 1.097070 0.121952
v 0.268742 1.259849 0.118505
v 0.421380 1.121672 -0.094809
v 0.404998 1.245347 -0.084349
v 0.432346 1.075680 0.012893
v 0.399583 1.290966 0.014111
v 0.426931 1.121344 0.125371
v 0.410549 1.245019 0.121813
v 0.000000 1.337971 -0.087941
v 0.000000 1.332892 0.151141
v 0.144097 1.347750 -0.052553
v 0.157800 1.347750 0.019947
v 0.103272 1.337740 0.113325
v 0.000000 1.360278 -0.077179
v 0.000000 1.340654 0.124942
v 0.073683 1.366042 -0.031985
v 0.083385 1.358114 0.023778
v 0.072409 1.346266 0.099991
v 0.000000 1.425570 -0.070002
v 0.000000 1.416736 0.094499
v 0.065911 1.428414 -0.041395
v 0.077378 1.424384 0.007988
v 0.056223 1.420314 0.077817
v 0.625116 1.124679 -0.089414
v 0.617034 1.242324 -0.079464
v 0.630831 1.070972 0.013062
v 0.611808 1.295718 0.014168
v 0.630397 1.124367 0.120030
v 0.622314 1.242012 0.116646
v 0.664117 1.124679 -0.089414
v 0.656034 1.242324 -0.079464
v 0.668083 1.070972 0.013062
v 0.649061 1.295718 0.014168
v 0.669397 1.124367 0.120030
v 0.661314 1.242012 0.116646
v 0.710617 1.124679 -0.089414
v 0.702534 1.242324 -0.079464
v 0.712500 1.070972 0.013062
v 0.693477 1.295718 0.014168
v 0.715897 1.124367 0.120030
v 0.707815 1.242012 0.116646
v 0.787954 1.081612 -0.136680
v 0.791688 1.285620 -0.149426
v 0.796899 1.008037 0.010980
v 0.790256 1.367354 0.012988
v 0.803611 1.081071 0.169018
v 0.800845 1.285079 0.190649
v 0.912155 1.081612 -0.136680
v 0.915889 1.285620 -0.149426
v 0.921100 1.008037 0.010980
v 0.914456 1.367354 0.012988
v 0.927812 1.081071 0.169018
v 0.925046 1.285079 0.190649
v 0.998597 1.130466 -0.078992
v 0.994680 1.237355 -0.071065
v 1.003116 1.086257 0.014319
v 0.991630 1.291507 0.013269
v 1.003180 1.131961 0.110828
v 0.999275 1.238727 0.106670
v 0.446439 1.244509 0.120937
v 0.443390 1.285167 0.014101
v 0.440934 1.244834 -0.083521
v 0.455909 1.122182 -0.093895
v 0.461414 1.121857 0.124466
v 0.472605 1.081481 0.012948
v 0.484237 1.244078 0.120196
v 0.498021 1.122290 0.123699
v 0.507353 1.079666 0.012967
v 0.479899 1.286990 0.014113
v 0.478770 1.244401 -0.082820
v 0.492554 1.122613 -0.093120
v 0.202215 1.296801 -0.076270
v 0.208263 1.071818 -0.119791
v 0.251091 1.045717 0.012697
v 0.208460 1.317478 0.015013
v 0.233882 1.060100 0.155162
v 0.194111 1.292855 0.123669
v 0.320613 0.115909 -0.060966
v 0.232928 0.672770 -0.090310
v 0.383393 0.120768 -0.007051
v 0.321597 0.707899 0.016993
v 0.367886 0.120107 0.067178
v 0.287482 0.689480 0.149670
v 0.277123 0.116747 0.105980
v 0.166024 0.651775 0.180768
v 0.222991 0.117759 0.082472
v 0.104387 0.629709 0.091839
v 0.201356 0.116307 0.009790
v 0.068891 0.616028 0.000000
v 0.257446 0.116208 -0.064468
v 0.129260 0.614308 -0.112854
v 0.228489 0.727698 -0.125711
v 0.313168 0.766364 0.017227
v 0.272396 0.764397 0.154743
v 0.154125 0.694800 0.192388
v 0.095071 0.659496 0.104954
v 0.055709 0.648012 -0.001436
v 0.111588 0.650422 -0.124373
v 0.218650 0.828836 -0.151673
v 0.296323 0.830886 0.019772
v 0.254845 0.846109 0.168881
v 0.103748 0.736234 0.222817
v 0.051643 0.696912 0.108090
v 0.028485 0.681221 -0.001436
v 0.083413 0.698297 -0.140245
v -0.000000 0.683765 -0.002369
v -0.000000 0.694470 0.108090
v -0.000000 0.769196 0.252570
v -0.000000 0.734160 -0.159415
v -0.000000 0.848075 0.297006
v 0.352298 0.481870 0.009924
v 0.319157 0.471113 0.134526
v 0.216314 0.449092 0.165905
v 0.148407 0.436204 0.085545
v 0.271342 0.459556 -0.076884
v 0.114460 0.428215 0.000000
v 0.162934 0.427210 -0.097819
v 0.357538 0.420857 0.008718
v 0.324564 0.411408 0.114140
v 0.224897 0.392064 0.145567
v 0.155921 0.380744 0.084471
v 0.122238 0.373725 -0.000000
v 0.168682 0.372843 -0.116166
v 0.277899 0.400732 -0.095506
v 0.386763 0.091115 -0.003687
v 0.354918 0.451363 0.014321
v 0.321861 0.441260 0.126730
v 0.220606 0.420578 0.158133
v 0.152164 0.408474 0.090008
v 0.118349 0.400970 0.005000
v 0.323576 0.088412 -0.061128
v 0.374406 0.091307 0.066722
v 0.278298 0.089565 0.105761
v 0.225889 0.089120 0.083398
v 0.201356 0.087507 0.009790
v 0.259444 0.088289 -0.064578
v 0.384708 0.055669 -0.004915
v 0.327977 0.056211 -0.059293
v 0.388234 0.064085 0.189287
v 0.286624 0.065933 0.225372
v 0.226823 0.061355 0.199753
v 0.201462 0.057507 0.011286
v 0.257203 0.055250 -0.062671
v 0.376652 0.010098 0.001426
v 0.326799 0.010098 -0.045819
v 0.374913 0.010098 0.187960
v 0.286248 0.010098 0.223969
v 0.236966 0.010098 0.196899
v 0.209392 0.010098 0.015673
v 0.256644 0.010098 -0.043687
v 0.457938 1.286078 0.014107
v 0.456145 1.244618 -0.083171
v 0.470525 1.122397 -0.093508
v 0.461631 1.244294 0.120566
v 0.476011 1.122074 0.124082
v 0.486272 1.080573 0.012958
v 0.000000 0.856614 -0.460773
v 0.000000 0.915303 -0.280255
v 0.123893 0.805090 -0.462320
v 0.093953 0.883093 -0.274515
v 0.178812 0.710274 -0.446768
v 0.129243 0.812244 -0.237870
v 0.154753 0.605938 -0.430736
v 0.070641 0.741313 -0.202886
v 0.000000 0.553592 -0.403272
v -0.000000 0.704610 -0.197896
v 0.000000 0.856250 -0.682025
v 0.126759 0.788307 -0.692322
v 0.225773 0.665211 -0.679703
v 0.157619 0.517488 -0.664488
v 0.000000 0.462727 -0.628641
v 0.000000 0.911228 -0.882097
v 0.128515 0.848159 -0.901558
v 0.249248 0.698965 -0.931072
v 0.159375 0.512334 -0.945357
v 0.000000 0.444048 -0.936607
v 0.000000 0.969357 -1.018122
v 0.128782 0.909574 -1.032774
v 0.256956 0.751994 -1.063349
v 0.159642 0.552786 -1.084382
v 0.000000 0.471026 -1.104821
v 0.000000 0.987254 -1.143078
v 0.128581 0.929564 -1.180861
v 0.234971 0.791025 -1.210308
v 0.159441 0.599570 -1.234467
v 0.000000 0.529174 -1.251988
v 0.000000 0.925966 -1.293704
v 0.094628 0.891581 -1.280492
v 0.143921 0.807187 -1.300957
v 0.115143 0.692688 -1.314278
v 0.000000 0.635701 -1.344289
v 0.000000 0.786814 -1.363097
v 0.000000 0.862548 -0.441829
v 0.120751 0.813276 -0.442612
v 0.174127 0.720892 -0.424793
v 0.145296 0.619216 -0.406611
v 0.000000 0.570241 -0.379917
v 0.223699 0.669210 -0.658735
v 0.126505 0.789797 -0.671909
v 0.000000 0.856282 -0.662388
v 0.157365 0.525339 -0.643742
v 0.000000 0.470791 -0.608639
v 0.159254 0.512689 -0.926039
v 0.247634 0.696643 -0.913784
v 0.128394 0.844043 -0.887167
v 0.000000 0.907446 -0.868336
v 0.000000 0.445333 -0.915426
v 0.159470 0.592821 -1.212818
v 0.238142 0.785395 -1.189110
v 0.128610 0.926680 -1.159500
v 0.000000 0.984673 -1.125053
v 0.000000 0.520786 -1.230759
v 0.090908 0.895798 -0.200993
v 0.120281 0.838417 -0.190281
v 0.073238 0.742571 -0.175151
v 0.000000 0.930881 -0.249553
v -0.000000 0.719174 -0.178930
v 0.071921 0.741933 -0.189216
v 0.092452 0.889355 -0.238278
v 0.124826 0.825144 -0.214415
v 0.000000 0.903790 -0.305866
v 0.096742 0.872168 -0.300654
v 0.133497 0.799574 -0.265536
v 0.077308 0.726152 -0.231913
v -0.000000 0.688454 -0.225164
v -0.237103 1.534675 0.193673
v -0.240224 1.887251 0.176288
v -0.240224 1.534675 -0.210684
v -0.240224 1.910541 -0.202041
v -0.128383 1.513762 -0.258226
v -0.168528 1.944192 -0.202002
v -0.265668 1.814144 -0.240758
v -0.297289 1.708549 -0.263442
v -0.285354 1.605191 -0.255114
v -0.276473 1.521371 0.095967
v -0.278855 1.496044 0.000000
v -0.265938 1.508960 -0.104592
v -0.264087 1.947152 -0.155216
v -0.278855 1.978430 0.000000
v -0.265939 1.951182 0.104592
v -0.246318 1.815554 0.202003
v -0.263379 1.710963 0.232304
v -0.262818 1.606371 0.219387
v -0.070067 1.452053 0.200058
v -0.096401 1.929016 0.236398
v -0.161368 1.600441 -0.363063
v -0.181393 1.710963 -0.362789
v -0.175406 1.822432 -0.300592
v -0.413348 1.599493 -0.111469
v -0.431978 1.710963 -0.117457
v -0.321978 1.829816 -0.098521
v -0.540287 1.586723 0.000000
v -0.547769 1.649273 0.000000
v -0.375517 1.840259 -0.006253
v -0.361056 1.616907 0.111415
v -0.375086 1.700852 0.115924
v -0.361056 1.813578 0.111415
v -0.095958 1.733827 0.311435
v -0.091759 1.823682 0.280775
v -0.105765 1.448684 -0.111323
v -0.111743 1.435308 0.000000
v -0.105755 1.429174 0.111470
v -0.175406 2.006969 -0.111469
v -0.148893 2.072916 0.000000
v -0.128700 2.006205 0.111470
v -0.141750 1.662276 0.456889
v -0.167050 1.587939 0.482189
v -0.141336 1.516243 0.456475
v -0.069640 1.490528 0.482189
v -0.076517 1.581061 0.537211
v -0.082505 1.692531 0.517624
v -0.173579 1.658795 0.329232
v -0.061187 1.456473 0.286296
v -0.157606 1.517959 0.260581
v -0.183321 1.597155 0.286296
v -0.088819 1.677108 0.359807
v -0.149471 1.508851 0.361528
v -0.175186 1.592547 0.384243
v -0.157664 1.677036 0.393060
v -0.065413 1.465251 0.387242
v -0.085662 1.701319 0.438716
v -0.402910 2.130121 -0.124984
v -0.433963 2.148495 0.014143
v -0.372414 2.169572 0.041993
v -0.461988 2.044621 -0.101138
v -0.493462 2.063151 -0.023513
v -0.350546 2.174739 -0.105967
v -0.355869 2.196948 -0.026172
v -0.326452 2.181859 0.053017
v -0.269160 1.972677 -0.141346
v -0.199051 2.037540 -0.106344
v -0.250696 1.999306 0.096504
v -0.166661 2.031204 0.109558
v -0.337134 1.848084 -0.103974
v -0.404771 1.853654 -0.004948
v -0.177080 2.090050 0.001340
v -0.295526 2.010581 -0.000859
v -0.320105 2.155462 -0.103587
v -0.313963 2.111104 0.078143
v -0.432854 1.952631 -0.116250
v -0.314013 2.184999 -0.021860
v -0.402909 2.109951 0.043238
v -0.375131 2.100031 -0.157036
v -0.278701 2.155584 0.068663
v -0.489211 1.956012 -0.018014
v -0.321353 2.038694 -0.164887
v -0.217334 2.104938 0.095713
v -0.459999 1.891787 -0.011976
v -0.261220 2.108226 -0.108765
v -0.272487 2.059891 0.086739
v -0.382605 1.891165 -0.119315
v -0.239284 2.149036 -0.013249
v -0.327871 2.064446 0.004184
v -0.252946 1.862343 -0.221399
v -0.243271 1.851403 0.189145
v -0.171967 1.883312 -0.251297
v -0.292858 1.887075 -0.130317
v -0.336307 1.908955 -0.017787
v -0.313497 1.882380 0.108003
v -0.094080 1.876349 0.258586
v -0.432449 2.087371 -0.113061
v -0.468178 2.109768 -0.005880
v -0.359508 1.937052 -0.021993
v -0.303147 1.910381 -0.122660
v -0.456291 2.035268 -0.006631
v -0.403095 2.025677 -0.145883
v -0.348671 1.966160 -0.149241
v -0.404166 1.980403 -0.023139
v -0.246379 1.086266 -0.094809
v -0.232488 1.282508 -0.076617
v -0.257345 1.057171 0.012893
v -0.224583 1.304520 0.014111
v -0.251930 1.085938 0.125371
v -0.235549 1.270664 0.121813
v -0.183990 0.918637 -0.160592
v -0.271991 0.918637 0.006775
v -0.238133 0.912943 0.180358
v -0.173726 1.316409 -0.073706
v -0.173126 1.034262 -0.152266
v -0.244837 1.034262 0.012500
v -0.192337 1.330436 0.015914
v -0.215834 1.034262 0.184954
v -0.152673 1.315045 0.125524
v -0.279234 1.097388 -0.091355
v -0.265809 1.271472 -0.073631
v -0.289858 1.060984 0.012985
v -0.258118 1.300613 0.014165
v -0.284612 1.097070 0.121952
v -0.268742 1.259849 0.118505
v -0.421380 1.121672 -0.094809
v -0.404998 1.245347 -0.084349
v -0.432346 1.075680 0.012893
v -0.399583 1.290966 0.014111
v -0.426931 1.121344 0.125371
v -0.410549 1.245019 0.121813
v -0.144097 1.347750 -0.052553
v -0.157800 1.347750 0.019947
v -0.103272 1.337740 0.113325
v -0.073683 1.366042 -0.031985
v -0.083385 1.358114 0.023778
v -0.072409 1.346266 0.099991
v -0.065911 1.428414 -0.041395
v -0.077378 1.424384 0.007988
v -0.056223 1.420314 0.077817
v -0.625116 1.124679 -0.089414
v -0.617034 1.242324 -0.079464
v -0.630831 1.070972 0.013062
v -0.611808 1.295718 0.014168
v -0.630397 1.124367 0.120030
v -0.622314 1.242012 0.116646
v -0.664117 1.124679 -0.089414
v -0.656034 1.242324 -0.079464
v -0.668083 1.070972 0.013062
v -0.649061 1.295718 0.014168
v -0.669397 1.124367 0.120030
v -0.661314 1.242012 0.116646
v -0.710617 1.124679 -0.089414
v -0.702534 1.242324 -0.079464
v -0.712500 1.070972 0.013062
v -0.693477 1.295718 0.014168
v -0.715897 1.124367 0.120030
v -0.707815 1.242012 0.116646
v -0.787954 1.081612 -0.136680
v -0.791688 1.285620 -0.149426
v -0.796899 1.008037 0.010980
v -0.790256 1.367354 0.012988
v -0.803611 1.081071 0.169018
v -0.800845 1.285079 0.190649
v -0.912155 1.081612 -0.136680
v -0.915889 1.285620 -0.149426
v -0.921100 1.008037 0.010980
v -0.914456 1.367354 0.012988
v -0.927812 1.081071 0.169018
v -0.925046 1.285079 0.190649
v -0.998597 1.130466 -0.078992
v -0.994680 1.237355 -0.071065
v -1.003116 1.086257 0.014319
v -0.991630 1.291507 0.013269
v -1.003180 1.131961 0.110828
v -0.999275 1.238727 0.106670
v -0.446439 1.244509 0.120937
v -0.443390 1.285167 0.014101
v -0.440934 1.244834 -0.083521
v -0.455909 1.122182 -0.093895
v -0.461414 1.121857 0.124466
v -0.472605 1.081481 0.012948
v -0.484237 1.244078 0.120196
v -0.498021 1.122290 0.123699
v -0.507353 1.079666 0.012967
v -0.479899 1.286990 0.014113
v -0.478770 1.244401 -0.082820
v -0.492554 1.122613 -0.093120
v -0.202215 1.296801 -0.076270
v -0.208263 1.071818 -0.119791
v -0.251091 1.045717 0.012697
v -0.208460 1.317478 0.015013
v -0.233882 1.060100 0.155162
v -0.194111 1.292855 0.123669
v -0.320613 0.115909 -0.060966
v -0.232928 0.672770 -0.090310
v -0.383393 0.120768 -0.007051
v -0.321597 0.707899 0.016993
v -0.367886 0.120107 0.067178
v -0.287482 0.689480 0.149670
v -0.277123 0.116747 0.105980
v -0.166024 0.651775 0.180768
v -0.222991 0.117759 0.082472
v -0.104387 0.629709 0.091839
v -0.201356 0.116307 0.009790
v -0.068891 0.616028 -0.000000
v -0.257446 0.116208 -0.064468
v -0.129260 0.614308 -0.112854
v -0.228490 0.727698 -0.125712
v -0.313168 0.766364 0.017227
v -0.272396 0.764397 0.154743
v -0.154125 0.694800 0.192388
v -0.095071 0.659496 0.104954
v -0.055709 0.648012 -0.001436
v -0.111588 0.650422 -0.124373
v -0.218650 0.828836 -0.151673
v -0.296323 0.830886 0.019772
v -0.254845 0.846110 0.168881
v -0.103748 0.736234 0.222817
v -0.051643 0.696912 0.108090
v -0.028485 0.681221 -0.001436
v -0.083413 0.698297 -0.140245
v -0.352298 0.481870 0.009924
v -0.319157 0.471113 0.134526
v -0.216314 0.449092 0.165905
v -0.148408 0.436204 0.085545
v -0.271342 0.459556 -0.076884
v -0.114460 0.428215 -0.000000
v -0.162934 0.427210 -0.097819
v -0.357538 0.420857 0.008718
v -0.324564 0.411408 0.114140
v -0.224897 0.392064 0.145567
v -0.155921 0.380744 0.084471
v -0.122238 0.373725 -0.000000
v -0.168682 0.372843 -0.116166
v -0.277899 0.400732 -0.095506
v -0.386763 0.091115 -0.003687
v -0.354918 0.451363 0.014321
v -0.321861 0.441260 0.126730
v -0.220606 0.420578 0.158133
v -0.152164 0.408474 0.090008
v -0.118349 0.400970 0.005000
v -0.323576 0.088412 -0.061128
v -0.374406 0.091307 0.066722
v -0.278298 0.089565 0.105761
v -0.225889 0.089120 0.083398
v -0.201356 0.087507 0.009790
v -0.259444 0.088289 -0.064578
v -0.384708 0.055669 -0.004915
v -0.327977 0.056211 -0.059293
v -0.388234 0.064085 0.189287
v -0.286624 0.065933 0.225372
v -0.226823 0.061355 0.199753
v -0.201462 0.057507 0.011286
v -0.257203 0.055250 -0.062671
v -0.376652 0.010098 0.001426
v -0.326799 0.010098 -0.045819
v -0.374913 0.010098 0.187960
v -0.286248 0.010098 0.223969
v -0.236966 0.010098 0.196899
v -0.209392 0.010098 0.015673
v -0.256644 0.010098 -0.043687
v -0.457938 1.286078 0.014107
v -0.456145 1.244618 -0.083171
v -0.470525 1.122397 -0.093508
v -0.461631 1.244294 0.120566
v -0.476011 1.122074 0.124082
v -0.486272 1.080573 0.012958
v -0.123893 0.805090 -0.462320
v -0.093953 0.883093 -0.274515
v -0.178812 0.710274 -0.446768
v -0.129243 0.812244 -0.237871
v -0.154753 0.605938 -0.430736
v -0.070641 0.741313 -0.202886
v -0.126759 0.788307 -0.692322
v -0.225773 0.665211 -0.679703
v -0.157619 0.517488 -0.664488
v -0.128515 0.848159 -0.901558
v -0.249248 0.698965 -0.931072
v -0.159375 0.512334 -0.945357
v -0.128782 0.909574 -1.032774
v -0.256956 0.751994 -1.063349
v -0.159642 0.552786 -1.084382
v -0.128581 0.929564 -1.180861
v -0.234971 0.791025 -1.210308
v -0.159441 0.599570 -1.234467
v -0.094628 0.891581 -1.280492
v -0.143921 0.807187 -1.300957
v -0.115143 0.692688 -1.314278
v -0.120751 0.813276 -0.442612
v -0.174127 0.720892 -0.424793
v -0.145296 0.619216 -0.406611
v -0.223699 0.669210 -0.658735
v -0.126505 0.789797 -0.671909
v -0.157365 0.525339 -0.643742
v -0.159254 0.512689 -0.926039
v -0.247634 0.696643 -0.913784
v -0.128394 0.844043 -0.887167
v -0.159470 0.592821 -1.212818
v -0.238142 0.785395 -1.189110
v -0.128610 0.926680 -1.159500
v -0.090908 0.895798 -0.200993
v -0.120281 0.838417 -0.190281
v -0.073238 0.742571 -0.175151
v -0.071921 0.741933 -0.189216
v -0.092452 0.889355 -0.238278
v -0.124826 0.825144 -0.214415
v -0.096742 0.872168 -0.300654
v -0.133497 0.799574 -0.265536
v -0.077308 0.726152 -0.231913
vn 0.4524 0.1866 -0.8721
vn 0.2891 0.5486 -0.7845
vn 0.2012 0.6468 -0.7356
vn 0.3427 0.5363 -0.7713
vn 0.5771 0.3822 -0.7217
vn 0.6494 -0.1253 -0.7501
vn 0.4326 -0.7245 -0.5366
vn 0.3842 -0.7777 -0.4975
vn 0.6603 -0.1246 -0.7406
vn 0.6728 0.6289 -0.3896
vn 0.5228 -0.1028 0.8462
vn 0.7168 0.4583 0.5255
vn 0.5172 -0.7498 -0.4126
vn 0.7317 -0.1484 -0.6653
vn 0.6923 0.5280 -0.4919
vn 0.8147 0.2864 -0.5042
vn 0.8935 -0.1290 -0.4302
vn 0.7828 0.5680 0.2541
vn 0.6364 0.4094 0.6537
vn 0.6657 0.2099 0.7161
vn 0.7251 -0.1188 0.6783
vn 0.6825 -0.5644 0.4643
vn 0.3815 -0.7533 0.5357
vn 0.3754 -0.8601 -0.3453
vn 0.5132 0.8332 0.2060
vn 0.5344 0.2764 0.7988
vn 0.9379 -0.3366 0.0840
vn 0.4451 -0.8809 0.1607
vn 0.4424 0.3120 0.8408
vn 0.4437 0.3331 0.8320
vn 0.4143 0.4229 0.8060
vn 0.0269 0.9934 0.1112
vn 0.2630 -0.9557 -0.1321
vn 0.1549 -0.9765 -0.1497
vn 0.2645 -0.9145 -0.3063
vn 0.3292 -0.8875 -0.3225
vn 0.3458 -0.9273 -0.1432
vn 0.4141 -0.9047 0.1004
vn 0.4494 -0.8255 0.3414
vn 0.2626 -0.9381 0.2260
vn 0.2986 0.8637 -0.4061
vn 0.3134 0.8213 0.4767
vn 0.2722 0.7496 -0.6033
vn 0.2428 0.7465 -0.6195
vn 0.3559 0.7106 0.6070
vn 0.3840 0.6927 0.6105
vn 0.2214 0.2914 0.9306
vn -0.0455 0.5535 -0.8316
vn 0.2299 0.1513 0.9614
vn 0.4674 -0.4674 0.7504
vn 0.6165 0.2449 0.7483
vn 0.3433 -0.4401 0.8298
vn 0.3070 -0.9174 0.2531
vn 0.9462 0.2731 0.1734
vn 0.7173 -0.1860 0.6715
vn 0.3708 -0.9237 0.0959
vn 0.3837 0.3737 0.8444
vn 0.4887 -0.8458 0.2141
vn 0.6205 -0.4341 0.6531
vn 0.4022 0.5834 0.7056
vn 0.9816 0.1355 0.1345
vn 0.3196 -0.9428 0.0945
vn -0.0685 0.9534 -0.2939
vn 0.5049 -0.8631 0.0084
vn 0.9472 -0.3156 0.0557
vn 0.1298 0.9550 -0.2667
vn 0.7366 0.6062 -0.3000
vn 0.3723 0.8890 0.2667
vn 0.5894 0.7711 -0.2409
vn 0.6227 0.1546 -0.7671
vn -0.4023 0.8713 -0.2810
vn 0.4031 0.2247 0.8871
vn 0.4220 -0.0138 0.9065
vn -0.3714 0.9230 0.1004
vn -0.4950 0.7823 0.3781
vn -0.0640 0.1499 0.9866
vn 0.9607 0.0138 0.2773
vn -0.5579 0.6722 -0.4867
vn 0.6904 0.0988 -0.7167
vn -0.1494 0.3849 -0.9108
vn 0.1265 0.0957 0.9873
vn 0.5408 -0.7946 -0.2760
vn -0.4967 0.8509 0.1710
vn -0.0712 -0.0390 0.9967
vn 0.4523 -0.7134 0.5351
vn -0.4945 0.7782 -0.3871
vn 0.2105 -0.0982 -0.9726
vn -0.3241 0.4370 -0.8390
vn 0.1655 0.1727 0.9710
vn 0.7400 -0.4790 -0.4721
vn 0.5378 -0.7646 -0.3550
vn 0.1926 0.0682 0.9789
vn -0.4255 0.1879 -0.8852
vn -0.1183 -0.2952 -0.9481
vn -0.6813 0.5981 -0.4219
vn 0.8243 -0.3723 0.4264
vn -0.0347 0.1418 0.9893
vn -0.7236 0.6592 0.2046
vn 0.1549 -0.1618 0.9746
vn -0.0462 -0.3536 -0.9342
vn 0.3227 -0.2305 -0.9180
vn -0.0287 -0.4560 0.8895
vn 0.3783 -0.1834 -0.9073
vn 0.2289 -0.0699 0.9709
vn 0.6010 -0.0280 0.7988
vn 0.6006 0.0207 -0.7993
vn 0.7729 0.4992 -0.3916
vn 0.5031 0.3994 0.7664
vn 0.4425 0.3333 0.8325
vn 0.5910 0.3951 0.7033
vn 0.8087 0.5365 0.2412
vn 0.8643 0.2949 -0.4075
vn 0.4645 0.5200 -0.7168
vn 0.2278 0.6434 -0.7308
vn 0.2455 0.2656 -0.9323
vn 0.0962 0.1031 -0.9900
vn 0.2220 0.9423 -0.2506
vn 0.3845 0.2617 0.8853
vn 0.1888 0.8027 0.5657
vn 0.8878 0.1719 -0.4269
vn 0.5485 0.8165 -0.1800
vn 0.2902 0.1404 -0.9466
vn 0.9647 0.1936 0.1784
vn 0.4203 0.1252 0.8987
vn 0.3629 0.2218 -0.9051
vn 0.8174 -0.4538 -0.3548
vn 0.5621 0.7945 -0.2297
vn 0.8785 -0.4537 0.1496
vn 0.5105 0.8145 0.2757
vn 0.4442 0.2418 0.8627
vn 0.1014 0.0295 0.9944
vn 0.2280 -0.9314 0.2838
vn 0.2277 -0.9236 -0.3085
vn 0.2194 0.9271 0.3039
vn 0.1040 0.9255 -0.3642
vn -0.0244 0.0217 0.9995
vn 0.1230 -0.9290 0.3489
vn 0.1215 -0.9210 -0.3702
vn 0.0757 0.9256 0.3708
vn -0.0495 0.0892 -0.9948
vn 0.1436 0.6859 -0.7134
vn 0.3887 0.8746 0.2898
vn 0.1573 0.9699 0.1858
vn 0.1718 0.7711 -0.6131
vn 0.0644 0.9394 0.3368
vn 0.1980 0.9799 0.0244
vn 0.2668 0.3443 0.9002
vn 0.9795 0.0678 -0.1895
vn 0.9491 0.2129 0.2320
vn 0.4667 0.0129 -0.8843
vn -0.0169 0.9068 0.4213
vn -0.0163 0.8928 -0.4501
vn 0.0260 0.0866 -0.9959
vn 0.0267 0.0312 0.9992
vn -0.0180 -0.9151 0.4028
vn -0.0173 -0.9078 -0.4190
vn -0.0000 0.0843 -0.9964
vn -0.0000 0.0288 0.9996
vn -0.0000 -0.8947 0.4466
vn -0.0000 -0.8857 -0.4642
vn -0.0000 0.8857 0.4642
vn -0.0000 0.8687 -0.4954
vn -0.5614 -0.0657 0.8249
vn -0.5588 -0.7400 0.3744
vn -0.5859 -0.7322 -0.3472
vn -0.5814 0.7104 0.3966
vn -0.5877 0.7054 -0.3963
vn -0.5756 -0.0149 -0.8176
vn -0.0000 0.9074 0.4202
vn -0.0000 0.8933 -0.4495
vn -0.0000 -0.0624 -0.9981
vn -0.0000 -0.1054 0.9944
vn -0.0000 -0.9078 0.4195
vn -0.0000 -0.8950 -0.4460
vn 0.6891 -0.0259 0.7242
vn 0.6653 -0.6832 0.3010
vn 0.6413 -0.6746 -0.3656
vn 0.6924 0.6633 0.2839
vn 0.6846 0.6436 -0.3420
vn 0.6356 -0.0116 -0.7719
vn 0.9987 0.0495 -0.0110
vn 0.0826 -0.9203 -0.3825
vn 0.9981 0.0486 -0.0387
vn 0.0825 -0.9283 0.3627
vn 0.0253 0.0320 0.9992
vn 0.0246 0.0874 -0.9959
vn 0.0764 0.9136 -0.3993
vn 0.0774 0.9263 0.3689
vn -0.0115 -0.9294 -0.3690
vn -0.0119 -0.9353 0.3536
vn 0.0169 0.0307 0.9994
vn 0.0165 0.0861 -0.9961
vn -0.0111 0.9177 -0.3970
vn -0.0115 0.9287 0.3705
vn 0.4589 0.1354 0.8781
vn 0.5151 0.8254 0.2311
vn 0.8793 -0.4506 0.1543
vn 0.4929 0.8481 -0.1944
vn 0.6032 -0.7372 -0.3045
vn 0.3347 0.1521 -0.9300
vn 0.7331 0.1056 -0.6719
vn 0.9569 0.1211 0.2639
vn 0.2721 -0.0156 0.9621
vn -0.7543 -0.2127 0.6211
vn -0.8996 -0.2176 0.3787
vn -0.6878 -0.4050 0.6024
vn -0.8712 -0.2021 -0.4475
vn 0.2135 -0.0310 -0.9765
vn 0.8301 -0.0771 -0.5523
vn 0.3138 -0.3736 -0.8729
vn 0.9487 0.1563 0.2747
vn -0.8489 -0.3789 0.3687
vn 0.3020 -0.0655 0.9510
vn -0.8048 -0.4404 -0.3980
vn -0.4373 -0.7386 0.5131
vn 0.9456 0.1925 0.2624
vn 0.1436 -0.2334 -0.9617
vn -0.6723 -0.6850 0.2809
vn 0.3884 -0.1166 0.9141
vn 0.8819 0.0763 -0.4653
vn -0.7380 -0.5738 -0.3551
vn -0.0976 -0.9036 0.4172
vn -0.0026 -0.9928 0.1194
vn -0.2710 -0.9264 -0.2616
vn 0.3695 -0.2508 0.8948
vn 0.9438 0.2527 0.2129
vn 0.3787 0.0414 -0.9246
vn 0.8722 0.2370 -0.4279
vn 0.4516 -0.0568 0.8904
vn 0.0923 0.3182 -0.9435
vn -0.8779 -0.2048 -0.4329
vn -0.9254 -0.0644 0.3735
vn -0.7169 -0.1427 0.6824
vn 0.3269 -0.2068 0.9221
vn 0.9592 0.0692 0.2740
vn -0.9201 0.0344 -0.3902
vn 0.7364 0.0647 -0.6734
vn 0.9608 0.0844 0.2640
vn 0.3535 -0.0827 0.9318
vn -0.5462 -0.1842 0.8172
vn -0.9089 -0.2503 0.3334
vn -0.8332 -0.3256 -0.4470
vn 0.1564 -0.1182 -0.9806
vn 0.7353 -0.0344 -0.6769
vn 0.9571 -0.0030 0.2899
vn 0.3415 -0.3372 0.8773
vn -0.6197 -0.3194 0.7169
vn -0.9047 -0.1981 0.3773
vn -0.9268 -0.0644 -0.3700
vn 0.7647 0.1794 -0.6190
vn 0.7200 0.2811 -0.6345
vn 0.3832 0.0415 0.9227
vn -0.7927 -0.0267 -0.6091
vn -0.3955 -0.0172 0.9183
vn 0.0545 0.0098 -0.9985
vn 0.9671 0.1729 0.1869
vn 0.6609 0.0312 -0.7498
vn -0.9525 -0.0432 0.3015
vn 0.0509 -0.0555 -0.9972
vn -0.9286 0.3299 0.1699
vn 0.0759 0.9772 0.1983
vn 0.6817 0.0171 -0.7314
vn 0.9726 0.2310 0.0249
vn -0.7933 -0.0060 -0.6088
vn -0.1356 0.9669 0.2159
vn 0.6725 -0.2204 -0.7065
vn -0.7751 -0.2120 -0.5952
vn -0.4312 -0.0751 0.8992
vn 0.9777 -0.2099 0.0001
vn 0.0106 -0.3352 -0.9421
vn -0.9741 -0.1762 0.1413
vn 0.3529 -0.0672 0.9332
vn -0.0000 -1.0000 -0.0000
vn -0.0174 0.9324 0.3609
vn -0.0169 0.9221 -0.3866
vn 0.0246 0.0872 -0.9959
vn 0.0253 0.0318 0.9992
vn -0.0184 -0.9390 0.3435
vn -0.0178 -0.9334 -0.3584
vn 0.2351 -0.9718 -0.0195
vn 0.1159 -0.9932 0.0055
vn 0.3144 0.8770 -0.3633
vn 0.9046 0.4212 -0.0663
vn 0.8035 -0.4584 0.3798
vn 0.4246 -0.7689 0.4780
vn 0.7803 0.6242 -0.0389
vn 0.4667 0.8839 -0.0306
vn 0.9022 -0.3991 0.1637
vn 0.3757 -0.8624 0.3392
vn 0.9005 -0.4345 0.0193
vn 0.4573 0.8557 0.2420
vn 0.3934 -0.9186 0.0384
vn 0.7818 0.6013 0.1650
vn 0.8975 -0.4244 -0.1199
vn 0.4400 0.8196 0.3671
vn 0.4233 -0.8850 -0.1939
vn 0.7726 0.5735 0.2725
vn 0.9217 -0.3489 -0.1696
vn 0.4357 0.8916 0.1234
vn 0.4165 -0.8572 -0.3029
vn 0.7964 0.6018 0.0605
vn 0.7194 -0.1625 -0.6754
vn 0.3150 0.8668 -0.3866
vn 0.3843 -0.5524 -0.7397
vn 0.6558 0.5690 -0.4961
vn 0.2964 0.4118 -0.8617
vn 0.3547 -0.7575 0.5481
vn 0.3497 -0.0572 -0.9351
vn 0.9129 -0.1730 0.3697
vn 0.8686 0.4920 -0.0588
vn 0.3617 0.8848 -0.2938
vn 0.3650 -0.8664 0.3407
vn 0.9293 -0.3142 0.1938
vn 0.4250 0.9047 -0.0317
vn 0.8158 0.5781 0.0146
vn 0.7715 0.6139 0.1670
vn 0.3643 -0.9305 0.0387
vn 0.4658 0.8515 0.2409
vn 0.9042 -0.4266 0.0199
vn 0.7872 0.6134 0.0635
vn 0.4433 -0.8452 -0.2987
vn 0.4323 0.8932 0.1236
vn 0.9049 -0.3860 -0.1791
vn 0.2603 -0.8793 0.3989
vn 0.8963 0.4403 -0.0525
vn 0.4746 0.8319 -0.2874
vn 0.8707 -0.4339 0.2316
vn 0.3712 -0.3974 -0.8392
vn 0.3271 0.2693 -0.9058
vn -0.0934 -0.6296 -0.7713
vn 0.8281 -0.5006 0.2523
vn 0.3751 0.8837 -0.2799
vn 0.9016 0.4299 -0.0486
vn 0.3908 -0.8404 0.3757
vn 0.3704 -0.7295 0.5750
vn 0.8534 -0.2853 0.4362
vn 0.8809 0.4726 -0.0268
vn 0.3385 0.8942 -0.2929
vn -0.4524 0.1866 -0.8721
vn -0.2891 0.5486 -0.7845
vn -0.2012 0.6468 -0.7356
vn -0.3427 0.5363 -0.7713
vn -0.5771 0.3822 -0.7217
vn -0.6494 -0.1253 -0.7501
vn -0.4326 -0.7245 -0.5366
vn -0.3842 -0.7777 -0.4975
vn -0.6603 -0.1246 -0.7406
vn -0.6728 0.6289 -0.3896
vn -0.5228 -0.1028 0.8462
vn -0.7168 0.4583 0.5255
vn -0.5172 -0.7498 -0.4126
vn -0.7317 -0.1484 -0.6653
vn -0.6923 0.5280 -0.4919
vn -0.8147 0.2864 -0.5042
vn -0.8935 -0.1290 -0.4302
vn -0.7828 0.5680 0.2541
vn -0.6364 0.4094 0.6537
vn -0.6657 0.2099 0.7161
vn -0.7251 -0.1188 0.6783
vn -0.6825 -0.5644 0.4643
vn -0.3815 -0.7533 0.5357
vn -0.3754 -0.8601 -0.3453
vn -0.5132 0.8332 0.2060
vn -0.5344 0.2764 0.7988
vn -0.9379 -0.3366 0.0840
vn -0.4451 -0.8809 0.1607
vn -0.4424 0.3120 0.8408
vn -0.4437 0.3331 0.8320
vn -0.4143 0.4229 0.8060
vn -0.0269 0.9934 0.1112
vn -0.2630 -0.9557 -0.1321
vn -0.1549 -0.9765 -0.1497
vn -0.2645 -0.9145 -0.3063
vn -0.3292 -0.8875 -0.3225
vn -0.3458 -0.9273 -0.1432
vn -0.4141 -0.9047 0.1004
vn -0.4494 -0.8255 0.3414
vn -0.2626 -0.9381 0.2260
vn -0.2986 0.8637 -0.4061
vn -0.3134 0.8213 0.4767
vn -0.2722 0.7496 -0.6033
vn -0.2428 0.7465 -0.6195
vn -0.3559 0.7106 0.6070
vn -0.3840 0.6927 0.6105
vn -0.2214 0.2914 0.9306
vn 0.0455 0.5535 -0.8316
vn -0.2299 0.1513 0.9614
vn -0.4674 -0.4674 0.7504
vn -0.6165 0.2449 0.7483
vn -0.3433 -0.4401 0.8298
vn -0.3070 -0.9174 0.2531
vn -0.9462 0.2731 0.1734
vn -0.7173 -0.1860 0.6715
vn -0.3708 -0.9237 0.0959
vn -0.3837 0.3737 0.8444
vn -0.4887 -0.8458 0.2141
vn -0.6205 -0.4341 0.6531
vn -0.4022 0.5834 0.7056
vn -0.9816 0.1355 0.1345
vn -0.3196 -0.9428 0.0945
vn 0.0685 0.9534 -0.2939
vn -0.5049 -0.8631 0.0084
vn -0.9472 -0.3156 0.0557
vn -0.1298 0.9550 -0.2667
vn -0.7366 0.6062 -0.3000
vn -0.3723 0.8890 0.2667
vn -0.5894 0.7711 -0.2409
vn -0.6227 0.1546 -0.7671
vn 0.4023 0.8713 -0.2810
vn -0.4031 0.2247 0.8871
vn -0.4220 -0.0138 0.9065
vn 0.3714 0.9230 0.1004
vn 0.4950 0.7823 0.3781
vn 0.0640 0.1499 0.9866
vn -0.9607 0.0138 0.2773
vn 0.5579 0.6722 -0.4867
vn -0.6904 0.0988 -0.7167
vn 0.1494 0.3849 -0.9108
vn -0.1265 0.0957 0.9873
vn -0.5408 -0.7946 -0.2760
vn 0.4967 0.8509 0.1710
vn 0.0712 -0.0390 0.9967
vn -0.4523 -0.7134 0.5351
vn 0.4945 0.7782 -0.3871
vn -0.2105 -0.0982 -0.9726
vn 0.3241 0.4370 -0.8390
vn -0.1655 0.1727 0.9710
vn -0.7400 -0.4790 -0.4721
vn -0.5378 -0.7646 -0.3550
vn -0.1926 0.0682 0.9789
vn 0.4255 0.1879 -0.8852
vn 0.1183 -0.2952 -0.9481
vn 0.6813 0.5981 -0.4219
vn -0.8243 -0.3723 0.4264
vn 0.0347 0.1418 0.9893
vn 0.7236 0.6592 0.2046
vn -0.1549 -0.1618 0.9746
vn 0.0462 -0.3536 -0.9342
vn -0.3227 -0.2305 -0.9180
vn 0.0287 -0.4560 0.8895
vn -0.3783 -0.1834 -0.9073
vn -0.2289 -0.0699 0.9709
vn -0.6010 -0.0280 0.7988
vn -0.6006 0.0207 -0.7993
vn -0.7729 0.4992 -0.3916
vn -0.5031 0.3994 0.7664
vn -0.4425 0.3333 0.8325
vn -0.5910 0.3951 0.7033
vn -0.8087 0.5365 0.2412
vn -0.8643 0.2949 -0.4075
vn -0.4645 0.5200 -0.7168
vn -0.2278 0.6434 -0.7308
vn -0.2455 0.2656 -0.9323
vn -0.0962 0.1031 -0.9900
vn -0.2220 0.9423 -0.2506
vn -0.3845 0.2617 0.8853
vn -0.1888 0.8027 0.5657
vn -0.8878 0.1719 -0.4269
vn -0.5485 0.8165 -0.1800
vn -0.2902 0.1404 -0.9466
vn -0.9647 0.1936 0.1784
vn -0.4203 0.1252 0.8987
vn -0.3629 0.2218 -0.9051
vn -0.8174 -0.4538 -0.3548
vn -0.5621 0.7945 -0.2297
vn -0.8785 -0.4537 0.1496
vn -0.5105 0.8145 0.2757
vn -0.4442 0.2418 0.8627
vn -0.1014 0.0295 0.9944
vn -0.2280 -0.9314 0.2838
vn -0.2277 -0.9236 -0.3085
vn -0.2194 0.9271 0.3039
vn -0.1040 0.9255 -0.3642
vn 0.0244 0.0217 0.9995
vn -0.1230 -0.9290 0.3489
vn -0.1215 -0.9210 -0.3702
vn -0.0757 0.9256 0.3708
vn 0.0495 0.0892 -0.9948
vn -0.1436 0.6859 -0.7134
vn -0.3887 0.8746 0.2898
vn -0.1573 0.9699 0.1858
vn -0.1718 0.7711 -0.6131
vn -0.0644 0.9394 0.3368
vn -0.1980 0.9799 0.0244
vn -0.2668 0.3443 0.9002
vn -0.9795 0.0678 -0.1895
vn -0.9491 0.2129 0.2320
vn -0.4667 0.0129 -0.8843
vn 0.0169 0.9068 0.4213
vn 0.0163 0.8928 -0.4501
vn -0.0260 0.0866 -0.9959
vn -0.0267 0.0312 0.9992
vn 0.0180 -0.9151 0.4028
vn 0.0173 -0.9078 -0.4190
vn 0.5614 -0.0657 0.8249
vn 0.5588 -0.7400 0.3744
vn 0.5859 -0.7322 -0.3472
vn 0.5814 0.7104 0.3966
vn 0.5877 0.7054 -0.3963
vn 0.5756 -0.0149 -0.8176
vn -0.6891 -0.0259 0.7242
vn -0.6653 -0.6832 0.3010
vn -0.6413 -0.6746 -0.3656
vn -0.6924 0.6633 0.2839
vn -0.6846 0.6436 -0.3420
vn -0.6356 -0.0116 -0.7719
vn -0.9987 0.0495 -0.0110
vn -0.0826 -0.9203 -0.3825
vn -0.9981 0.0486 -0.0387
vn -0.0825 -0.9283 0.3627
vn -0.0253 0.0320 0.9992
vn -0.0246 0.0874 -0.9959
vn -0.0764 0.9136 -0.3993
vn -0.0774 0.9263 0.3689
vn 0.0115 -0.9294 -0.3690
vn 0.0119 -0.9353 0.3536
vn -0.0169 0.0307 0.9994
vn -0.0165 0.0861 -0.9961
vn 0.0111 0.9177 -0.3970
vn 0.0115 0.9287 0.3705
vn -0.4589 0.1354 0.8781
vn -0.5151 0.8254 0.2311
vn -0.8793 -0.4506 0.1543
vn -0.4929 0.8481 -0.1944
vn -0.6032 -0.7372 -0.3045
vn -0.3347 0.1521 -0.9300
vn -0.7331 0.1056 -0.6719
vn -0.9569 0.1211 0.2639
vn -0.2721 -0.0156 0.9621
vn 0.7543 -0.2127 0.6211
vn 0.8996 -0.2176 0.3787
vn 0.6878 -0.4050 0.6024
vn 0.8712 -0.2021 -0.4475
vn -0.2135 -0.0310 -0.9765
vn -0.8301 -0.0771 -0.5523
vn -0.3138 -0.3736 -0.8729
vn -0.9487 0.1563 0.2747
vn 0.8489 -0.3789 0.3687
vn -0.3020 -0.0655 0.9510
vn 0.8048 -0.4404 -0.3980
vn 0.4373 -0.7386 0.5131
vn -0.9456 0.1925 0.2624
vn -0.1436 -0.2334 -0.9617
vn 0.6723 -0.6850 0.2809
vn -0.3884 -0.1166 0.9141
vn -0.8819 0.0763 -0.4653
vn 0.7380 -0.5738 -0.3551
vn 0.0976 -0.9036 0.4172
vn 0.0026 -0.9928 0.1194
vn 0.2710 -0.9264 -0.2616
vn -0.3695 -0.2508 0.8948
vn -0.9438 0.2527 0.2129
vn -0.3787 0.0414 -0.9246
vn -0.8722 0.2370 -0.4279
vn -0.4516 -0.0568 0.8904
vn -0.0923 0.3182 -0.9435
vn 0.8779 -0.2048 -0.4329
vn 0.9254 -0.0644 0.3735
vn 0.7169 -0.1428 0.6824
vn -0.3269 -0.2068 0.9221
vn -0.9592 0.0692 0.2740
vn 0.9201 0.0344 -0.3902
vn -0.7364 0.0647 -0.6734
vn -0.9608 0.0844 0.2640
vn -0.3535 -0.0827 0.9318
vn 0.5462 -0.1842 0.8172
vn 0.9089 -0.2503 0.3334
vn 0.8332 -0.3256 -0.4470
vn -0.1564 -0.1182 -0.9806
vn -0.7353 -0.0344 -0.6769
vn -0.9571 -0.0030 0.2899
vn -0.3415 -0.3372 0.8773
vn 0.6197 -0.3194 0.7169
vn 0.9047 -0.1981 0.3773
vn 0.9268 -0.0644 -0.3700
vn -0.7647 0.1794 -0.6189
vn -0.7200 0.2811 -0.6345
vn -0.3832 0.0416 0.9227
vn 0.7927 -0.0267 -0.6091
vn 0.3955 -0.0172 0.9183
vn -0.0545 0.0098 -0.9985
vn -0.9671 0.1729 0.1869
vn -0.6609 0.0312 -0.7498
vn 0.9525 -0.0432 0.3015
vn -0.0509 -0.0555 -0.9972
vn 0.9286 0.3299 0.1699
vn -0.0759 0.9772 0.1983
vn -0.6817 0.0171 -0.7314
vn -0.9726 0.2310 0.0249
vn 0.7933 -0.0060 -0.6088
vn 0.1356 0.9669 0.2159
vn -0.6725 -0.2204 -0.7065
vn 0.7751 -0.2120 -0.5952
vn 0.4312 -0.0751 0.8992
vn -0.9777 -0.2099 0.0001
vn -0.0106 -0.3352 -0.9421
vn 0.9741 -0.1762 0.1413
vn -0.3529 -0.0672 0.9332
vn 0.0174 0.9324 0.3609
vn 0.0169 0.9221 -0.3866
vn -0.0246 0.0872 -0.9959
vn -0.0253 0.0318 0.9992
vn 0.0184 -0.9390 0.3435
vn 0.0178 -0.9334 -0.3584
vn -0.2351 -0.9718 -0.0195
vn -0.1159 -0.9932 0.0055
vn -0.3144 0.8770 -0.3633
vn -0.9046 0.4212 -0.0663
vn -0.8035 -0.4584 0.3798
vn -0.4246 -0.7689 0.4780
vn -0.7803 0.6242 -0.0389
vn -0.4667 0.8839 -0.0306
vn -0.9022 -0.3991 0.1637
vn -0.3757 -0.8624 0.3392
vn -0.9005 -0.4345 0.0193
vn -0.4573 0.8557 0.2420
vn -0.3934 -0.9186 0.0384
vn -0.7818 0.6013 0.1650
vn -0.8975 -0.4244 -0.1199
vn -0.4400 0.8196 0.3671
vn -0.4233 -0.8850 -0.1939
vn -0.7726 0.5735 0.2725
vn -0.9217 -0.3489 -0.1696
vn -0.4357 0.8916 0.1234
vn -0.4165 -0.8572 -0.3029
vn -0.7964 0.6018 0.0605
vn -0.7194 -0.1625 -0.6754
vn -0.3150 0.8668 -0.3866
vn -0.3843 -0.5524 -0.7397
vn -0.6558 0.5690 -0.4961
vn -0.2964 0.4118 -0.8617
vn -0.3547 -0.7575 0.5481
vn -0.3497 -0.0572 -0.9351
vn -0.9129 -0.1730 0.3697
vn -0.8686 0.4920 -0.0588
vn -0.3617 0.8848 -0.2938
vn -0.3650 -0.8664 0.3407
vn -0.9293 -0.3142 0.1938
vn -0.4250 0.9047 -0.0317
vn -0.8158 0.5781 0.0146
vn -0.7715 0.6139 0.1670
vn -0.3643 -0.9305 0.0387
vn -0.4658 0.8515 0.2409
vn -0.9042 -0.4266 0.0199
vn -0.7872 0.6134 0.0635
vn -0.4433 -0.8452 -0.2987
vn -0.4323 0.8932 0.1236
vn -0.9049 -0.3860 -0.1791
vn -0.2603 -0.8793 0.3989
vn -0.8963 0.4403 -0.0525
vn -0.4746 0.8319 -0.2875
vn -0.8707 -0.4339 0.2316
vn -0.3712 -0.3974 -0.8392
vn -0.3271 0.2693 -0.9058
vn 0.0934 -0.6296 -0.7713
vn -0.8281 -0.5006 0.2523
vn -0.3751 0.8837 -0.2799
vn -0.9016 0.4299 -0.0486
vn -0.3908 -0.8404 0.3757
vn -0.3704 -0.7295 0.5750
vn -0.8534 -0.2853 0.4362
vn -0.8809 0.4726 -0.0268
vn -0.3385 0.8942 -0.2929
vt 0.974398 0.824704
vt 0.921985 0.865873
vt 0.881110 0.806759
vt 0.912600 0.780157
vt 0.876561 0.895484
vt 0.844438 0.835136
vt 0.849914 0.911486
vt 0.823037 0.927380
vt 0.795062 0.867650
vt 0.819902 0.851200
vt 0.788929 0.838082
vt 0.802116 0.822576
vt 0.815228 0.807214
vt 0.838097 0.771890
vt 0.863873 0.742677
vt 0.931213 0.730574
vt 0.887058 0.716125
vt 0.983206 0.743366
vt 0.809606 0.691991
vt 0.779577 0.724617
vt 0.742483 0.667205
vt 0.758549 0.648894
vt 0.760632 0.785042
vt 0.723184 0.765748
vt 0.585115 0.679195
vt 0.604612 0.692282
vt 0.570291 0.768918
vt 0.540107 0.750917
vt 0.641140 0.781131
vt 0.600949 0.800751
vt 0.875372 0.675534
vt 0.764367 0.840604
vt 0.763896 0.812863
vt 0.370777 0.631167
vt 0.397550 0.592761
vt 0.418790 0.618703
vt 0.415509 0.652332
vt 0.660890 0.803820
vt 0.672370 0.836549
vt 0.634662 0.852863
vt 0.617617 0.826321
vt 0.597440 0.857903
vt 0.584450 0.851812
vt 0.571291 0.845620
vt 0.534714 0.823526
vt 0.503917 0.797194
vt 0.488899 0.742037
vt 0.478523 0.780823
vt 0.483529 0.705082
vt 0.866360 0.635742
vt 0.542135 0.474709
vt 0.510918 0.466561
vt 0.507195 0.440280
vt 0.532245 0.453516
vt 0.508298 0.889998
vt 0.541444 0.904387
vt 0.525807 0.943224
vt 0.492582 0.929737
vt 0.595377 0.436884
vt 0.569103 0.458240
vt 0.548631 0.435386
vt 0.566558 0.421223
vt 0.600430 0.398594
vt 0.562458 0.394442
vt 0.583023 0.916833
vt 0.562246 0.910696
vt 0.563478 0.952094
vt 0.544648 0.947579
vt 0.474534 0.461135
vt 0.478935 0.424644
vt 0.948308 0.621757
vt 0.954293 0.640660
vt 0.940313 0.669406
vt 0.934687 0.626427
vt 0.981786 0.668919
vt 0.980655 0.650099
vt 0.417401 0.709275
vt 0.416919 0.750452
vt 0.409293 0.786166
vt 0.377972 0.758586
vt 0.381166 0.793050
vt 0.756273 0.884707
vt 0.778466 0.952925
vt 0.733424 0.972992
vt 0.715701 0.915497
vt 0.690141 0.905356
vt 0.695313 0.965244
vt 0.616785 0.961259
vt 0.639697 0.909377
vt 0.524308 0.626901
vt 0.536174 0.649429
vt 0.495247 0.653413
vt 0.507390 0.637335
vt 0.448631 0.599181
vt 0.473022 0.602343
vt 0.468556 0.610396
vt 0.451437 0.612991
vt 0.528291 0.410434
vt 0.510678 0.386313
vt 0.550257 0.365141
vt 0.596482 0.367626
vt 0.489045 0.853219
vt 0.477791 0.826964
vt 0.408184 0.818834
vt 0.384257 0.828485
vt 0.465561 0.918621
vt 0.480017 0.887038
vt 0.450834 0.808251
vt 0.597594 0.487330
vt 0.563303 0.493248
vt 0.642615 0.380843
vt 0.642012 0.411831
vt 0.522259 0.498996
vt 0.480106 0.498996
vt 0.628567 0.462947
vt 0.436033 0.616320
vt 0.462378 0.662516
vt 0.438742 0.659393
vt 0.481395 0.628007
vt 0.425815 0.594603
vt 0.491647 0.618566
vt 0.406685 0.498622
vt 0.426287 0.467458
vt 0.447842 0.462314
vt 0.440548 0.488982
vt 0.416642 0.427209
vt 0.399536 0.396753
vt 0.435447 0.420570
vt 0.443639 0.441020
vt 0.537968 0.559350
vt 0.597213 0.572659
vt 0.583858 0.588832
vt 0.530934 0.571968
vt 0.348353 0.431939
vt 0.336226 0.403352
vt 0.347232 0.397407
vt 0.362354 0.431329
vt 0.336226 0.502810
vt 0.356272 0.466238
vt 0.369732 0.467646
vt 0.355618 0.505571
vt 0.487378 0.528814
vt 0.486037 0.545610
vt 0.401814 0.528814
vt 0.434111 0.529590
vt 0.441093 0.541425
vt 0.407641 0.539130
vt 0.615877 0.638213
vt 0.594104 0.629261
vt 0.333310 0.564206
vt 0.368950 0.530938
vt 0.374652 0.540470
vt 0.335792 0.578305
vt 0.509221 0.598562
vt 0.551149 0.609666
vt 0.385822 0.428273
vt 0.372537 0.389772
vt 0.380992 0.504664
vt 0.392025 0.469905
vt 0.479094 0.580671
vt 0.419311 0.567655
vt 0.445031 0.575637
vt 0.565320 0.636762
vt 0.348209 0.606946
vt 0.386120 0.565224
vt 0.330502 0.813386
vt 0.333621 0.920490
vt 0.270043 0.929395
vt 0.260246 0.815771
vt 0.870342 0.330418
vt 0.941945 0.333751
vt 0.937015 0.346329
vt 0.871803 0.343448
vt 0.979881 0.342783
vt 0.975890 0.354777
vt 0.114245 0.822176
vt 0.108714 0.935798
vt 0.045035 0.935011
vt 0.025376 0.833435
vt 0.094635 0.951108
vt 0.053786 0.955139
vt 0.185861 0.821737
vt 0.184365 0.771962
vt 0.258312 0.770334
vt 0.251989 0.958940
vt 0.278551 0.942877
vt 0.265081 0.965796
vt 0.331474 0.781475
vt 0.115614 0.775175
vt 0.015653 0.789341
vt 0.258553 0.921594
vt 0.244744 0.830276
vt 0.185692 0.827175
vt 0.245081 0.955286
vt 0.127112 0.833121
vt 0.123214 0.925498
vt 0.148740 0.959950
vt 0.142466 0.964552
vt 0.715229 0.330816
vt 0.787226 0.330367
vt 0.785220 0.343367
vt 0.719670 0.343595
vt 0.829763 0.335324
vt 0.829466 0.347173
vt 0.673153 0.337511
vt 0.676783 0.349661
vt 0.963591 0.404627
vt 0.923262 0.400100
vt 0.780209 0.401081
vt 0.731567 0.398320
vt 0.828176 0.402959
vt 0.874673 0.400911
vt 0.687457 0.399826
vt 0.331990 0.936939
vt 0.129643 0.971854
vt 0.104252 0.984898
vt 0.086799 0.961321
vt 0.332313 0.946144
vt 0.301789 0.956455
vt 0.058193 0.964377
vt 0.291826 0.975632
vt 0.684251 0.619816
vt 0.692348 0.647995
vt 0.663109 0.655361
vt 0.656349 0.633971
vt 0.687841 0.677397
vt 0.684413 0.698947
vt 0.660420 0.702570
vt 0.662395 0.683253
vt 0.685526 0.732005
vt 0.660525 0.730024
vt 0.691427 0.429274
vt 0.734098 0.426324
vt 0.737359 0.478265
vt 0.694505 0.477258
vt 0.919720 0.427897
vt 0.958627 0.433793
vt 0.954517 0.481841
vt 0.914541 0.479687
vt 0.872595 0.428655
vt 0.869970 0.479483
vt 0.781125 0.428916
vt 0.781738 0.479743
vt 0.827558 0.432962
vt 0.826593 0.480574
vt 0.913324 0.494147
vt 0.869277 0.494153
vt 0.781881 0.494401
vt 0.738050 0.492723
vt 0.826298 0.494376
vt 0.695375 0.490800
vt 0.953146 0.495413
vt 0.738794 0.509822
vt 0.696327 0.506992
vt 0.951596 0.511633
vt 0.911933 0.511252
vt 0.868458 0.511337
vt 0.782041 0.511633
vt 0.825972 0.510754
vt 0.616141 0.053508
vt 0.680133 0.012007
vt 0.702078 0.072854
vt 0.643903 0.106295
vt 0.759053 0.012321
vt 0.755078 0.065239
vt 0.822956 0.037244
vt 0.801124 0.076010
vt 0.555034 0.079132
vt 0.569445 0.146036
vt 0.875090 0.070852
vt 0.924529 0.093294
vt 0.912138 0.152452
vt 0.850841 0.113388
vt 0.670481 0.137410
vt 0.615114 0.199860
vt 0.869035 0.202638
vt 0.824410 0.142768
vt 0.786714 0.104969
vt 0.715326 0.106306
vt 0.751241 0.098220
vt 0.724651 0.129583
vt 0.707900 0.165192
vt 0.749500 0.124824
vt 0.773297 0.130028
vt 0.673097 0.212934
vt 0.808083 0.212934
vt 0.786714 0.165602
vt 0.749930 0.193167
vt 0.873594 0.414437
vt 0.827854 0.419186
vt 0.780702 0.414670
vt 0.732887 0.411984
vt 0.921453 0.413663
vt 0.960299 0.420388
vt 0.690158 0.415766
vt 0.827735 0.424618
vt 0.873181 0.420079
vt 0.780885 0.420324
vt 0.733387 0.417759
vt 0.920741 0.419397
vt 0.959647 0.425737
vt 0.690652 0.421169
vt 0.140042 0.844530
vt 0.138475 0.915714
vt 0.155034 0.955363
vt 0.185513 0.832622
vt 0.238340 0.951625
vt 0.246539 0.913596
vt 0.229180 0.845179
vt 0.429493 0.122108
vt 0.519142 0.109501
vt 0.525947 0.168553
vt 0.438400 0.167470
vt 0.519835 0.221462
vt 0.438540 0.215348
vt 0.509842 0.271989
vt 0.432496 0.253992
vt 0.493340 0.312751
vt 0.419792 0.290888
vt 0.478590 0.348014
vt 0.408534 0.323922
vt 0.527701 0.275328
vt 0.506351 0.313104
vt 0.411843 0.035153
vt 0.482476 0.012280
vt 0.496862 0.062978
vt 0.417373 0.077886
vt 0.544908 0.102283
vt 0.548689 0.169511
vt 0.512620 0.057206
vt 0.549192 0.224446
vt 0.490429 0.353693
vt 0.494955 0.006431
vt 0.053171 0.660743
vt 0.074228 0.697218
vt 0.053740 0.715141
vt 0.032066 0.668135
vt 0.123074 0.717421
vt 0.175780 0.711550
vt 0.176892 0.736597
vt 0.119260 0.748927
vt 0.237352 0.699200
vt 0.276629 0.663031
vt 0.292737 0.679716
vt 0.246617 0.735784
vt 0.034397 0.621666
vt 0.018993 0.626241
vt 0.308314 0.622312
vt 0.322816 0.628350
vt 0.014101 0.730945
vt 0.012048 0.669159
vt 0.008101 0.626998
vt 0.327172 0.692865
vt 0.333621 0.630101
vt 0.013243 0.764363
vt 0.285506 0.739818
vt 0.297112 0.761166
vt 0.407091 0.121194
vt 0.396814 0.083524
vt 0.401635 0.035424
vt 0.410014 0.286527
vt 0.399152 0.319229
vt 0.421818 0.252511
vt 0.427351 0.213715
vt 0.426944 0.169665
vt 0.302479 0.135111
vt 0.415269 0.168736
vt 0.302686 0.166675
vt 0.415809 0.210919
vt 0.303807 0.195068
vt 0.409982 0.251101
vt 0.304359 0.231246
vt 0.399533 0.285156
vt 0.303031 0.252683
vt 0.388708 0.317848
vt 0.295136 0.279958
vt 0.295136 0.074533
vt 0.390927 0.039280
vt 0.303270 0.111109
vt 0.764442 0.288076
vt 0.728537 0.273824
vt 0.731216 0.263147
vt 0.772979 0.280028
vt 0.674754 0.282850
vt 0.637738 0.295935
vt 0.633743 0.284816
vt 0.670698 0.271460
vt 0.704836 0.272692
vt 0.704046 0.259219
vt 0.611112 0.302380
vt 0.607615 0.291018
vt 0.780899 0.310983
vt 0.789309 0.303630
vt 0.575520 0.310983
vt 0.571158 0.298400
vt 0.603121 0.278013
vt 0.630953 0.271638
vt 0.667010 0.259936
vt 0.732342 0.226544
vt 0.747946 0.226672
vt 0.768132 0.240514
vt 0.569704 0.282448
vt 0.799383 0.297811
vt 0.567684 0.261683
vt 0.598109 0.257744
vt 0.628404 0.251193
vt 0.659464 0.239269
vt 0.730586 0.208016
vt 0.751921 0.210543
vt 0.779991 0.226508
vt 0.815820 0.285667
vt 0.913263 0.284200
vt 0.977260 0.280702
vt 0.958539 0.302808
vt 0.931741 0.302808
vt 0.916090 0.213033
vt 0.968838 0.211221
vt 0.950345 0.200319
vt 0.404110 0.712995
vt 0.397566 0.739507
vt 0.377037 0.747656
vt 0.008266 0.076520
vt 0.006383 0.064888
vt 0.047278 0.061725
vt 0.050515 0.073120
vt 0.081588 0.049489
vt 0.086315 0.061674
vt 0.119696 0.028411
vt 0.124656 0.042521
vt 0.152893 0.018040
vt 0.159307 0.029473
vt 0.071853 0.229595
vt 0.132506 0.225374
vt 0.134173 0.233354
vt 0.072226 0.237840
vt 0.013771 0.225228
vt 0.013715 0.233239
vt 0.191638 0.214552
vt 0.194759 0.222350
vt 0.251558 0.185642
vt 0.254714 0.193572
vt 0.133195 0.320000
vt 0.206284 0.316478
vt 0.206841 0.323547
vt 0.133210 0.326365
vt 0.004521 0.313211
vt 0.062096 0.317549
vt 0.061633 0.323273
vt 0.004132 0.318950
vt 0.272718 0.309772
vt 0.273206 0.318057
vt 0.197605 0.373898
vt 0.124158 0.371917
vt 0.055261 0.376987
vt 0.000289 0.381811
vt 0.265488 0.389704
vt 0.120514 0.411130
vt 0.184400 0.417983
vt 0.181633 0.425083
vt 0.120005 0.418078
vt 0.008358 0.427180
vt 0.064072 0.420631
vt 0.066234 0.428095
vt 0.010365 0.434114
vt 0.245787 0.443498
vt 0.241908 0.451524
vt 0.157098 0.462010
vt 0.117131 0.456021
vt 0.083879 0.467692
vt 0.055097 0.497823
vt 0.197188 0.500088
vt 0.125520 0.519526
vt 0.157926 0.137261
vt 0.154616 0.126723
vt 0.205936 0.094475
vt 0.212353 0.103773
vt 0.116442 0.141991
vt 0.112931 0.132778
vt 0.071468 0.143552
vt 0.068923 0.135012
vt 0.015927 0.142627
vt 0.015019 0.134486
vt 0.148041 0.009715
vt 0.117921 0.022587
vt 0.116155 0.016793
vt 0.143552 0.000289
vt 0.076740 0.039228
vt 0.045789 0.046623
vt 0.044307 0.030953
vt 0.071456 0.028599
vt 0.003731 0.050876
vt 0.000289 0.036128
vt 0.300277 0.701614
s 0
usemtl Munch_mat
f 25/1/1 26/2/1 29/3/1 28/4/1
f 26/2/2 27/5/2 30/6/2 29/3/2
f 112/7/3 7/8/3 8/9/3 113/10/3
f 113/10/4 8/9/4 4/11/4 110/12/4
f 29/3/5 30/6/5 9/13/5 10/14/5
f 28/4/6 29/3/6 10/14/6 11/15/6
f 5/16/7 28/4/7 11/15/7 3/17/7
f 6/18/8 25/1/8 28/4/8 5/16/8
f 31/19/9 32/20/9 35/21/9 34/22/9
f 32/20/10 33/23/10 36/24/10 35/21/10
f 34/25/11 35/26/11 38/27/11 37/28/11
f 35/26/12 36/29/12 39/30/12 38/27/12
f 3/17/13 11/15/13 31/19/13 14/31/13
f 11/15/14 10/14/14 32/20/14 31/19/14
f 10/14/15 9/13/15 33/23/15 32/20/15
f 110/12/16 4/11/16 15/32/16 114/33/16
f 101/34/17 96/35/17 81/36/17 82/37/17
f 115/38/18 16/39/18 17/40/18 116/41/18
f 116/41/19 17/40/19 2/42/19 111/43/19
f 38/27/20 39/30/20 18/44/20 19/45/20
f 37/28/21 38/27/21 19/45/21 20/46/21
f 12/47/22 37/28/22 20/46/22 1/48/22
f 13/49/23 34/25/23 37/28/23 12/47/23
f 14/31/24 31/19/24 34/22/24 13/50/24
f 74/51/25 76/52/25 61/53/25 55/54/25
f 40/55/26 41/56/26 43/57/26 42/58/26
f 72/59/27 73/60/27 56/61/27 57/62/27
f 75/63/28 72/59/28 57/62/28 59/64/28
f 19/45/29 18/44/29 41/56/29 40/55/29
f 111/43/30 2/42/30 23/65/30 117/66/30
f 117/66/31 23/65/31 24/67/31 118/68/31
f 76/52/32 71/69/32 63/70/32 61/53/32
f 173/71/33 172/72/33 45/73/33 46/74/33
f 44/75/34 45/73/34 172/72/34 170/76/34
f 6/18/35 5/16/35 45/73/35 44/75/35
f 5/16/36 3/17/36 14/31/36 45/73/36
f 45/73/37 14/31/37 13/50/37 46/74/37
f 46/77/38 13/49/38 12/47/38 48/78/38
f 48/78/39 12/47/39 1/48/39 22/79/39
f 47/80/40 48/78/40 22/79/40 21/81/40
f 49/82/41 50/83/41 52/84/41 51/85/41
f 51/86/42 52/87/42 54/88/42 53/89/42
f 4/11/43 8/9/43 49/82/43 15/32/43
f 8/9/44 7/8/44 50/83/44 49/82/44
f 53/89/45 54/88/45 24/67/45 23/65/45
f 17/40/46 53/89/46 23/65/46 2/42/46
f 100/90/47 95/91/47 80/92/47 85/93/47
f 99/94/48 94/95/48 83/96/48 78/97/48
f 60/98/49 61/53/49 63/70/49 62/99/49
f 57/62/50 56/61/50 60/98/50 59/64/50
f 56/61/51 55/54/51 61/53/51 60/98/51
f 59/64/52 60/98/52 62/99/52 58/100/52
f 77/101/53 75/63/53 59/64/53 58/100/53
f 73/60/54 74/51/54 55/54/54 56/61/54
f 20/46/55 19/45/55 64/102/55 68/103/55
f 21/81/56 22/79/56 65/104/56 70/105/56
f 40/55/57 42/58/57 66/106/57 69/107/57
f 22/79/58 1/48/58 67/108/58 65/104/58
f 1/48/59 20/46/59 68/103/59 67/108/59
f 19/45/60 40/55/60 69/107/60 64/102/60
f 68/109/61 64/110/61 74/51/61 73/60/61
f 70/111/62 65/112/62 75/63/62 77/101/62
f 69/113/63 66/114/63 71/69/63 76/52/63
f 65/112/64 67/115/64 72/59/64 75/63/64
f 67/115/65 68/109/65 73/60/65 72/59/65
f 64/110/66 69/113/66 76/52/66 74/51/66
f 119/116/67 78/97/67 79/117/67 120/118/67
f 79/117/68 84/119/68 85/93/68 80/92/68
f 78/97/69 83/96/69 84/119/69 79/117/69
f 124/120/70 99/94/70 78/97/70 119/116/70
f 94/95/71 97/121/71 84/119/71 83/96/71
f 95/122/72 98/123/72 79/124/72 80/125/72
f 123/126/73 101/127/73 82/128/73 120/129/73
f 97/121/74 100/90/74 85/93/74 84/119/74
f 51/130/75 53/131/75 89/132/75 92/133/75
f 115/134/76 36/135/76 91/136/76 121/137/76
f 17/138/77 16/139/77 93/140/77 88/141/77
f 49/142/78 51/130/78 92/133/78 87/143/78
f 114/144/79 15/145/79 86/146/79 122/147/79
f 15/145/80 49/142/80 87/143/80 86/146/80
f 53/131/81 17/148/81 88/149/81 89/132/81
f 36/150/82 33/151/82 90/152/82 91/153/82
f 108/154/83 103/155/83 100/90/83 97/121/83
f 126/156/84 104/157/84 101/127/84 123/126/84
f 106/158/85 109/159/85 98/123/85 95/122/85
f 105/160/86 108/154/86 97/121/86 94/95/86
f 125/161/87 102/162/87 99/94/87 124/120/87
f 102/162/88 105/160/88 94/95/88 99/94/88
f 103/155/89 106/163/89 95/91/89 100/90/89
f 104/164/90 107/165/90 96/35/90 101/34/90
f 91/153/91 90/152/91 107/165/91 104/164/91
f 89/132/92 88/149/92 106/163/92 103/155/92
f 86/146/93 87/143/93 105/160/93 102/162/93
f 122/147/94 86/146/94 102/162/94 125/161/94
f 87/143/95 92/133/95 108/154/95 105/160/95
f 88/141/96 93/140/96 109/159/96 106/158/96
f 121/137/97 91/136/97 104/157/97 126/156/97
f 92/133/98 89/132/98 103/155/98 108/154/98
f 93/140/99 121/137/99 126/156/99 109/159/99
f 90/152/100 122/147/100 125/161/100 107/165/100
f 107/165/101 125/161/101 124/120/101 96/35/101
f 109/159/102 126/156/102 123/126/102 98/123/102
f 33/151/103 114/144/103 122/147/103 90/152/103
f 16/139/104 115/134/104 121/137/104 93/140/104
f 98/123/105 123/126/105 120/129/105 79/124/105
f 96/35/106 124/120/106 119/116/106 81/36/106
f 81/36/107 119/116/107 120/118/107 82/37/107
f 41/56/108 117/66/108 118/68/108 43/57/108
f 18/44/109 111/43/109 117/66/109 41/56/109
f 39/30/110 116/41/110 111/43/110 18/44/110
f 36/29/111 115/38/111 116/41/111 39/30/111
f 9/13/112 110/12/112 114/33/112 33/23/112
f 30/6/113 113/10/113 110/12/113 9/13/113
f 27/5/114 112/7/114 113/10/114 30/6/114
f 127/166/115 128/167/115 142/168/115 143/169/115
f 129/170/116 130/171/116 149/172/116 148/173/116
f 130/171/117 132/174/117 151/175/117 149/172/117
f 146/176/118 147/177/118 136/178/118 135/179/118
f 136/178/119 147/177/119 164/180/119 161/181/119
f 143/169/120 144/182/120 139/183/120 138/184/120
f 145/185/121 142/168/121 162/186/121 163/187/121
f 127/166/122 143/169/122 138/184/122 137/188/122
f 144/182/123 146/176/123 140/189/123 139/183/123
f 146/176/124 135/179/124 141/190/124 140/189/124
f 223/191/125 224/192/125 143/169/125 142/168/125
f 224/192/126 225/193/126 144/182/126 143/169/126
f 226/194/127 223/191/127 142/168/127 145/185/127
f 225/193/128 227/195/128 146/176/128 144/182/128
f 228/196/129 226/197/129 145/198/129 147/177/129
f 227/195/130 228/196/130 147/177/130 146/176/130
f 134/199/131 133/200/131 152/201/131 153/202/131
f 133/200/132 131/203/132 150/204/132 152/201/132
f 131/203/133 129/170/133 148/173/133 150/204/133
f 132/205/134 134/199/134 153/202/134 151/206/134
f 149/172/135 151/175/135 157/207/135 155/208/135
f 153/202/136 152/201/136 158/209/136 159/210/136
f 152/201/137 150/204/137 156/211/137 158/209/137
f 150/204/138 148/173/138 154/212/138 156/211/138
f 151/206/139 153/202/139 159/210/139 157/213/139
f 148/173/140 149/172/140 155/208/140 154/212/140
f 142/168/141 128/167/141 160/214/141 162/186/141
f 147/177/142 145/198/142 163/215/142 164/180/142
f 164/180/143 163/215/143 168/216/143 169/217/143
f 162/186/144 160/214/144 165/218/144 167/219/144
f 161/181/145 164/180/145 169/217/145 166/220/145
f 163/187/146 162/186/146 167/219/146 168/221/146
f 166/222/147 169/223/147 174/224/147 171/225/147
f 168/226/148 167/227/148 172/228/148 173/229/148
f 169/223/149 168/226/149 173/229/149 174/224/149
f 167/227/150 165/230/150 170/231/150 172/228/150
f 220/232/151 217/233/151 180/234/151 178/235/151
f 221/236/152 220/237/152 178/238/152 176/239/152
f 222/240/153 221/236/153 176/239/153 175/241/153
f 217/233/154 218/242/154 179/243/154 180/234/154
f 218/242/155 219/244/155 177/245/155 179/243/155
f 219/244/156 222/240/156 175/241/156 177/245/156
f 175/241/157 176/239/157 182/246/157 181/247/157
f 180/234/158 179/243/158 185/248/158 186/249/158
f 179/243/159 177/245/159 183/250/159 185/248/159
f 177/245/160 175/241/160 181/247/160 183/250/160
f 178/235/161 180/234/161 186/249/161 184/251/161
f 176/239/162 178/238/162 184/252/162 182/246/162
f 184/251/161 186/249/161 192/253/161 190/254/161
f 182/246/162 184/252/162 190/255/162 188/256/162
f 181/247/157 182/246/157 188/256/157 187/257/157
f 186/249/158 185/248/158 191/258/158 192/253/158
f 185/248/159 183/250/159 189/259/159 191/258/159
f 183/250/160 181/247/160 187/257/160 189/259/160
f 192/260/163 191/261/163 197/262/163 198/263/163
f 191/261/164 189/264/164 195/265/164 197/262/164
f 189/264/165 187/266/165 193/267/165 195/265/165
f 190/268/166 192/260/166 198/263/166 196/269/166
f 188/270/167 190/271/167 196/272/167 194/273/167
f 187/266/168 188/270/168 194/273/168 193/267/168
f 196/269/169 198/263/169 204/274/169 202/275/169
f 194/273/170 196/272/170 202/276/170 200/277/170
f 193/267/171 194/273/171 200/277/171 199/278/171
f 198/263/172 197/262/172 203/279/172 204/274/172
f 197/262/173 195/265/173 201/280/173 203/279/173
f 195/265/174 193/267/174 199/278/174 201/280/174
f 204/274/175 203/279/175 209/281/175 210/282/175
f 203/279/176 201/280/176 207/283/176 209/281/176
f 201/280/177 199/278/177 205/284/177 207/283/177
f 202/275/178 204/274/178 210/282/178 208/285/178
f 200/277/179 202/276/179 208/286/179 206/287/179
f 199/278/180 200/277/180 206/287/180 205/284/180
f 205/284/181 206/287/181 208/288/181 207/283/181
f 156/211/182 154/212/182 214/289/182 216/290/182
f 207/283/183 208/288/183 210/282/183 209/281/183
f 158/209/184 156/211/184 216/290/184 215/291/184
f 159/210/185 158/209/185 215/291/185 211/292/185
f 154/212/186 155/208/186 213/293/186 214/289/186
f 155/208/187 157/207/187 212/294/187 213/293/187
f 157/213/188 159/210/188 211/292/188 212/295/188
f 307/296/189 304/297/189 222/240/189 219/244/189
f 306/298/190 307/296/190 219/244/190 218/242/190
f 305/299/191 306/298/191 218/242/191 217/233/191
f 304/297/192 303/300/192 221/236/192 222/240/192
f 303/300/193 302/301/193 220/237/193 221/236/193
f 302/302/194 305/299/194 217/233/194 220/232/194
f 133/303/195 134/304/195 228/196/195 227/195/195
f 134/304/196 132/305/196 226/197/196 228/196/196
f 131/306/197 133/303/197 227/195/197 225/193/197
f 132/307/198 130/308/198 223/191/198 226/194/198
f 129/309/199 131/306/199 225/193/199 224/192/199
f 130/308/200 129/309/200 224/192/200 223/191/200
f 266/310/201 230/311/201 232/312/201 262/313/201
f 262/313/202 232/312/202 234/314/202 263/315/202
f 263/315/203 234/314/203 236/316/203 264/317/203
f 264/317/204 236/316/204 238/318/204 265/319/204
f 265/319/205 238/318/205 240/320/205 267/321/205
f 238/318/206 236/316/206 246/322/206 247/323/206
f 267/324/207 240/325/207 242/326/207 268/327/207
f 268/327/208 242/326/208 230/311/208 266/310/208
f 232/312/209 230/311/209 243/328/209 244/329/209
f 230/311/210 242/326/210 249/330/210 243/328/210
f 234/314/211 232/312/211 244/329/211 245/331/211
f 240/320/212 238/318/212 247/323/212 248/332/212
f 236/316/213 234/314/213 245/331/213 246/322/213
f 242/326/214 240/325/214 248/333/214 249/330/214
f 247/334/215 246/335/215 253/336/215 254/337/215
f 245/338/216 244/339/216 251/340/216 252/341/216
f 243/342/217 249/343/217 256/344/217 250/345/217
f 248/346/218 247/334/218 254/337/218 255/347/218
f 246/335/219 245/338/219 252/341/219 253/336/219
f 244/339/220 243/342/220 250/345/220 251/340/220
f 249/343/221 248/348/221 255/349/221 256/344/221
f 253/336/222 259/350/222 258/351/222 254/337/222
f 258/351/223 257/352/223 255/347/223 254/337/223
f 260/353/224 256/344/224 255/349/224 257/354/224
f 252/341/225 261/355/225 259/350/225 253/336/225
f 252/341/226 251/340/226 139/183/226 140/189/226
f 138/184/227 250/345/227 365/356/227 364/357/227
f 251/340/228 250/345/228 138/184/228 139/183/228
f 261/355/229 252/341/229 140/189/229 141/190/229
f 266/310/230 275/358/230 274/359/230 268/327/230
f 268/327/231 281/360/231 267/324/231
f 280/361/232 265/319/232 267/321/232 281/362/232
f 279/363/233 264/317/233 265/319/233 280/361/233
f 278/364/234 263/315/234 264/317/234 279/363/234
f 277/365/235 262/313/235 263/315/235 278/364/235
f 274/359/236 281/360/236 268/327/236
f 229/366/237 275/358/237 269/367/237 231/368/237
f 231/368/238 269/367/238 270/369/238 233/370/238
f 233/370/239 270/369/239 271/371/239 235/372/239
f 235/372/240 271/371/240 272/373/240 237/374/240
f 237/374/241 272/373/241 273/375/241 239/376/241
f 239/377/242 273/378/242 274/359/242 241/379/242
f 241/379/243 274/359/243 275/358/243 229/366/243
f 262/313/244 277/365/244 266/310/244
f 269/367/245 277/365/245 278/364/245 270/369/245
f 270/369/246 278/364/246 279/363/246 271/371/246
f 271/371/247 279/363/247 280/361/247 272/373/247
f 272/373/248 280/361/248 281/362/248 273/375/248
f 273/378/249 281/360/249 274/359/249
f 269/367/250 275/358/250 277/365/250
f 275/358/251 266/310/251 277/365/251
f 233/380/252 235/381/252 284/382/252 283/383/252
f 239/384/253 241/385/253 287/386/253 286/387/253
f 235/381/254 237/388/254 285/389/254 284/382/254
f 241/385/255 229/390/255 282/391/255 287/386/255
f 231/392/256 233/380/256 283/383/256 276/393/256
f 229/390/257 231/394/257 276/395/257 282/391/257
f 237/388/258 239/384/258 286/387/258 285/389/258
f 287/386/259 282/391/259 289/396/259 294/397/259
f 285/389/260 286/387/260 293/398/260 292/399/260
f 283/383/261 284/382/261 291/400/261 290/401/261
f 282/391/262 276/395/262 288/402/262 289/396/262
f 276/393/263 283/383/263 290/401/263 288/403/263
f 286/387/264 287/386/264 294/397/264 293/398/264
f 284/382/265 285/389/265 292/399/265 291/400/265
f 289/396/266 288/402/266 295/404/266 296/405/266
f 293/398/267 294/397/267 301/406/267 300/407/267
f 291/400/268 292/399/268 299/408/268 298/409/268
f 288/403/269 290/401/269 297/410/269 295/411/269
f 294/397/270 289/396/270 296/405/270 301/406/270
f 292/399/271 293/398/271 300/407/271 299/408/271
f 290/401/272 291/400/272 298/409/272 297/410/272
f 295/412/273 300/413/273 301/414/273 296/415/273
f 300/413/273 295/412/273 297/416/273 299/417/273
f 299/417/273 297/416/273 298/418/273
f 212/295/274 211/292/274 305/299/274 302/302/274
f 213/293/275 212/294/275 302/301/275 303/300/275
f 214/289/276 213/293/276 303/300/276 304/297/276
f 211/292/277 215/291/277 306/298/277 305/299/277
f 215/291/278 216/290/278 307/296/278 306/298/278
f 216/290/279 214/289/279 304/297/279 307/296/279
f 173/419/280 46/77/280 48/78/280 174/420/280
f 48/78/281 47/80/281 171/421/281 174/420/281
f 372/422/282 309/423/282 311/424/282 373/425/282
f 373/425/283 311/424/283 313/426/283 374/427/283
f 374/427/284 313/426/284 315/428/284 375/429/284
f 375/429/285 315/428/285 317/430/285 376/431/285
f 350/432/286 349/433/286 320/434/286 319/435/286
f 351/436/287 350/432/287 319/435/287 318/437/287
f 349/433/288 352/438/288 321/439/288 320/434/288
f 352/438/289 353/440/289 322/441/289 321/439/289
f 355/442/290 354/443/290 326/444/290 325/445/290
f 357/446/291 356/447/291 324/448/291 323/449/291
f 354/443/292 358/450/292 327/451/292 326/444/292
f 356/447/293 355/442/293 325/445/293 324/448/293
f 325/445/294 326/444/294 331/452/294 330/453/294
f 323/449/295 324/448/295 329/454/295 328/455/295
f 326/444/296 327/451/296 332/456/296 331/452/296
f 324/448/297 325/445/297 330/453/297 329/454/297
f 360/457/298 359/458/298 336/459/298 335/460/298
f 362/461/299 361/462/299 334/463/299 333/464/299
f 359/458/300 363/465/300 337/466/300 336/459/300
f 361/462/301 360/457/301 335/460/301 334/463/301
f 335/460/302 336/459/302 341/467/302 340/468/302
f 333/464/303 334/463/303 339/469/303 338/470/303
f 336/459/304 337/466/304 342/471/304 341/467/304
f 334/463/305 335/460/305 340/468/305 339/469/305
f 338/470/306 339/469/306 340/468/306 343/472/306
f 314/473/307 347/474/307 348/475/307 316/476/307
f 343/472/308 340/468/308 341/467/308 342/471/308
f 312/477/309 346/478/309 347/474/309 314/473/309
f 310/479/310 345/480/310 346/478/310 312/477/310
f 308/481/311 344/482/311 345/480/311 310/479/311
f 314/473/312 316/476/312 353/440/312 352/438/312
f 312/477/313 314/473/313 352/438/313 349/433/313
f 308/481/314 310/479/314 350/432/314 351/436/314
f 310/479/315 312/477/315 349/433/315 350/432/315
f 319/435/316 320/434/316 355/442/316 356/447/316
f 321/439/317 322/441/317 358/450/317 354/443/317
f 318/437/318 319/435/318 356/447/318 357/446/318
f 320/434/319 321/439/319 354/443/319 355/442/319
f 329/454/320 330/453/320 360/457/320 361/462/320
f 331/452/321 332/456/321 363/465/321 359/458/321
f 328/455/322 329/454/322 361/462/322 362/461/322
f 330/453/323 331/452/323 359/458/323 360/457/323
f 368/483/324 369/484/324 366/485/324 260/486/324
f 371/487/325 370/488/325 364/489/325 365/490/325
f 370/488/326 367/491/326 137/492/326 364/489/326
f 369/484/327 371/487/327 365/490/327 366/485/327
f 250/345/328 256/344/328 366/493/328 365/356/328
f 137/188/329 138/184/329 364/357/329
f 260/353/330 366/493/330 256/344/330
f 315/428/331 313/426/331 371/487/331 369/484/331
f 311/424/332 309/423/332 367/491/332 370/488/332
f 313/426/333 311/424/333 370/488/333 371/487/333
f 317/430/334 315/428/334 369/484/334 368/483/334
f 347/474/335 375/429/335 376/431/335 348/475/335
f 346/478/336 374/427/336 375/429/336 347/474/336
f 345/480/337 373/425/337 374/427/337 346/478/337
f 344/482/338 372/422/338 373/425/338 345/480/338
f 25/1/339 397/4/339 398/3/339 26/2/339
f 26/2/340 398/3/340 399/6/340 27/5/340
f 112/7/341 467/10/341 382/9/341 7/8/341
f 467/10/342 465/12/342 380/11/342 382/9/342
f 398/3/343 384/14/343 383/13/343 399/6/343
f 397/4/344 385/15/344 384/14/344 398/3/344
f 381/16/345 379/17/345 385/15/345 397/4/345
f 6/18/346 381/16/346 397/4/346 25/1/346
f 400/19/347 403/22/347 404/21/347 401/20/347
f 401/20/348 404/21/348 405/24/348 402/23/348
f 403/25/349 406/28/349 407/27/349 404/26/349
f 404/26/350 407/27/350 408/30/350 405/29/350
f 379/17/351 388/31/351 400/19/351 385/15/351
f 385/15/352 400/19/352 401/20/352 384/14/352
f 384/14/353 401/20/353 402/23/353 383/13/353
f 465/12/354 468/33/354 389/32/354 380/11/354
f 456/34/355 437/37/355 436/36/355 451/35/355
f 469/38/356 470/41/356 391/40/356 390/39/356
f 470/41/357 466/43/357 378/42/357 391/40/357
f 407/27/358 393/45/358 392/44/358 408/30/358
f 406/28/359 394/46/359 393/45/359 407/27/359
f 386/47/360 377/48/360 394/46/360 406/28/360
f 387/49/361 386/47/361 406/28/361 403/25/361
f 388/31/362 387/50/362 403/22/362 400/19/362
f 430/51/363 417/54/363 422/53/363 432/52/363
f 409/55/364 42/58/364 43/57/364 410/56/364
f 428/59/365 419/62/365 418/61/365 429/60/365
f 431/63/366 420/64/366 419/62/366 428/59/366
f 393/45/367 409/55/367 410/56/367 392/44/367
f 466/43/368 471/66/368 396/65/368 378/42/368
f 471/66/369 118/68/369 24/67/369 396/65/369
f 432/52/370 422/53/370 63/70/370 71/69/370
f 514/71/371 412/74/371 411/73/371 513/72/371
f 44/75/372 170/76/372 513/72/372 411/73/372
f 6/18/373 44/75/373 411/73/373 381/16/373
f 381/16/374 411/73/374 388/31/374 379/17/374
f 411/73/375 412/74/375 387/50/375 388/31/375
f 412/77/376 413/78/376 386/47/376 387/49/376
f 413/78/377 395/79/377 377/48/377 386/47/377
f 47/80/378 21/81/378 395/79/378 413/78/378
f 414/82/379 415/85/379 52/84/379 50/83/379
f 415/86/380 416/89/380 54/88/380 52/87/380
f 380/11/381 389/32/381 414/82/381 382/9/381
f 382/9/382 414/82/382 50/83/382 7/8/382
f 416/89/383 396/65/383 24/67/383 54/88/383
f 391/40/384 378/42/384 396/65/384 416/89/384
f 455/90/385 440/93/385 435/92/385 450/91/385
f 454/94/386 433/97/386 438/96/386 449/95/386
f 421/98/387 62/99/387 63/70/387 422/53/387
f 419/62/388 420/64/388 421/98/388 418/61/388
f 418/61/389 421/98/389 422/53/389 417/54/389
f 420/64/390 58/100/390 62/99/390 421/98/390
f 77/101/391 58/100/391 420/64/391 431/63/391
f 429/60/392 418/61/392 417/54/392 430/51/392
f 394/46/393 426/103/393 423/102/393 393/45/393
f 21/81/394 70/105/394 424/104/394 395/79/394
f 409/55/395 427/107/395 66/106/395 42/58/395
f 395/79/396 424/104/396 425/108/396 377/48/396
f 377/48/397 425/108/397 426/103/397 394/46/397
f 393/45/398 423/102/398 427/107/398 409/55/398
f 426/109/399 429/60/399 430/51/399 423/110/399
f 70/111/400 77/101/400 431/63/400 424/112/400
f 427/113/401 432/52/401 71/69/401 66/114/401
f 424/112/402 431/63/402 428/59/402 425/115/402
f 425/115/403 428/59/403 429/60/403 426/109/403
f 423/110/404 430/51/404 432/52/404 427/113/404
f 472/116/405 473/118/405 434/117/405 433/97/405
f 434/117/406 435/92/406 440/93/406 439/119/406
f 433/97/407 434/117/407 439/119/407 438/96/407
f 477/120/408 472/116/408 433/97/408 454/94/408
f 449/95/409 438/96/409 439/119/409 452/121/409
f 450/122/410 435/125/410 434/124/410 453/123/410
f 476/126/411 473/129/411 437/128/411 456/127/411
f 452/121/412 439/119/412 440/93/412 455/90/412
f 415/130/413 447/133/413 444/132/413 416/131/413
f 469/134/414 474/137/414 446/136/414 405/135/414
f 391/138/415 443/141/415 448/140/415 390/139/415
f 414/142/416 442/143/416 447/133/416 415/130/416
f 468/144/417 475/147/417 441/146/417 389/145/417
f 389/145/418 441/146/418 442/143/418 414/142/418
f 416/131/419 444/132/419 443/149/419 391/148/419
f 405/150/420 446/153/420 445/152/420 402/151/420
f 463/154/421 452/121/421 455/90/421 458/155/421
f 479/156/422 476/126/422 456/127/422 459/157/422
f 461/158/423 450/122/423 453/123/423 464/159/423
f 460/160/424 449/95/424 452/121/424 463/154/424
f 478/161/425 477/120/425 454/94/425 457/162/425
f 457/162/426 454/94/426 449/95/426 460/160/426
f 458/155/427 455/90/427 450/91/427 461/163/427
f 459/164/428 456/34/428 451/35/428 462/165/428
f 446/153/429 459/164/429 462/165/429 445/152/429
f 444/132/430 458/155/430 461/163/430 443/149/430
f 441/146/431 457/162/431 460/160/431 442/143/431
f 475/147/432 478/161/432 457/162/432 441/146/432
f 442/143/433 460/160/433 463/154/433 447/133/433
f 443/141/434 461/158/434 464/159/434 448/140/434
f 474/137/435 479/156/435 459/157/435 446/136/435
f 447/133/436 463/154/436 458/155/436 444/132/436
f 448/140/437 464/159/437 479/156/437 474/137/437
f 445/152/438 462/165/438 478/161/438 475/147/438
f 462/165/439 451/35/439 477/120/439 478/161/439
f 464/159/440 453/123/440 476/126/440 479/156/440
f 402/151/441 445/152/441 475/147/441 468/144/441
f 390/139/442 448/140/442 474/137/442 469/134/442
f 453/123/443 434/124/443 473/129/443 476/126/443
f 451/35/444 436/36/444 472/116/444 477/120/444
f 436/36/445 437/37/445 473/118/445 472/116/445
f 410/56/446 43/57/446 118/68/446 471/66/446
f 392/44/447 410/56/447 471/66/447 466/43/447
f 408/30/448 392/44/448 466/43/448 470/41/448
f 405/29/449 408/30/449 470/41/449 469/38/449
f 383/13/450 402/23/450 468/33/450 465/12/450
f 399/6/451 383/13/451 465/12/451 467/10/451
f 27/5/452 399/6/452 467/10/452 112/7/452
f 127/166/453 490/169/453 489/168/453 128/167/453
f 480/170/454 495/173/454 496/172/454 481/171/454
f 481/171/455 496/172/455 498/175/455 483/174/455
f 493/176/456 135/179/456 136/178/456 494/177/456
f 136/178/457 161/181/457 509/180/457 494/177/457
f 490/169/458 486/184/458 487/183/458 491/182/458
f 492/185/459 508/187/459 507/186/459 489/168/459
f 127/166/460 137/188/460 486/184/460 490/169/460
f 491/182/461 487/183/461 488/189/461 493/176/461
f 493/176/462 488/189/462 141/190/462 135/179/462
f 564/191/463 489/168/463 490/169/463 565/192/463
f 565/192/464 490/169/464 491/182/464 566/193/464
f 567/194/465 492/185/465 489/168/465 564/191/465
f 566/193/466 491/182/466 493/176/466 568/195/466
f 569/196/467 494/177/467 492/198/467 567/197/467
f 568/195/468 493/176/468 494/177/468 569/196/468
f 485/199/469 500/202/469 499/201/469 484/200/469
f 484/200/470 499/201/470 497/204/470 482/203/470
f 482/203/471 497/204/471 495/173/471 480/170/471
f 483/205/472 498/206/472 500/202/472 485/199/472
f 496/172/473 502/208/473 504/207/473 498/175/473
f 500/202/474 506/210/474 505/209/474 499/201/474
f 499/201/475 505/209/475 503/211/475 497/204/475
f 497/204/476 503/211/476 501/212/476 495/173/476
f 498/206/477 504/213/477 506/210/477 500/202/477
f 495/173/478 501/212/478 502/208/478 496/172/478
f 489/168/479 507/186/479 160/214/479 128/167/479
f 494/177/480 509/180/480 508/215/480 492/198/480
f 509/180/481 512/217/481 511/216/481 508/215/481
f 507/186/482 510/219/482 165/218/482 160/214/482
f 161/181/483 166/220/483 512/217/483 509/180/483
f 508/187/484 511/221/484 510/219/484 507/186/484
f 166/222/485 171/225/485 515/224/485 512/223/485
f 511/226/486 514/229/486 513/228/486 510/227/486
f 512/223/487 515/224/487 514/229/487 511/226/487
f 510/227/488 513/228/488 170/231/488 165/230/488
f 561/232/489 519/235/489 521/234/489 558/233/489
f 562/236/490 517/239/490 519/238/490 561/237/490
f 563/240/491 516/241/491 517/239/491 562/236/491
f 558/233/492 521/234/492 520/243/492 559/242/492
f 559/242/493 520/243/493 518/245/493 560/244/493
f 560/244/494 518/245/494 516/241/494 563/240/494
f 516/241/157 522/247/157 523/246/157 517/239/157
f 521/234/158 527/249/158 526/248/158 520/243/158
f 520/243/159 526/248/159 524/250/159 518/245/159
f 518/245/160 524/250/160 522/247/160 516/241/160
f 519/235/161 525/251/161 527/249/161 521/234/161
f 517/239/162 523/246/162 525/252/162 519/238/162
f 525/251/161 531/254/161 533/253/161 527/249/161
f 523/246/162 529/256/162 531/255/162 525/252/162
f 522/247/157 528/257/157 529/256/157 523/246/157
f 527/249/158 533/253/158 532/258/158 526/248/158
f 526/248/159 532/258/159 530/259/159 524/250/159
f 524/250/160 530/259/160 528/257/160 522/247/160
f 533/260/495 539/263/495 538/262/495 532/261/495
f 532/261/496 538/262/496 536/265/496 530/264/496
f 530/264/497 536/265/497 534/267/497 528/266/497
f 531/268/498 537/269/498 539/263/498 533/260/498
f 529/270/499 535/273/499 537/272/499 531/271/499
f 528/266/500 534/267/500 535/273/500 529/270/500
f 537/269/169 543/275/169 545/274/169 539/263/169
f 535/273/170 541/277/170 543/276/170 537/272/170
f 534/267/171 540/278/171 541/277/171 535/273/171
f 539/263/172 545/274/172 544/279/172 538/262/172
f 538/262/173 544/279/173 542/280/173 536/265/173
f 536/265/174 542/280/174 540/278/174 534/267/174
f 545/274/501 551/282/501 550/281/501 544/279/501
f 544/279/502 550/281/502 548/283/502 542/280/502
f 542/280/503 548/283/503 546/284/503 540/278/503
f 543/275/504 549/285/504 551/282/504 545/274/504
f 541/277/505 547/287/505 549/286/505 543/276/505
f 540/278/506 546/284/506 547/287/506 541/277/506
f 546/284/507 548/283/507 549/288/507 547/287/507
f 503/211/508 557/290/508 555/289/508 501/212/508
f 548/283/509 550/281/509 551/282/509 549/288/509
f 505/209/510 556/291/510 557/290/510 503/211/510
f 506/210/511 552/292/511 556/291/511 505/209/511
f 501/212/512 555/289/512 554/293/512 502/208/512
f 502/208/513 554/293/513 553/294/513 504/207/513
f 504/213/514 553/295/514 552/292/514 506/210/514
f 643/296/515 560/244/515 563/240/515 640/297/515
f 642/298/516 559/242/516 560/244/516 643/296/516
f 641/299/517 558/233/517 559/242/517 642/298/517
f 640/297/518 563/240/518 562/236/518 639/300/518
f 639/300/519 562/236/519 561/237/519 638/301/519
f 638/302/520 561/232/520 558/233/520 641/299/520
f 484/303/521 568/195/521 569/196/521 485/304/521
f 485/304/522 569/196/522 567/197/522 483/305/522
f 482/306/523 566/193/523 568/195/523 484/303/523
f 483/307/524 567/194/524 564/191/524 481/308/524
f 480/309/525 565/192/525 566/193/525 482/306/525
f 481/308/526 564/191/526 565/192/526 480/309/526
f 602/310/527 598/313/527 573/312/527 571/311/527
f 598/313/528 599/315/528 575/314/528 573/312/528
f 599/315/529 600/317/529 577/316/529 575/314/529
f 600/317/530 601/319/530 579/318/530 577/316/530
f 601/319/531 603/321/531 581/320/531 579/318/531
f 579/318/532 588/323/532 587/322/532 577/316/532
f 603/324/533 604/327/533 583/326/533 581/325/533
f 604/327/534 602/310/534 571/311/534 583/326/534
f 573/312/535 585/329/535 584/328/535 571/311/535
f 571/311/536 584/328/536 590/330/536 583/326/536
f 575/314/537 586/331/537 585/329/537 573/312/537
f 581/320/538 589/332/538 588/323/538 579/318/538
f 577/316/539 587/322/539 586/331/539 575/314/539
f 583/326/540 590/330/540 589/333/540 581/325/540
f 588/334/541 595/337/541 594/336/541 587/335/541
f 586/338/542 593/341/542 592/340/542 585/339/542
f 584/342/543 591/345/543 597/344/543 590/343/543
f 589/346/544 596/347/544 595/337/544 588/334/544
f 587/335/545 594/336/545 593/341/545 586/338/545
f 585/339/546 592/340/546 591/345/546 584/342/546
f 590/343/547 597/344/547 596/349/547 589/348/547
f 594/336/548 595/337/548 258/351/548 259/350/548
f 258/351/549 595/337/549 596/347/549 257/352/549
f 260/353/550 257/354/550 596/349/550 597/344/550
f 593/341/551 594/336/551 259/350/551 261/355/551
f 593/341/552 488/189/552 487/183/552 592/340/552
f 486/184/553 677/357/553 678/356/553 591/345/553
f 592/340/554 487/183/554 486/184/554 591/345/554
f 261/355/555 141/190/555 488/189/555 593/341/555
f 602/310/556 604/327/556 610/359/556 611/358/556
f 604/327/557 603/324/557 617/360/557
f 616/361/558 617/362/558 603/321/558 601/319/558
f 615/363/559 616/361/559 601/319/559 600/317/559
f 614/364/560 615/363/560 600/317/560 599/315/560
f 613/365/561 614/364/561 599/315/561 598/313/561
f 610/359/562 604/327/562 617/360/562
f 570/366/563 572/368/563 605/367/563 611/358/563
f 572/368/564 574/370/564 606/369/564 605/367/564
f 574/370/565 576/372/565 607/371/565 606/369/565
f 576/372/566 578/374/566 608/373/566 607/371/566
f 578/374/567 580/376/567 609/375/567 608/373/567
f 580/377/568 582/379/568 610/359/568 609/378/568
f 582/379/569 570/366/569 611/358/569 610/359/569
f 598/313/570 602/310/570 613/365/570
f 605/367/571 606/369/571 614/364/571 613/365/571
f 606/369/572 607/371/572 615/363/572 614/364/572
f 607/371/573 608/373/573 616/361/573 615/363/573
f 608/373/574 609/375/574 617/362/574 616/361/574
f 609/378/575 610/359/575 617/360/575
f 605/367/576 613/365/576 611/358/576
f 611/358/577 613/365/577 602/310/577
f 574/380/578 619/383/578 620/382/578 576/381/578
f 580/384/579 622/387/579 623/386/579 582/385/579
f 576/381/580 620/382/580 621/389/580 578/388/580
f 582/385/581 623/386/581 618/391/581 570/390/581
f 572/392/582 612/393/582 619/383/582 574/380/582
f 570/390/583 618/391/583 612/395/583 572/394/583
f 578/388/584 621/389/584 622/387/584 580/384/584
f 623/386/585 630/397/585 625/396/585 618/391/585
f 621/389/586 628/399/586 629/398/586 622/387/586
f 619/383/587 626/401/587 627/400/587 620/382/587
f 618/391/588 625/396/588 624/402/588 612/395/588
f 612/393/589 624/403/589 626/401/589 619/383/589
f 622/387/590 629/398/590 630/397/590 623/386/590
f 620/382/591 627/400/591 628/399/591 621/389/591
f 625/396/592 632/405/592 631/404/592 624/402/592
f 629/398/593 636/407/593 637/406/593 630/397/593
f 627/400/594 634/409/594 635/408/594 628/399/594
f 624/403/595 631/411/595 633/410/595 626/401/595
f 630/397/596 637/406/596 632/405/596 625/396/596
f 628/399/597 635/408/597 636/407/597 629/398/597
f 626/401/598 633/410/598 634/409/598 627/400/598
f 631/412/273 632/415/273 637/414/273 636/413/273
f 636/413/273 635/417/273 633/416/273 631/412/273
f 635/417/273 634/418/273 633/416/273
f 553/295/599 638/302/599 641/299/599 552/292/599
f 554/293/600 639/300/600 638/301/600 553/294/600
f 555/289/601 640/297/601 639/300/601 554/293/601
f 552/292/602 641/299/602 642/298/602 556/291/602
f 556/291/603 642/298/603 643/296/603 557/290/603
f 557/290/604 643/296/604 640/297/604 555/289/604
f 514/419/605 515/420/605 413/78/605 412/77/605
f 413/78/606 515/420/606 171/421/606 47/80/606
f 372/422/607 683/425/607 645/424/607 309/423/607
f 683/425/608 684/427/608 647/426/608 645/424/608
f 684/427/609 685/429/609 649/428/609 647/426/609
f 685/429/610 376/431/610 317/430/610 649/428/610
f 669/432/611 650/435/611 651/434/611 668/433/611
f 351/436/612 318/437/612 650/435/612 669/432/612
f 668/433/613 651/434/613 652/439/613 670/438/613
f 670/438/614 652/439/614 322/441/614 353/440/614
f 672/442/615 654/445/615 655/444/615 671/443/615
f 357/446/616 323/449/616 653/448/616 673/447/616
f 671/443/617 655/444/617 327/451/617 358/450/617
f 673/447/618 653/448/618 654/445/618 672/442/618
f 654/445/619 657/453/619 658/452/619 655/444/619
f 323/449/620 328/455/620 656/454/620 653/448/620
f 655/444/621 658/452/621 332/456/621 327/451/621
f 653/448/622 656/454/622 657/453/622 654/445/622
f 675/457/623 660/460/623 661/459/623 674/458/623
f 362/461/624 333/464/624 659/463/624 676/462/624
f 674/458/625 661/459/625 337/466/625 363/465/625
f 676/462/626 659/463/626 660/460/626 675/457/626
f 660/460/627 663/468/627 664/467/627 661/459/627
f 333/464/628 338/470/628 662/469/628 659/463/628
f 661/459/629 664/467/629 342/471/629 337/466/629
f 659/463/630 662/469/630 663/468/630 660/460/630
f 338/470/631 343/472/631 663/468/631 662/469/631
f 648/473/632 316/476/632 348/475/632 667/474/632
f 343/472/633 342/471/633 664/467/633 663/468/633
f 646/477/634 648/473/634 667/474/634 666/478/634
f 644/479/635 646/477/635 666/478/635 665/480/635
f 308/481/636 644/479/636 665/480/636 344/482/636
f 648/473/637 670/438/637 353/440/637 316/476/637
f 646/477/638 668/433/638 670/438/638 648/473/638
f 308/481/639 351/436/639 669/432/639 644/479/639
f 644/479/640 669/432/640 668/433/640 646/477/640
f 650/435/641 673/447/641 672/442/641 651/434/641
f 652/439/642 671/443/642 358/450/642 322/441/642
f 318/437/643 357/446/643 673/447/643 650/435/643
f 651/434/644 672/442/644 671/443/644 652/439/644
f 656/454/645 676/462/645 675/457/645 657/453/645
f 658/452/646 674/458/646 363/465/646 332/456/646
f 328/455/647 362/461/647 676/462/647 656/454/647
f 657/453/648 675/457/648 674/458/648 658/452/648
f 368/483/649 260/486/649 679/485/649 680/484/649
f 682/487/650 678/490/650 677/489/650 681/488/650
f 681/488/651 677/489/651 137/492/651 367/491/651
f 680/484/652 679/485/652 678/490/652 682/487/652
f 591/345/653 678/356/653 679/493/653 597/344/653
f 137/188/654 677/357/654 486/184/654
f 260/353/655 597/344/655 679/493/655
f 649/428/656 680/484/656 682/487/656 647/426/656
f 645/424/657 681/488/657 367/491/657 309/423/657
f 647/426/658 682/487/658 681/488/658 645/424/658
f 317/430/659 368/483/659 680/484/659 649/428/659
f 667/474/660 348/475/660 376/431/660 685/429/660
f 666/478/661 667/474/661 685/429/661 684/427/661
f 665/480/662 666/478/662 684/427/662 683/425/662
f 344/482/663 665/480/663 683/425/663 372/422/663
o necklace
v -0.067756 1.398206 -0.104570
v -0.058190 1.425885 -0.083197
v -0.042711 1.412204 -0.053404
v -0.042711 1.376070 -0.056363
v -0.058190 1.367419 -0.087986
v -0.149422 1.389553 0.001076
v -0.128569 1.418427 0.007849
v -0.094830 1.406681 0.014020
v -0.094830 1.370547 0.011060
v -0.128569 1.359962 0.003061
v -0.117465 1.378946 0.130582
v -0.101029 1.409286 0.119458
v -0.074435 1.399912 0.096670
v -0.074435 1.363778 0.093710
v -0.101029 1.350820 0.114669
v 0.003693 1.405344 0.167584
v 0.003116 1.396992 0.132309
v 0.003116 1.360858 0.129349
v 0.003693 1.347327 0.157316
v 0.123621 1.379275 0.126557
v 0.106739 1.409570 0.115989
v 0.079425 1.400122 0.094101
v 0.079425 1.363988 0.091141
v 0.106739 1.351104 0.111200
v 0.151207 1.389964 -0.003943
v 0.130514 1.418782 0.003524
v 0.097031 1.406944 0.010816
v 0.097031 1.370810 0.007856
v 0.130514 1.360316 -0.001265
v 0.066037 1.398389 -0.106804
v 0.057113 1.426043 -0.085123
v 0.042675 1.412320 -0.054829
v 0.042675 1.376186 -0.057789
v 0.057113 1.367577 -0.089911
v -0.012217 1.376252 0.163468
v -0.010326 1.405872 0.161142
v -0.007266 1.397383 0.127538
v -0.007266 1.361249 0.124578
v -0.010326 1.347406 0.156353
v 0.020072 1.376297 0.162922
v 0.017501 1.405910 0.160671
v 0.013341 1.397412 0.127189
v 0.013341 1.361278 0.124230
v 0.017501 1.347444 0.155882
v -0.012031 1.374669 0.182795
v 0.004236 1.374137 0.189291
v 0.003879 1.404491 0.183107
v -0.010140 1.405019 0.176664
v -0.010140 1.358489 0.182738
v 0.003879 1.357962 0.189181
v 0.020257 1.374714 0.182248
v 0.017686 1.405057 0.176193
v 0.017686 1.358528 0.182267
v 0.017556 1.405657 0.163766
v 0.003748 1.405090 0.170680
v 0.017556 1.347280 0.157884
v 0.020127 1.375826 0.168667
v -0.012162 1.375781 0.169214
v -0.010271 1.405618 0.164237
v 0.003748 1.347161 0.159337
v -0.010271 1.347242 0.158355
v 0.003816 1.404779 0.174484
v 0.020195 1.375248 0.175729
v -0.012094 1.375203 0.176276
v 0.003816 1.349115 0.181067
v 0.017624 1.405345 0.167571
v 0.017624 1.349681 0.174154
v -0.010203 1.405306 0.168042
v -0.010203 1.349642 0.174625
v 0.040434 1.302326 0.236846
v 0.040255 1.288247 0.223464
v -0.032929 1.303229 0.237704
v -0.033108 1.289150 0.224322
v 0.003762 1.284451 0.229982
v 0.003856 1.299298 0.247605
v 0.045988 1.320009 0.187695
v 0.003762 1.316555 0.192173
v 0.003856 1.347541 0.221623
v 0.046195 1.336294 0.203173
v -0.038868 1.321053 0.188688
v -0.038662 1.337338 0.204165
v 0.045411 1.298283 0.210791
v 0.003856 1.323959 0.246434
v -0.038085 1.315376 0.227037
v 0.003762 1.292974 0.216984
v 0.045615 1.314346 0.226058
v -0.038289 1.299313 0.211770
v 0.003736 1.335252 0.184449
v 0.014294 1.342755 0.191172
v -0.006918 1.335061 0.183858
v 0.014243 1.334800 0.183611
v 0.003782 1.346363 0.195010
v -0.006867 1.343016 0.191419
vn -0.6628 0.5875 -0.4642
vn 0.2687 -0.9545 0.1296
vn -0.6628 -0.5042 -0.5536
vn -0.8125 0.5295 0.2439
vn 0.3294 0.9442 -0.0040
vn 0.9711 0.0195 -0.2380
vn 0.3294 -0.9309 -0.1575
vn -0.8125 -0.5622 0.1544
vn -0.3426 -0.6337 0.6936
vn 0.1421 0.9627 -0.2303
vn 0.4187 0.0741 -0.9051
vn 0.0795 -0.9075 -0.4125
vn -0.9978 0.0652 0.0118
vn 0.3601 0.3055 0.8815
vn -0.1523 0.9623 -0.2253
vn -0.4489 0.0729 -0.8906
vn -0.1523 -0.9128 -0.3789
vn 0.3601 -0.4449 0.8200
vn 0.8187 0.5318 0.2166
vn -0.3320 0.9433 0.0071
vn -0.9785 0.0168 -0.2055
vn -0.3320 -0.9318 -0.1465
vn 0.8187 -0.5599 0.1272
vn 0.6453 0.5893 -0.4861
vn -0.2617 0.9199 0.2920
vn -0.7713 -0.0520 0.6344
vn -0.2617 -0.9552 0.1384
vn 0.6453 -0.5024 -0.5755
vn 0.0168 -0.0816 0.9965
vn 0.0057 -0.9652 0.2613
vn -0.0140 -0.4776 -0.8785
vn -0.3309 -0.4432 0.8331
vn 0.1421 -0.9124 -0.3838
vn -0.3309 0.3017 0.8941
vn -0.0242 0.9991 0.0335
vn -0.0914 -0.9078 -0.4094
vn 0.9903 -0.1243 0.0621
vn -0.3797 0.1931 0.9047
vn -0.3935 -0.0234 0.9190
vn 0.4247 -0.0410 0.9044
vn 0.4090 0.1993 0.8905
vn -0.9938 -0.0926 0.0611
vn 0.3683 -0.6298 0.6839
vn 0.0224 0.9992 0.0332
vn 0.9965 0.0839 -0.0037
vn 0.9963 0.0855 -0.0054
vn -0.0000 0.9967 0.0816
vn -0.0000 -0.9967 -0.0816
vn -0.9976 -0.0684 0.0086
vn 0.9963 -0.0828 -0.0209
vn -0.9977 0.0657 0.0178
vn 0.9964 0.0843 -0.0055
vn 0.3759 0.2388 0.8953
vn -0.9973 -0.0724 0.0114
vn 0.9955 -0.0950 0.0016
vn -0.9976 0.0669 0.0179
vn -0.0009 -0.8103 -0.5860
vn 0.2236 -0.7136 0.6639
vn -0.2241 -0.7116 0.6659
vn -0.0326 -0.8099 -0.5857
vn 0.9521 -0.2169 0.2156
vn -0.3510 0.2418 0.9046
vn -0.9521 -0.2043 0.2276
vn -0.3815 0.6389 -0.6680
vn -0.2214 0.9729 -0.0672
vn 0.3817 0.6346 -0.6720
vn 0.0388 -0.3908 -0.9197
vn -0.0703 -0.3904 -0.9180
vn 0.2430 0.9676 -0.0688
vn -0.9998 -0.0059 0.0195
vn -0.4201 0.6537 0.6295
vn 0.9998 -0.0192 0.0069
vn -0.0224 -0.7263 -0.6870
vn -0.0115 -0.7264 -0.6871
vn 0.4464 0.6446 0.6207
vn 0.2531 0.9152 0.3136
vn -0.0533 -0.8990 -0.4348
vn 0.0316 -0.9017 -0.4312
vn 0.9815 -0.1772 0.0721
vn -0.2303 0.9236 0.3065
vn -0.9821 -0.1710 0.0792
vn 0.7922 -0.0498 0.6083
vn 0.2687 0.9207 0.2831
vn 0.0057 0.9099 0.4149
vn -0.0140 0.6142 -0.7891
vt 0.403735 0.434964
vt 0.324126 0.627887
vt 0.277805 0.595764
vt 0.347174 0.427845
vt 0.504143 0.325424
vt 0.576670 0.428626
vt 0.545146 0.471350
vt 0.454448 0.338003
vt 0.511092 0.515139
vt 0.404257 0.350774
vt 0.173800 0.758260
vt 0.148645 0.710399
vt 0.126769 0.663261
vt 0.233024 0.561255
vt 0.096848 0.612143
vt 0.187945 0.531501
vt 0.704800 0.465217
vt 0.707500 0.521550
vt 0.707987 0.579902
vt 0.778588 0.678731
vt 0.768637 0.696836
vt 0.751421 0.696756
vt 0.759891 0.674091
vt 0.038738 0.933699
vt 0.022056 0.941078
vt 0.021246 0.890526
vt 0.037008 0.887636
vt 0.020301 0.831537
vt 0.038180 0.834915
vt 0.019370 0.781390
vt 0.038738 0.781893
vt 0.739557 0.587515
vt 0.754052 0.641814
vt 0.744412 0.648685
vt 0.726385 0.595757
vt 0.000261 0.006760
vt 0.126563 0.000261
vt 0.113929 0.042738
vt 0.000332 0.042241
vt 0.103292 0.084352
vt 0.011244 0.077086
vt 0.086554 0.126698
vt 0.006825 0.113422
vt 0.808973 0.159176
vt 0.719503 0.100074
vt 0.731054 0.052025
vt 0.848613 0.127975
vt 0.741032 0.000261
vt 0.872331 0.090180
vt 0.273610 0.080290
vt 0.240033 0.115166
vt 0.207872 0.151016
vt 0.170670 0.184600
vt 0.598859 0.115416
vt 0.577267 0.070566
vt 0.552872 0.024432
vt 0.377488 0.232280
vt 0.328000 0.250062
vt 0.277814 0.269278
vt 0.223887 0.283674
vt 0.514513 0.203406
vt 0.469290 0.181968
vt 0.421301 0.161288
vt 0.287390 0.419386
vt 0.227073 0.410641
vt 0.853409 0.461762
vt 0.872331 0.508146
vt 0.816218 0.418879
vt 0.014443 0.692061
vt 0.000261 0.646941
vt 0.009133 0.737236
vt 0.016893 0.780868
vt 0.323463 0.822107
vt 0.333233 0.801800
vt 0.345814 0.801678
vt 0.336047 0.821990
vt 0.002523 0.835490
vt 0.000261 0.782519
vt 0.005385 0.888141
vt 0.005131 0.934232
vt 0.778552 0.714815
vt 0.754087 0.751805
vt 0.744440 0.744951
vt 0.759917 0.719364
vt 0.262314 0.806760
vt 0.287587 0.804759
vt 0.287310 0.849472
vt 0.264862 0.852105
vt 0.264150 0.782582
vt 0.287074 0.781390
vt 0.310019 0.782537
vt 0.312842 0.806762
vt 0.309773 0.852105
vt 0.323463 0.781516
vt 0.336047 0.781390
vt 0.739570 0.806158
vt 0.726385 0.797934
vt 0.772993 0.764985
vt 0.749770 0.813252
vt 0.745185 0.810068
vt 0.764667 0.759310
vt 0.323135 0.801793
vt 0.313364 0.781507
vt 0.317894 0.781511
vt 0.327665 0.801796
vt 0.814795 0.696976
vt 0.808333 0.725977
vt 0.804747 0.724439
vt 0.810623 0.696993
vt 0.772931 0.628617
vt 0.808466 0.667571
vt 0.804887 0.669142
vt 0.764623 0.634296
vt 0.313364 0.822101
vt 0.317894 0.822104
vt 0.749754 0.580424
vt 0.745171 0.583606
vt 0.116964 0.915974
vt 0.124366 0.848332
vt 0.159054 0.848722
vt 0.143335 0.907253
vt 0.239151 0.843052
vt 0.227361 0.782360
vt 0.250913 0.789910
vt 0.261792 0.843094
vt 0.879779 0.176200
vt 0.876607 0.121943
vt 0.904931 0.121356
vt 0.913386 0.176495
vt 0.877014 0.230964
vt 0.905333 0.231765
vt 0.227505 0.904370
vt 0.251039 0.896796
vt 0.874042 0.097329
vt 0.906357 0.096659
vt 0.117001 0.781390
vt 0.143353 0.790154
vt 0.906688 0.256476
vt 0.874379 0.255561
vt 0.897811 0.352755
vt 0.881809 0.352368
vt 0.872853 0.301790
vt 0.905609 0.302718
vt 0.044586 0.848640
vt 0.039260 0.831326
vt 0.065682 0.783328
vt 0.080955 0.848318
vt 0.882917 0.000659
vt 0.898918 0.000261
vt 0.905615 0.050410
vt 0.872853 0.051090
vt 0.159613 0.858937
vt 0.159576 0.843387
vt 0.189152 0.843110
vt 0.181349 0.905445
vt 0.159576 0.828018
vt 0.181202 0.781390
vt 0.039260 0.865999
vt 0.065607 0.914018
vt 0.778568 0.714795
vt 0.768663 0.696836
vt 0.779138 0.696626
vt 0.779701 0.699198
vt 0.782579 0.699874
vt 0.782819 0.696711
vt 0.782486 0.693533
vt 0.778604 0.678751
vt 0.779514 0.693952
s 0
usemtl Material
f 686/494/664 691/495/664 692/496/664 687/497/664
f 689/498/665 694/499/665 695/500/665 690/501/665
f 690/501/666 695/500/666 691/502/666 686/503/666
f 691/495/667 696/504/667 697/505/667 692/496/667
f 692/496/668 697/505/668 698/506/668 693/507/668
f 693/507/669 698/506/669 699/508/669 694/509/669
f 694/499/670 699/510/670 700/511/670 695/500/670
f 695/500/671 700/511/671 696/512/671 691/502/671
f 754/513/672 750/514/672 735/515/672 734/516/672
f 721/517/673 701/518/673 702/519/673 722/520/673
f 722/520/674 702/519/674 703/521/674 723/522/674
f 723/522/675 703/521/675 704/523/675 724/524/675
f 753/525/676 749/526/676 730/527/676 733/528/676
f 725/529/677 705/530/677 706/531/677 726/532/677
f 726/532/678 706/531/678 707/533/678 727/534/678
f 727/534/679 707/533/679 708/535/679 728/536/679
f 728/537/680 708/538/680 709/539/680 729/540/680
f 729/540/681 709/539/681 705/541/681 725/542/681
f 705/530/682 710/543/682 711/544/682 706/531/682
f 706/531/683 711/544/683 712/545/683 707/533/683
f 707/533/684 712/545/684 713/546/684 708/535/684
f 708/538/685 713/547/685 714/548/685 709/539/685
f 709/539/686 714/548/686 710/549/686 705/541/686
f 710/543/687 715/550/687 716/551/687 711/544/687
f 711/544/688 716/551/688 717/552/688 712/545/688
f 712/545/689 717/552/689 718/553/689 713/546/689
f 713/547/690 718/554/690 719/555/690 714/548/690
f 714/548/691 719/555/691 715/556/691 710/549/691
f 717/552/692 688/557/692 689/558/692 718/553/692
f 718/554/693 689/498/693 690/501/693 719/555/693
f 719/555/694 690/501/694 686/503/694 715/556/694
f 700/511/695 724/559/695 720/560/695 696/512/695
f 699/510/696 723/561/696 724/559/696 700/511/696
f 698/506/674 722/562/674 723/563/674 699/508/674
f 697/505/673 721/564/673 722/562/673 698/506/673
f 696/504/697 720/565/697 721/564/697 697/505/697
f 751/566/698 747/567/698 732/568/698 737/569/698
f 703/521/699 728/570/699 729/571/699 704/523/699
f 702/519/679 727/572/679 728/570/679 703/521/679
f 701/518/678 726/573/678 727/572/678 702/519/678
f 752/574/700 748/575/700 736/576/700 738/577/700
f 730/578/701 731/579/701 732/580/701 733/581/701
f 734/582/702 735/583/702 731/579/702 730/578/702
f 735/583/703 738/584/703 736/585/703 731/579/703
f 731/579/704 736/585/704 737/586/704 732/580/704
f 749/526/705 754/513/705 734/516/705 730/527/705
f 750/514/706 752/574/706 738/577/706 735/515/706
f 747/567/707 753/587/707 733/588/707 732/568/707
f 748/575/708 751/589/708 737/590/708 736/576/708
f 725/591/709 726/592/709 739/593/709 742/594/709
f 701/595/710 721/596/710 744/597/710 740/598/710
f 704/599/711 729/600/711 741/601/711 745/602/711
f 720/603/712 724/604/712 746/605/712 743/606/712
f 729/600/713 725/591/713 742/594/713 741/601/713
f 726/607/710 701/595/710 740/598/710 739/608/710
f 721/609/714 720/603/714 743/606/714 744/610/714
f 724/604/711 704/599/711 745/602/711 746/605/711
f 742/594/715 739/593/715 751/589/715 748/575/715
f 740/598/710 744/597/710 753/587/710 747/567/710
f 771/611/716 768/612/716 760/613/716 755/614/716
f 743/606/717 746/605/717 754/513/717 749/526/717
f 741/601/718 742/594/718 748/575/718 752/574/718
f 739/608/710 740/598/710 747/567/710 751/566/710
f 744/610/719 743/606/719 749/526/719 753/525/719
f 770/615/720 767/616/720 756/617/720 759/618/720
f 759/619/721 756/620/721 755/621/721 760/622/721
f 758/623/722 759/619/722 760/622/722 757/624/722
f 772/625/723 770/615/723 759/618/723 758/626/723
f 767/627/724 771/628/724 755/621/724 756/620/724
f 768/612/725 769/629/725 757/630/725 760/613/725
f 769/631/726 772/632/726 758/623/726 757/624/726
f 778/633/727 775/634/727 765/635/727 766/636/727
f 777/637/728 778/638/728 766/639/728 763/640/728
f 776/641/729 774/642/729 764/643/729 761/644/729
f 775/645/730 773/646/730 762/647/730 765/648/730
f 773/646/731 776/649/731 761/650/731 762/647/731
f 774/651/732 777/637/732 763/640/732 764/652/732
f 766/636/733 765/635/733 772/632/733 769/631/733
f 763/640/734 766/639/734 769/629/734 768/612/734
f 761/644/735 764/643/735 771/628/735 767/627/735
f 765/648/736 762/647/736 770/615/736 772/625/736
f 762/647/737 761/650/737 767/616/737 770/615/737
f 764/652/738 763/640/738 768/612/738 771/611/738
f 752/653/739 750/654/739 777/655/739 774/656/739
f 745/602/740 741/601/740 776/657/740 773/658/740
f 746/605/741 745/602/741 773/658/741 775/659/741
f 741/601/742 752/653/742 774/656/742 776/657/742
f 750/654/743 754/660/743 778/661/743 777/655/743
f 754/660/744 746/605/744 775/659/744 778/661/744
f 689/558/745 688/557/745 693/507/745 694/509/745
f 692/496/746 693/507/746 688/557/746 687/497/746
f 717/552/747 716/551/747 687/497/747 688/557/747
f 687/497/748 716/551/748 715/550/748 686/494/748
o earings
v -0.349074 1.906929 0.013103
v -0.350103 1.908683 -0.012850
v -0.413340 1.832518 0.011390
v -0.414368 1.834272 -0.014564
v -0.374588 1.865155 -0.012935
v -0.370900 1.860748 0.017410
v -0.393563 1.956352 -0.010012
v -0.424862 1.908630 -0.011737
v -0.422861 1.904467 0.045368
v -0.392373 1.954324 0.020008
v -0.467896 1.870284 -0.011994
v -0.466706 1.868255 0.018026
v -0.361951 1.928093 -0.012963
v -0.388198 1.874608 0.041977
v -0.434098 1.841196 0.014693
v -0.390199 1.878771 -0.015129
v -0.360778 1.926092 0.016648
v -0.435272 1.843197 -0.014918
v -0.443228 1.923903 0.001088
v -0.433819 1.933850 0.015054
v -0.452894 1.913427 -0.000102
v -0.434357 1.934891 0.000392
v -0.442499 1.922422 0.021566
v -0.452356 1.912386 0.014560
v 0.349074 1.906929 0.013103
v 0.350103 1.908683 -0.012850
v 0.413340 1.832518 0.011390
v 0.414368 1.834272 -0.014564
v 0.374588 1.865155 -0.012935
v 0.370900 1.860748 0.017410
v 0.393563 1.956352 -0.010012
v 0.424862 1.908630 -0.011737
v 0.422861 1.904467 0.045368
v 0.392373 1.954324 0.020008
v 0.467896 1.870284 -0.011994
v 0.466706 1.868255 0.018026
v 0.361951 1.928093 -0.012963
v 0.388198 1.874608 0.041976
v 0.434098 1.841196 0.014693
v 0.390199 1.878771 -0.015129
v 0.360778 1.926092 0.016648
v 0.435272 1.843197 -0.014918
v 0.443228 1.923903 0.001088
v 0.433819 1.933850 0.015054
v 0.452894 1.913427 -0.000102
v 0.434357 1.934891 0.000392
v 0.442499 1.922422 0.021566
v 0.452356 1.912386 0.014560
vn -0.7737 0.6293 0.0730
vn 0.6385 -0.0900 0.7644
vn 0.0671 -0.0139 -0.9977
vn 0.8793 -0.4598 -0.1240
vn 0.5866 -0.7983 -0.1365
vn 0.0463 -0.0378 -0.9982
vn 0.8535 0.5210 0.0014
vn 0.1668 -0.6429 0.7476
vn -0.3916 -0.9190 -0.0466
vn -0.9479 0.3132 0.0582
vn -0.6659 0.2517 0.7023
vn -0.4487 0.8902 0.0785
vn -0.3056 0.3561 -0.8831
vn -0.3762 0.2729 -0.8854
vn -0.3605 0.6013 0.7131
vn -0.6400 -0.7679 -0.0265
vn -0.2399 -0.3887 0.8896
vn 0.6675 0.7442 0.0238
vn -0.0463 0.0558 -0.9974
vn -0.0392 0.0641 -0.9972
vn 0.3265 0.2670 0.9067
vn -0.7371 0.6717 0.0748
vn 0.7737 0.6293 0.0730
vn -0.6385 -0.0900 0.7644
vn -0.0671 -0.0139 -0.9977
vn -0.8793 -0.4598 -0.1240
vn -0.5866 -0.7983 -0.1365
vn -0.0463 -0.0378 -0.9982
vn -0.8535 0.5210 0.0014
vn -0.1668 -0.6429 0.7476
vn 0.3916 -0.9190 -0.0466
vn 0.9479 0.3132 0.0582
vn 0.6659 0.2517 0.7023
vn 0.4487 0.8902 0.0785
vn 0.3056 0.3561 -0.8831
vn 0.3762 0.2729 -0.8854
vn 0.3605 0.6013 0.7131
vn 0.6400 -0.7679 -0.0265
vn 0.2399 -0.3887 0.8896
vn -0.6675 0.7442 0.0238
vn 0.0463 0.0558 -0.9974
vn 0.0392 0.0641 -0.9972
vn -0.3265 0.2670 0.9067
vn 0.7371 0.6717 0.0748
vt 0.511188 0.934653
vt 0.469981 0.934192
vt 0.484353 0.906037
vt 0.513854 0.906418
vt 0.998517 0.438295
vt 0.872853 0.416394
vt 0.893378 0.353277
vt 0.987802 0.393974
vt 0.579189 0.695429
vt 0.600921 0.807296
vt 0.557509 0.793380
vt 0.537457 0.695351
vt 0.531863 0.583309
vt 0.533925 0.683465
vt 0.481713 0.682574
vt 0.469981 0.580424
vt 0.407048 0.683765
vt 0.407551 0.582696
vt 0.469459 0.580424
vt 0.459259 0.682869
vt 0.600655 0.582405
vt 0.557276 0.596366
vt 0.536935 0.728981
vt 0.477366 0.727963
vt 0.815317 0.743175
vt 0.939753 0.721275
vt 0.929036 0.765613
vt 0.834628 0.806675
vt 0.463826 0.728255
vt 0.404257 0.729277
vt 0.455544 0.906278
vt 0.426048 0.906907
vt 0.405320 0.814527
vt 0.465712 0.813491
vt 0.834526 0.582166
vt 0.866001 0.580424
vt 0.940976 0.636026
vt 0.815317 0.651155
vt 0.475511 0.813201
vt 0.535903 0.814232
vt 0.725795 0.666149
vt 0.725863 0.694809
vt 0.671348 0.695321
vt 0.685730 0.580424
vt 0.725863 0.723139
vt 0.686002 0.809084
vt 0.924686 0.578896
vt 0.893127 0.577098
vt 0.872853 0.508415
vt 0.999739 0.523543
vt 0.469459 0.934564
vt 0.428260 0.935514
s 0
usemtl Material.001
f 797/662/749 801/663/749 798/664/749 800/665/749
f 795/666/750 792/667/750 784/668/750 779/669/750
f 794/670/751 791/671/751 780/672/751 783/673/751
f 783/674/752 780/675/752 779/676/752 784/677/752
f 782/678/753 783/679/753 784/680/753 781/681/753
f 796/682/754 794/670/754 783/673/754 782/683/754
f 791/684/755 795/685/755 779/676/755 780/675/755
f 792/686/756 793/687/756 781/688/756 784/689/756
f 793/690/757 796/691/757 782/678/757 781/681/757
f 802/692/758 799/693/758 789/694/758 790/695/758
f 801/696/759 802/697/759 790/698/759 787/699/759
f 800/665/760 798/664/760 788/700/760 785/701/760
f 799/702/761 797/703/761 786/704/761 789/705/761
f 797/703/762 800/706/762 785/707/762 786/704/762
f 798/708/763 801/709/763 787/710/763 788/711/763
f 790/695/764 789/694/764 796/691/764 793/690/764
f 787/699/765 790/698/765 793/687/765 792/686/765
f 785/701/766 788/700/766 795/685/766 791/684/766
f 789/705/767 786/704/767 794/670/767 796/682/767
f 786/704/768 785/707/768 791/671/768 794/670/768
f 788/711/769 787/710/769 792/667/769 795/666/769
f 801/712/770 797/713/770 799/693/770 802/692/770
f 821/662/771 824/665/771 822/664/771 825/663/771
f 819/666/772 803/669/772 808/668/772 816/667/772
f 818/670/773 807/673/773 804/672/773 815/671/773
f 807/674/774 808/677/774 803/676/774 804/675/774
f 806/678/775 805/681/775 808/680/775 807/679/775
f 820/682/776 806/683/776 807/673/776 818/670/776
f 815/684/777 804/675/777 803/676/777 819/685/777
f 816/686/778 808/689/778 805/688/778 817/687/778
f 817/690/779 805/681/779 806/678/779 820/691/779
f 826/692/780 814/695/780 813/694/780 823/693/780
f 825/696/781 811/699/781 814/698/781 826/697/781
f 824/665/782 809/701/782 812/700/782 822/664/782
f 823/702/783 813/705/783 810/704/783 821/703/783
f 821/703/784 810/704/784 809/707/784 824/706/784
f 822/708/785 812/711/785 811/710/785 825/709/785
f 814/695/786 817/690/786 820/691/786 813/694/786
f 811/699/787 816/686/787 817/687/787 814/698/787
f 809/701/788 815/684/788 819/685/788 812/700/788
f 813/705/789 820/682/789 818/670/789 810/704/789
f 810/704/790 818/670/790 815/671/790 809/707/790
f 812/711/791 819/666/791 816/667/791 811/710/791
f 825/712/792 826/692/792 823/693/792 821/713/792
